SplineFontDB: 3.0
FontName: Muli-Medium
FullName: Muli Medium
FamilyName: Muli
Weight: Medium
Copyright: 2013 (c) vernon adams
Version: 1
ItalicAngle: 0
UnderlinePosition: 0
UnderlineWidth: 0
Ascent: 1638
Descent: 410
sfntRevision: 0x00010000
LayerCount: 2
Layer: 0 1 "Back"  1
Layer: 1 1 "Fore"  0
XUID: [1021 1010 -509755826 7272210]
FSType: 0
OS2Version: 4
OS2_WeightWidthSlopeOnly: 0
OS2_UseTypoMetrics: 1
CreationTime: 1367898900
ModificationTime: 1368036738
PfmFamily: 17
TTFWeight: 500
TTFWidth: 5
LineGap: 0
VLineGap: 0
Panose: 2 0 6 3 0 0 0 0 0 0
OS2TypoAscent: 1978
OS2TypoAOffset: 0
OS2TypoDescent: -679
OS2TypoDOffset: 0
OS2TypoLinegap: 0
OS2WinAscent: 1978
OS2WinAOffset: 0
OS2WinDescent: 679
OS2WinDOffset: 0
HheadAscent: 1978
HheadAOffset: 0
HheadDescent: -679
HheadDOffset: 0
OS2SubXSize: 1331
OS2SubYSize: 1433
OS2SubXOff: 0
OS2SubYOff: 286
OS2SupXSize: 1331
OS2SupYSize: 1433
OS2SupXOff: 0
OS2SupYOff: 983
OS2StrikeYSize: 102
OS2StrikeYPos: 530
OS2Vendor: 'newt'
OS2CodePages: 20000093.00000000
OS2UnicodeRanges: a00000ff.4000204b.00000000.00000000
Lookup: 258 0 0 "'kern' Horizontal Kerning in Latin lookup 0"  {"'kern' Horizontal Kerning in Latin lookup 0 per glyph data 0"  "'kern' Horizontal Kerning in Latin lookup 0 kerning class 1"  } ['kern' ('DFLT' <'dflt' > 'latn' <'dflt' > ) ]
Lookup: 260 0 0 "'mark' Mark Positioning lookup 1"  {"'mark' Mark Positioning lookup 1 subtable"  } []
MarkAttachClasses: 1
DEI: 91125
KernClass2: 13 21 "'kern' Horizontal Kerning in Latin lookup 0 kerning class 1" 
 89 A Agrave Aacute Acircumflex Atilde Adieresis Aring Amacron Abreve Aogonek uni0200 uni0202
 16 D Dcaron uni1E0A
 9 F uni1E1E
 9 K uni0136
 23 L Lacute uni013B Lcaron
 9 P uni1E56
 32 T uni0162 Tcaron uni021A uni1E6A
 1 V
 37 W Wcircumflex Wgrave Wacute Wdieresis
 37 Y Yacute Ycircumflex Ydieresis Ygrave
 9 b uni1E03
 9 f uni1E1F
 89 A Agrave Aacute Acircumflex Atilde Adieresis Aring Amacron Abreve Aogonek uni0200 uni0202

StartChar: .notdef
Encoding: 65536 -1 0
Width: 748
Flags: W
LayerCount: 2
UndoRedoHistory
Layer: 1
Undoes
EndUndoes
Redoes
EndRedoes
EndUndoRedoHistory
Fore
SplineSet
136 68 m 1,0,-1
 544 68 l 1,1,-1
 544 1297 l 1,2,-1
 136 1297 l 1,3,-1
 136 68 l 1,0,-1
68 0 m 1,4,-1
 68 1365 l 1,5,-1
 612 1365 l 1,6,-1
 612 0 l 1,7,-1
 68 0 l 1,4,-1
EndSplineSet
EndChar

StartChar: exclam
Encoding: 33 33 4
Width: 617
GlyphClass: 2
Flags: W
LayerCount: 2
UndoRedoHistory
Layer: 1
Undoes
EndUndoes
Redoes
EndRedoes
EndUndoRedoHistory
Fore
SplineSet
262 380 m 1,0,-1
 201 1456 l 1,1,-1
 444 1456 l 1,2,-1
 383 380 l 1,3,-1
 262 380 l 1,0,-1
228 0 m 1,4,-1
 228 235 l 1,5,-1
 421 235 l 1,6,-1
 421 0 l 1,7,-1
 228 0 l 1,4,-1
EndSplineSet
EndChar

StartChar: quotedbl
Encoding: 34 34 5
Width: 762
GlyphClass: 2
Flags: W
LayerCount: 2
UndoRedoHistory
Layer: 1
Undoes
EndUndoes
Redoes
EndRedoes
EndUndoRedoHistory
Fore
SplineSet
483 961 m 1,0,-1
 437 1456 l 1,1,-1
 646 1456 l 1,2,-1
 609 961 l 1,3,-1
 483 961 l 1,0,-1
163 961 m 1,4,-1
 117 1456 l 1,5,-1
 326 1456 l 1,6,-1
 288 961 l 1,7,-1
 163 961 l 1,4,-1
EndSplineSet
EndChar

StartChar: numbersign
Encoding: 35 35 6
Width: 1276
GlyphClass: 2
Flags: W
LayerCount: 2
UndoRedoHistory
Layer: 1
Undoes
EndUndoes
Redoes
EndRedoes
EndUndoRedoHistory
Fore
SplineSet
501 609 m 1,0,-1
 728 609 l 1,1,-1
 780 878 l 1,2,-1
 555 878 l 1,3,-1
 501 609 l 1,0,-1
223 25 m 1,4,-1
 310 467 l 1,5,-1
 65 467 l 1,6,-1
 76 609 l 1,7,-1
 337 609 l 1,8,-1
 388 878 l 1,9,-1
 124 878 l 1,10,-1
 136 1020 l 1,11,-1
 416 1020 l 1,12,-1
 497 1441 l 1,13,-1
 664 1441 l 1,14,-1
 582 1020 l 1,15,-1
 808 1020 l 1,16,-1
 888 1441 l 1,17,-1
 1055 1441 l 1,18,-1
 973 1020 l 1,19,-1
 1204 1020 l 1,20,-1
 1194 878 l 1,21,-1
 946 878 l 1,22,-1
 894 609 l 1,23,-1
 1146 609 l 1,24,-1
 1135 467 l 1,25,-1
 867 467 l 1,26,-1
 780 25 l 1,27,-1
 615 25 l 1,28,-1
 700 467 l 1,29,-1
 475 467 l 1,30,-1
 389 25 l 1,31,-1
 223 25 l 1,4,-1
EndSplineSet
EndChar

StartChar: dollar
Encoding: 36 36 7
Width: 1210
GlyphClass: 2
Flags: W
LayerCount: 2
UndoRedoHistory
Layer: 1
Undoes
EndUndoes
Redoes
EndRedoes
EndUndoRedoHistory
Fore
SplineSet
683 163 m 1,0,1
 768 175 768 175 820 217 c 0,2,3
 894 276 894 276 893 386 c 0,4,5
 893 442 893 442 881.5 477 c 128,-1,6
 870 512 870 512 832 546 c 0,7,8
 794 580 794 580 728 608 c 0,9,10
 707 616 707 616 683 625 c 1,11,-1
 683 163 l 1,0,1
683 1481 m 1,12,13
 825 1475 825 1475 914 1438 c 0,14,15
 1020 1394 1020 1394 1090 1325 c 1,16,-1
 983 1182 l 1,17,18
 928 1234 928 1234 841 1268 c 0,19,20
 766 1297 766 1297 683 1301 c 1,21,-1
 683 837 l 1,22,23
 808 798 808 798 888 758 c 0,24,25
 972 716 972 716 1023 661.5 c 128,-1,26
 1074 607 1074 607 1095 541.5 c 128,-1,27
 1116 476 1116 476 1116 384 c 0,28,29
 1116 282 1116 282 1075.5 202.5 c 128,-1,30
 1035 123 1035 123 965 75 c 0,31,32
 896 26 896 26 806 2 c 0,33,34
 748 -14 748 -14 683 -19 c 1,35,-1
 683 -205 l 1,36,-1
 576 -205 l 1,37,-1
 576 -21 l 1,38,39
 436 -16 436 -16 318 31 c 0,40,41
 184 84 184 84 126 142 c 1,42,-1
 219 296 l 1,43,44
 282 246 282 246 390 202 c 0,45,46
 484 164 484 164 576 159 c 1,47,-1
 576 660 l 1,48,49
 563 664 563 664 549 668 c 0,50,51
 332 732 332 732 234 825.5 c 128,-1,52
 136 919 136 919 136 1094 c 0,53,54
 136 1219 136 1219 202.5 1308.5 c 128,-1,55
 269 1398 269 1398 378 1440 c 0,56,57
 467 1474 467 1474 576 1481 c 1,58,-1
 576 1630 l 1,59,-1
 683 1630 l 1,60,-1
 683 1481 l 1,12,13
576 1297 m 1,61,62
 498 1286 498 1286 443 1252 c 0,63,64
 362 1202 362 1202 362 1102 c 0,65,66
 362 1057 362 1057 370 1027 c 128,-1,67
 378 997 378 997 395.5 971.5 c 128,-1,68
 413 946 413 946 451 925 c 0,69,70
 490 904 490 904 540 884 c 0,71,72
 556 878 556 878 576 871 c 1,73,-1
 576 1297 l 1,61,62
EndSplineSet
EndChar

StartChar: percent
Encoding: 37 37 8
Width: 1805
GlyphClass: 2
Flags: W
LayerCount: 2
UndoRedoHistory
Layer: 1
Undoes
EndUndoes
Redoes
EndRedoes
EndUndoRedoHistory
Fore
SplineSet
1360 -24 m 128,-1,1
 1198 -24 1198 -24 1104.5 81.5 c 128,-1,2
 1011 187 1011 187 1011 351 c 0,3,4
 1011 512 1011 512 1106 619.5 c 128,-1,5
 1201 727 1201 727 1363 727 c 0,6,7
 1526 727 1526 727 1619 621 c 128,-1,8
 1712 515 1712 515 1712 352 c 0,9,10
 1712 188 1712 188 1617 82 c 128,-1,0
 1522 -24 1522 -24 1360 -24 c 128,-1,1
1362 111 m 128,-1,12
 1536 111 1536 111 1536 352 c 128,-1,13
 1536 593 1536 593 1363 593 c 0,14,15
 1188 593 1188 593 1188 350 c 0,16,11
 1188 111 1188 111 1362 111 c 128,-1,12
361 0 m 1,17,-1
 1283 1456 l 1,18,-1
 1457 1456 l 1,19,-1
 534 0 l 1,20,-1
 361 0 l 1,17,-1
443 730 m 0,21,22
 277 730 277 730 185 831.5 c 128,-1,23
 93 933 93 933 93 1104 c 0,24,25
 93 1271 93 1271 187 1375.5 c 128,-1,26
 281 1480 281 1480 445 1480 c 0,27,28
 610 1480 610 1480 702.5 1377 c 128,-1,29
 795 1274 795 1274 795 1105 c 0,30,31
 795 935 795 935 701 832.5 c 128,-1,32
 607 730 607 730 443 730 c 0,21,22
444 864 m 128,-1,34
 618 864 618 864 618 1106 c 0,35,36
 618 1346 618 1346 445 1346 c 0,37,38
 270 1346 270 1346 270 1104 c 0,39,33
 270 864 270 864 444 864 c 128,-1,34
EndSplineSet
EndChar

StartChar: ampersand
Encoding: 38 38 9
Width: 1552
GlyphClass: 2
Flags: W
LayerCount: 2
UndoRedoHistory
Layer: 1
Undoes
EndUndoes
Redoes
EndRedoes
EndUndoRedoHistory
Fore
SplineSet
601 933 m 1,0,1
 788 1050 788 1050 788 1168 c 0,2,3
 788 1238 788 1238 743 1272.5 c 128,-1,4
 698 1307 698 1307 639 1307 c 0,5,6
 572 1307 572 1307 530 1271 c 128,-1,7
 488 1235 488 1235 488 1167 c 0,8,9
 488 1046 488 1046 601 933 c 1,0,1
628 154 m 0,10,11
 730 154 730 154 807 192 c 128,-1,12
 884 230 884 230 954 300 c 1,13,-1
 563 719 l 1,14,15
 510 689 510 689 473.5 663 c 128,-1,16
 437 637 437 637 402.5 600 c 128,-1,17
 368 563 368 563 350.5 517 c 128,-1,18
 333 471 333 471 333 416 c 0,19,20
 333 301 333 301 415.5 227.5 c 128,-1,21
 498 154 498 154 628 154 c 0,10,11
629 -25 m 0,22,23
 409 -25 409 -25 266.5 93.5 c 128,-1,24
 124 212 124 212 124 415 c 0,25,26
 124 478 124 478 142 534.5 c 128,-1,27
 160 591 160 591 188 632.5 c 128,-1,28
 216 674 216 674 261.5 715.5 c 128,-1,29
 307 757 307 757 348.5 785.5 c 128,-1,30
 390 814 390 814 448 849 c 1,31,32
 367 939 367 939 327.5 1011 c 128,-1,33
 288 1083 288 1083 288 1172 c 0,34,35
 288 1316 288 1316 385.5 1395 c 128,-1,36
 483 1474 483 1474 631 1474 c 0,37,38
 724 1474 724 1474 802.5 1443.5 c 128,-1,39
 881 1413 881 1413 934 1344 c 128,-1,40
 987 1275 987 1275 987 1178 c 0,41,42
 987 978 987 978 721 813 c 1,43,-1
 1060 442 l 1,44,45
 1179 648 1179 648 1179 916 c 1,46,-1
 1369 881 l 1,47,48
 1366 727 1366 727 1319 570.5 c 128,-1,49
 1272 414 1272 414 1192 297 c 1,50,51
 1252 235 1252 235 1334.5 183.5 c 128,-1,52
 1417 132 1417 132 1505 109 c 1,53,-1
 1370 -12 l 1,54,55
 1226 11 1226 11 1075 168 c 1,56,57
 884 -25 884 -25 629 -25 c 0,22,23
EndSplineSet
EndChar

StartChar: quotesingle
Encoding: 39 39 10
Width: 500
GlyphClass: 2
Flags: W
LayerCount: 2
UndoRedoHistory
Layer: 1
Undoes
EndUndoes
Redoes
EndRedoes
EndUndoRedoHistory
Fore
SplineSet
190 938 m 1,0,-1
 151 1456 l 1,1,-1
 369 1456 l 1,2,-1
 339 938 l 1,3,-1
 190 938 l 1,0,-1
EndSplineSet
EndChar

StartChar: parenleft
Encoding: 40 40 11
Width: 653
GlyphClass: 2
Flags: W
LayerCount: 2
UndoRedoHistory
Layer: 1
Undoes
EndUndoes
Redoes
EndRedoes
EndUndoRedoHistory
Fore
SplineSet
410 -172 m 1,0,1
 283 21 283 21 207 236.5 c 128,-1,2
 131 452 131 452 131 664 c 0,3,4
 131 1082 131 1082 404 1516 c 1,5,-1
 604 1516 l 1,6,7
 337 1095 337 1095 337 664 c 0,8,9
 337 467 337 467 409.5 245 c 128,-1,10
 482 23 482 23 604 -172 c 1,11,-1
 410 -172 l 1,0,1
EndSplineSet
EndChar

StartChar: parenright
Encoding: 41 41 12
Width: 653
GlyphClass: 2
Flags: W
LayerCount: 2
UndoRedoHistory
Layer: 1
Undoes
EndUndoes
Redoes
EndRedoes
EndUndoRedoHistory
Fore
SplineSet
244 1496 m 1,0,1
 371 1304 371 1304 446.5 1088 c 128,-1,2
 522 872 522 872 522 660 c 0,3,4
 522 239 522 239 250 -192 c 1,5,-1
 50 -192 l 1,6,7
 317 229 317 229 317 660 c 0,8,9
 317 857 317 857 244.5 1078.5 c 128,-1,10
 172 1300 172 1300 50 1496 c 1,11,-1
 244 1496 l 1,0,1
EndSplineSet
EndChar

StartChar: asterisk
Encoding: 42 42 13
Width: 1092
GlyphClass: 2
Flags: W
LayerCount: 2
UndoRedoHistory
Layer: 1
Undoes
EndUndoes
Redoes
EndRedoes
EndUndoRedoHistory
Fore
SplineSet
703 689 m 1,0,-1
 539 947 l 1,1,-1
 377 692 l 1,2,-1
 224 794 l 1,3,-1
 426 1030 l 1,4,-1
 153 1125 l 1,5,-1
 218 1279 l 1,6,-1
 468 1157 l 1,7,-1
 438 1456 l 1,8,-1
 629 1456 l 1,9,-1
 608 1157 l 1,10,-1
 847 1279 l 1,11,-1
 920 1125 l 1,12,-1
 651 1030 l 1,13,-1
 858 789 l 1,14,-1
 703 689 l 1,0,-1
EndSplineSet
EndChar

StartChar: plus
Encoding: 43 43 14
Width: 1223
GlyphClass: 2
Flags: W
LayerCount: 2
UndoRedoHistory
Layer: 1
Undoes
EndUndoes
Redoes
EndRedoes
EndUndoRedoHistory
Fore
SplineSet
515 95 m 1,0,-1
 515 502 l 1,1,-1
 133 502 l 1,2,-1
 133 675 l 1,3,-1
 516 675 l 1,4,-1
 516 1074 l 1,5,-1
 707 1074 l 1,6,-1
 707 675 l 1,7,-1
 1091 675 l 1,8,-1
 1091 502 l 1,9,-1
 707 502 l 1,10,-1
 707 95 l 1,11,-1
 515 95 l 1,0,-1
EndSplineSet
EndChar

StartChar: comma
Encoding: 44 44 15
Width: 506
GlyphClass: 4
Flags: W
AnchorPoint: "Anchor-1" 300 346 mark 0
LayerCount: 2
UndoRedoHistory
Layer: 1
Undoes
EndUndoes
Redoes
EndRedoes
EndUndoRedoHistory
Fore
SplineSet
65 -267 m 1,0,-1
 175 237 l 1,1,-1
 407 237 l 1,2,-1
 236 -267 l 1,3,-1
 65 -267 l 1,0,-1
EndSplineSet
EndChar

StartChar: hyphen
Encoding: 45 45 16
Width: 699
GlyphClass: 2
Flags: W
LayerCount: 2
UndoRedoHistory
Layer: 1
Undoes
EndUndoes
Redoes
EndRedoes
EndUndoRedoHistory
Fore
SplineSet
60 477 m 1,0,-1
 60 638 l 1,1,-1
 640 638 l 1,2,-1
 640 477 l 1,3,-1
 60 477 l 1,0,-1
EndSplineSet
EndChar

StartChar: period
Encoding: 46 46 17
Width: 541
GlyphClass: 2
Flags: W
LayerCount: 2
UndoRedoHistory
Layer: 1
Undoes
EndUndoes
Redoes
EndRedoes
EndUndoRedoHistory
Fore
SplineSet
138 0 m 1,0,-1
 138 240 l 1,1,-1
 391 240 l 1,2,-1
 391 0 l 1,3,-1
 138 0 l 1,0,-1
EndSplineSet
EndChar

StartChar: slash
Encoding: 47 47 18
Width: 954
GlyphClass: 2
Flags: W
LayerCount: 2
UndoRedoHistory
Layer: 1
Undoes
EndUndoes
Redoes
EndRedoes
EndUndoRedoHistory
Fore
SplineSet
121 0 m 1,0,-1
 676 1456 l 1,1,-1
 869 1456 l 1,2,-1
 309 0 l 1,3,-1
 121 0 l 1,0,-1
EndSplineSet
EndChar

StartChar: zero
Encoding: 48 48 19
Width: 1244
GlyphClass: 2
Flags: W
LayerCount: 2
UndoRedoHistory
Layer: 1
Undoes
EndUndoes
Redoes
EndRedoes
EndUndoRedoHistory
Fore
SplineSet
625 -22 m 0,0,1
 464 -22 464 -22 350 74.5 c 128,-1,2
 236 171 236 171 180 340 c 128,-1,3
 124 509 124 509 124 735 c 0,4,5
 124 1090 124 1090 252.5 1286 c 128,-1,6
 381 1482 381 1482 627 1482 c 0,7,8
 871 1482 871 1482 996 1284 c 128,-1,9
 1121 1086 1121 1086 1121 734 c 0,10,11
 1121 507 1121 507 1068 339.5 c 128,-1,12
 1015 172 1015 172 902 75 c 128,-1,13
 789 -22 789 -22 625 -22 c 0,0,1
629 158 m 0,14,15
 900 158 900 158 900 734 c 0,16,17
 900 857 900 857 886 955 c 128,-1,18
 872 1053 872 1053 842 1133.5 c 128,-1,19
 812 1214 812 1214 757.5 1258 c 128,-1,20
 703 1302 703 1302 628 1302 c 0,21,22
 551 1302 551 1302 494 1258 c 128,-1,23
 437 1214 437 1214 404.5 1134 c 128,-1,24
 372 1054 372 1054 357 955 c 128,-1,25
 342 856 342 856 342 735 c 0,26,27
 342 158 342 158 629 158 c 0,14,15
EndSplineSet
EndChar

StartChar: one
Encoding: 49 49 20
Width: 1244
GlyphClass: 2
Flags: W
LayerCount: 2
UndoRedoHistory
Layer: 1
Undoes
EndUndoes
Redoes
EndRedoes
EndUndoRedoHistory
Fore
SplineSet
286 0 m 1,0,-1
 286 166 l 1,1,-1
 564 166 l 1,2,-1
 564 1232 l 1,3,4
 449 1172 449 1172 269 1109 c 1,5,-1
 269 1301 l 1,6,7
 433 1358 433 1358 601 1456 c 1,8,-1
 776 1456 l 1,9,-1
 776 166 l 1,10,-1
 1039 166 l 1,11,-1
 1039 0 l 1,12,-1
 286 0 l 1,0,-1
EndSplineSet
EndChar

StartChar: two
Encoding: 50 50 21
Width: 1244
GlyphClass: 2
Flags: W
LayerCount: 2
UndoRedoHistory
Layer: 1
Undoes
EndUndoes
Redoes
EndRedoes
EndUndoRedoHistory
Fore
SplineSet
603 1482 m 0,0,1
 795 1482 795 1482 921.5 1363.5 c 128,-1,2
 1048 1245 1048 1245 1053 1053 c 0,3,4
 1057 903 1057 903 984.5 769.5 c 128,-1,5
 912 636 912 636 759 479 c 2,6,-1
 465 176 l 1,7,-1
 1047 176 l 1,8,-1
 1047 0 l 1,9,-1
 207 0 l 1,10,-1
 207 165 l 1,11,-1
 638 613 l 2,12,13
 757 736 757 736 804 838.5 c 128,-1,14
 851 941 851 941 845 1050 c 1,15,16
 840 1165 840 1165 769.5 1233.5 c 128,-1,17
 699 1302 699 1302 588 1302 c 0,18,19
 556 1302 556 1302 523.5 1297.5 c 128,-1,20
 491 1293 491 1293 463 1285.5 c 128,-1,21
 435 1278 435 1278 407 1268.5 c 128,-1,22
 379 1259 379 1259 356 1248.5 c 128,-1,23
 333 1238 333 1238 312.5 1227.5 c 128,-1,24
 292 1217 292 1217 276.5 1207.5 c 128,-1,25
 261 1198 261 1198 249.5 1190.5 c 128,-1,26
 238 1183 238 1183 232 1178 c 2,27,-1
 226 1174 l 1,28,-1
 158 1340 l 1,29,30
 165 1346 165 1346 178.5 1355.5 c 128,-1,31
 192 1365 192 1365 236.5 1389.5 c 128,-1,32
 281 1414 281 1414 329.5 1432.5 c 128,-1,33
 378 1451 378 1451 452.5 1466.5 c 128,-1,34
 527 1482 527 1482 603 1482 c 0,0,1
EndSplineSet
EndChar

StartChar: three
Encoding: 51 51 22
Width: 1244
GlyphClass: 2
Flags: W
LayerCount: 2
UndoRedoHistory
Layer: 1
Undoes
EndUndoes
Redoes
EndRedoes
EndUndoRedoHistory
Fore
SplineSet
593 -22 m 0,0,1
 523 -22 523 -22 454 -10.5 c 128,-1,2
 385 1 385 1 341 14.5 c 128,-1,3
 297 28 297 28 253.5 47 c 128,-1,4
 210 66 210 66 198 73 c 128,-1,5
 186 80 186 80 175 87 c 1,6,-1
 236 250 l 1,7,8
 420 158 420 158 572 158 c 0,9,10
 711 158 711 158 793.5 226.5 c 128,-1,11
 876 295 876 295 876 414 c 0,12,13
 876 548 876 548 771.5 611.5 c 128,-1,14
 667 675 667 675 480 673 c 1,15,-1
 411 671 l 1,16,-1
 409 851 l 1,17,-1
 475 851 l 2,18,19
 663 851 663 851 751 907.5 c 128,-1,20
 839 964 839 964 839 1104 c 0,21,22
 839 1199 839 1199 757.5 1250.5 c 128,-1,23
 676 1302 676 1302 563 1302 c 0,24,25
 387 1302 387 1302 235 1180 c 1,26,-1
 139 1325 l 1,27,28
 231 1407 231 1407 335 1444.5 c 128,-1,29
 439 1482 439 1482 590 1482 c 0,30,31
 679 1482 679 1482 760 1458 c 128,-1,32
 841 1434 841 1434 906.5 1388.5 c 128,-1,33
 972 1343 972 1343 1011 1270 c 128,-1,34
 1050 1197 1050 1197 1050 1107 c 0,35,36
 1050 980 1050 980 981.5 887 c 128,-1,37
 913 794 913 794 783 766 c 1,38,39
 925 738 925 738 1005 641.5 c 128,-1,40
 1085 545 1085 545 1085 406 c 0,41,42
 1085 211 1085 211 943.5 94.5 c 128,-1,43
 802 -22 802 -22 593 -22 c 0,0,1
EndSplineSet
EndChar

StartChar: four
Encoding: 52 52 23
Width: 1244
GlyphClass: 2
Flags: W
LayerCount: 2
UndoRedoHistory
Layer: 1
Undoes
EndUndoes
Redoes
EndRedoes
EndUndoRedoHistory
Fore
SplineSet
326 537 m 1,0,-1
 748 537 l 1,1,-1
 748 1243 l 1,2,-1
 618 1019 l 1,3,-1
 326 537 l 1,0,-1
748 0 m 1,4,-1
 748 384 l 1,5,-1
 106 384 l 1,6,-1
 106 522 l 1,7,-1
 702 1456 l 1,8,-1
 950 1456 l 1,9,-1
 950 537 l 1,10,-1
 1171 537 l 1,11,-1
 1171 384 l 1,12,-1
 950 384 l 1,13,-1
 950 0 l 1,14,-1
 748 0 l 1,4,-1
EndSplineSet
EndChar

StartChar: five
Encoding: 53 53 24
Width: 1244
GlyphClass: 2
Flags: W
LayerCount: 2
UndoRedoHistory
Layer: 1
Undoes
EndUndoes
Redoes
EndRedoes
EndUndoRedoHistory
Fore
SplineSet
614 -23 m 0,0,1
 487 -23 487 -23 369.5 21.5 c 128,-1,2
 252 66 252 66 164 157 c 1,3,-1
 269 315 l 1,4,5
 339 235 339 235 428 197 c 128,-1,6
 517 159 517 159 610 159 c 0,7,8
 744 159 744 159 823 245.5 c 128,-1,9
 902 332 902 332 902 474 c 0,10,11
 902 596 902 596 837.5 680 c 128,-1,12
 773 764 773 764 660 764 c 0,13,14
 596 764 596 764 537.5 741 c 128,-1,15
 479 718 479 718 451 677 c 1,16,-1
 247 694 l 1,17,-1
 247 1456 l 1,18,-1
 1040 1456 l 1,19,-1
 1040 1274 l 1,20,-1
 441 1274 l 1,21,-1
 428 856 l 1,22,23
 513 952 513 952 687 952 c 0,24,25
 812 952 812 952 911.5 888.5 c 128,-1,26
 1011 825 1011 825 1065.5 715 c 128,-1,27
 1120 605 1120 605 1120 470 c 0,28,29
 1120 247 1120 247 978 112 c 128,-1,30
 836 -23 836 -23 614 -23 c 0,0,1
EndSplineSet
EndChar

StartChar: six
Encoding: 54 54 25
Width: 1244
GlyphClass: 2
Flags: W
LayerCount: 2
UndoRedoHistory
Layer: 1
Undoes
EndUndoes
Redoes
EndRedoes
EndUndoRedoHistory
Fore
SplineSet
666 158 m 0,0,1
 788 158 788 158 860 245 c 128,-1,2
 932 332 932 332 932 466 c 0,3,4
 932 603 932 603 864 688.5 c 128,-1,5
 796 774 796 774 668 774 c 0,6,7
 541 774 541 774 461.5 694.5 c 128,-1,8
 382 615 382 615 382 491 c 0,9,10
 382 337 382 337 460.5 247.5 c 128,-1,11
 539 158 539 158 666 158 c 0,0,1
666 -22 m 0,12,13
 536 -22 536 -22 435.5 29.5 c 128,-1,14
 335 81 335 81 271.5 176.5 c 128,-1,15
 208 272 208 272 176 402.5 c 128,-1,16
 144 533 144 533 144 695 c 0,17,18
 144 859 144 859 180.5 1000.5 c 128,-1,19
 217 1142 217 1142 287 1250 c 128,-1,20
 357 1358 357 1358 468 1420 c 128,-1,21
 579 1482 579 1482 718 1482 c 0,22,23
 936 1482 936 1482 1069 1363 c 1,24,-1
 998 1207 l 1,25,26
 878 1302 878 1302 720 1302 c 0,27,28
 568 1302 568 1302 477.5 1172 c 128,-1,29
 387 1042 387 1042 369 840 c 0,30,31
 368 830 368 830 367.5 819 c 128,-1,32
 367 808 367 808 366.5 794.5 c 128,-1,33
 366 781 366 781 366 774 c 1,34,35
 483 948 483 948 698 948 c 0,36,37
 899 948 899 948 1025 817.5 c 128,-1,38
 1151 687 1151 687 1151 470 c 0,39,40
 1151 256 1151 256 1019 117 c 128,-1,41
 887 -22 887 -22 666 -22 c 0,12,13
EndSplineSet
EndChar

StartChar: seven
Encoding: 55 55 26
Width: 1244
GlyphClass: 2
Flags: W
LayerCount: 2
UndoRedoHistory
Layer: 1
Undoes
EndUndoes
Redoes
EndRedoes
EndUndoRedoHistory
Fore
SplineSet
344 0 m 1,0,-1
 860 1280 l 1,1,-1
 166 1280 l 1,2,-1
 166 1456 l 1,3,-1
 1102 1456 l 1,4,-1
 1102 1296 l 1,5,-1
 572 0 l 1,6,-1
 344 0 l 1,0,-1
EndSplineSet
EndChar

StartChar: eight
Encoding: 56 56 27
Width: 1245
GlyphClass: 2
Flags: W
LayerCount: 2
UndoRedoHistory
Layer: 1
Undoes
EndUndoes
Redoes
EndRedoes
EndUndoRedoHistory
Fore
SplineSet
627 848 m 1,0,1
 743 876 743 876 809 946 c 128,-1,2
 875 1016 875 1016 875 1115 c 0,3,4
 875 1209 875 1209 803 1262.5 c 128,-1,5
 731 1316 731 1316 627 1316 c 0,6,7
 519 1316 519 1316 449 1262.5 c 128,-1,8
 379 1209 379 1209 379 1110 c 0,9,10
 379 1014 379 1014 445.5 944 c 128,-1,11
 512 874 512 874 627 848 c 1,0,1
627 146 m 0,12,13
 753 146 753 146 829 207.5 c 128,-1,14
 905 269 905 269 905 386 c 0,15,16
 905 489 905 489 826.5 570 c 128,-1,17
 748 651 748 651 630 678 c 1,18,19
 508 652 508 652 430 572.5 c 128,-1,20
 352 493 352 493 352 384 c 0,21,22
 352 271 352 271 427.5 208.5 c 128,-1,23
 503 146 503 146 627 146 c 0,12,13
629 -22 m 0,24,25
 494 -22 494 -22 385 24.5 c 128,-1,26
 276 71 276 71 209 165 c 128,-1,27
 142 259 142 259 142 385 c 0,28,29
 142 514 142 514 218.5 612.5 c 128,-1,30
 295 711 295 711 428 763 c 1,31,32
 311 814 311 814 242.5 901 c 128,-1,33
 174 988 174 988 174 1106 c 0,34,35
 174 1280 174 1280 301.5 1381 c 128,-1,36
 429 1482 429 1482 626 1482 c 0,37,38
 830 1482 830 1482 955.5 1380 c 128,-1,39
 1081 1278 1081 1278 1081 1101 c 0,40,41
 1081 982 1081 982 1013.5 895.5 c 128,-1,42
 946 809 946 809 829 762 c 1,43,44
 957 711 957 711 1035 609 c 128,-1,45
 1113 507 1113 507 1113 380 c 0,46,47
 1113 255 1113 255 1044 161.5 c 128,-1,48
 975 68 975 68 867 23 c 128,-1,49
 759 -22 759 -22 629 -22 c 0,24,25
EndSplineSet
EndChar

StartChar: nine
Encoding: 57 57 28
Width: 1244
GlyphClass: 2
Flags: W
LayerCount: 2
UndoRedoHistory
Layer: 1
Undoes
EndUndoes
Redoes
EndRedoes
EndUndoRedoHistory
Fore
SplineSet
348 1003 m 0,0,1
 348 870 348 870 412 788.5 c 128,-1,2
 476 707 476 707 607 707 c 0,3,4
 733 707 733 707 810.5 785.5 c 128,-1,5
 888 864 888 864 888 1003 c 0,6,7
 888 1127 888 1127 816.5 1214.5 c 128,-1,8
 745 1302 745 1302 617 1302 c 0,9,10
 493 1302 493 1302 420.5 1218.5 c 128,-1,11
 348 1135 348 1135 348 1003 c 0,0,1
566 -22 m 0,12,13
 386 -22 386 -22 203 70 c 1,14,-1
 274 240 l 1,15,16
 414 158 414 158 550 158 c 0,17,18
 707 158 707 158 802 281 c 128,-1,19
 897 404 897 404 897 643 c 2,20,-1
 897 689 l 1,21,22
 806 531 806 531 582 531 c 0,23,24
 375 531 375 531 254 660 c 128,-1,25
 133 789 133 789 133 998 c 0,26,27
 133 1209 133 1209 264 1345.5 c 128,-1,28
 395 1482 395 1482 616 1482 c 0,29,30
 857 1482 857 1482 982.5 1301 c 128,-1,31
 1108 1120 1108 1120 1108 772 c 0,32,33
 1108 390 1108 390 962.5 184 c 128,-1,34
 817 -22 817 -22 566 -22 c 0,12,13
EndSplineSet
EndChar

StartChar: colon
Encoding: 58 58 29
Width: 556
GlyphClass: 2
Flags: W
LayerCount: 2
UndoRedoHistory
Layer: 1
Undoes
EndUndoes
Redoes
EndRedoes
EndUndoRedoHistory
Fore
SplineSet
176 826 m 1,0,-1
 176 1066 l 1,1,-1
 410 1066 l 1,2,-1
 410 826 l 1,3,-1
 176 826 l 1,0,-1
176 0 m 1,4,-1
 176 240 l 1,5,-1
 410 240 l 1,6,-1
 410 0 l 1,7,-1
 176 0 l 1,4,-1
EndSplineSet
EndChar

StartChar: semicolon
Encoding: 59 59 30
Width: 541
GlyphClass: 2
Flags: W
LayerCount: 2
UndoRedoHistory
Layer: 1
Undoes
EndUndoes
Redoes
EndRedoes
EndUndoRedoHistory
Fore
SplineSet
176 826 m 1,0,-1
 176 1066 l 1,1,-1
 410 1066 l 1,2,-1
 410 826 l 1,3,-1
 176 826 l 1,0,-1
88 -267 m 1,4,-1
 196 237 l 1,5,-1
 429 237 l 1,6,-1
 258 -267 l 1,7,-1
 88 -267 l 1,4,-1
EndSplineSet
EndChar

StartChar: less
Encoding: 60 60 31
Width: 1308
GlyphClass: 2
Flags: W
LayerCount: 2
UndoRedoHistory
Layer: 1
Undoes
EndUndoes
Redoes
EndRedoes
EndUndoRedoHistory
Fore
SplineSet
1091 57 m 1,0,-1
 120 526 l 1,1,-1
 120 628 l 1,2,-1
 1095 1086 l 1,3,-1
 1095 896 l 1,4,-1
 384 576 l 1,5,-1
 1091 245 l 1,6,-1
 1091 57 l 1,0,-1
EndSplineSet
EndChar

StartChar: equal
Encoding: 61 61 32
Width: 1352
GlyphClass: 2
Flags: W
LayerCount: 2
UndoRedoHistory
Layer: 1
Undoes
EndUndoes
Redoes
EndRedoes
EndUndoRedoHistory
Fore
SplineSet
186 678 m 1,0,-1
 186 847 l 1,1,-1
 1165 847 l 1,2,-1
 1165 678 l 1,3,-1
 186 678 l 1,0,-1
187 282 m 1,4,-1
 187 450 l 1,5,-1
 1167 450 l 1,6,-1
 1167 282 l 1,7,-1
 187 282 l 1,4,-1
EndSplineSet
EndChar

StartChar: greater
Encoding: 62 62 33
Width: 1309
GlyphClass: 2
Flags: W
LayerCount: 2
UndoRedoHistory
Layer: 1
Undoes
EndUndoes
Redoes
EndRedoes
EndUndoRedoHistory
Fore
SplineSet
215 59 m 1,0,-1
 215 252 l 1,1,-1
 921 565 l 1,2,-1
 220 901 l 1,3,-1
 220 1091 l 1,4,-1
 1192 609 l 1,5,-1
 1192 503 l 1,6,-1
 215 59 l 1,0,-1
EndSplineSet
EndChar

StartChar: question
Encoding: 63 63 34
Width: 1044
GlyphClass: 2
Flags: W
LayerCount: 2
UndoRedoHistory
Layer: 1
Undoes
EndUndoes
Redoes
EndRedoes
EndUndoRedoHistory
Fore
SplineSet
340 0 m 1,0,-1
 340 235 l 1,1,-1
 533 235 l 1,2,-1
 533 0 l 1,3,-1
 340 0 l 1,0,-1
354 389 m 1,4,-1
 354 530 l 2,5,6
 354 600 354 600 392 666.5 c 128,-1,7
 430 733 430 733 484 786 c 128,-1,8
 538 839 538 839 592 890.5 c 128,-1,9
 646 942 646 942 684 1001.5 c 128,-1,10
 722 1061 722 1061 722 1121 c 0,11,12
 722 1214 722 1214 657 1258.5 c 128,-1,13
 592 1303 592 1303 487 1303 c 0,14,15
 407 1303 407 1303 324.5 1279.5 c 128,-1,16
 242 1256 242 1256 194 1231 c 1,17,-1
 194 1412 l 1,18,19
 247 1438 247 1438 331.5 1459.5 c 128,-1,20
 416 1481 416 1481 509 1481 c 0,21,22
 697 1481 697 1481 816 1390 c 128,-1,23
 935 1299 935 1299 935 1128 c 0,24,25
 935 1067 935 1067 912 1011 c 128,-1,26
 889 955 889 955 852.5 911 c 128,-1,27
 816 867 816 867 772 825.5 c 128,-1,28
 728 784 728 784 683.5 744 c 128,-1,29
 639 704 639 704 602.5 664 c 128,-1,30
 566 624 566 624 543 576 c 128,-1,31
 520 528 520 528 520 477 c 2,32,-1
 520 389 l 1,33,-1
 354 389 l 1,4,-1
EndSplineSet
EndChar

StartChar: at
Encoding: 64 64 35
Width: 1782
GlyphClass: 2
Flags: W
LayerCount: 2
UndoRedoHistory
Layer: 1
Undoes
EndUndoes
Redoes
EndRedoes
EndUndoRedoHistory
Fore
SplineSet
827 421 m 0,0,1
 936 421 936 421 1015 544.5 c 128,-1,2
 1094 668 1094 668 1094 823 c 0,3,4
 1094 900 1094 900 1055.5 946 c 128,-1,5
 1017 992 1017 992 950 992 c 0,6,7
 873 992 873 992 808.5 928.5 c 128,-1,8
 744 865 744 865 710 773.5 c 128,-1,9
 676 682 676 682 676 592 c 0,10,11
 676 516 676 516 717.5 468.5 c 128,-1,12
 759 421 759 421 827 421 c 0,0,1
932 -93 m 0,13,14
 758 -93 758 -93 607 -39 c 128,-1,15
 456 15 456 15 345 113 c 128,-1,16
 234 211 234 211 170.5 356.5 c 128,-1,17
 107 502 107 502 107 676 c 0,18,19
 107 858 107 858 174.5 1011 c 128,-1,20
 242 1164 242 1164 357 1265.5 c 128,-1,21
 472 1367 472 1367 624 1423.5 c 128,-1,22
 776 1480 776 1480 945 1480 c 0,23,24
 1098 1480 1098 1480 1233 1429 c 128,-1,25
 1368 1378 1368 1378 1465.5 1288.5 c 128,-1,26
 1563 1199 1563 1199 1619.5 1071 c 128,-1,27
 1676 943 1676 943 1676 796 c 0,28,29
 1676 657 1676 657 1624 531 c 128,-1,30
 1572 405 1572 405 1485 329 c 128,-1,31
 1398 253 1398 253 1300 253 c 0,32,33
 1200 253 1200 253 1147 307 c 128,-1,34
 1094 361 1094 361 1094 460 c 1,35,36
 1062 375 1062 375 983.5 319 c 128,-1,37
 905 263 905 263 803 263 c 0,38,39
 743 263 743 263 686 286.5 c 128,-1,40
 629 310 629 310 582 353.5 c 128,-1,41
 535 397 535 397 507 468 c 128,-1,42
 479 539 479 539 481 625 c 0,43,44
 483 731 483 731 524.5 828.5 c 128,-1,45
 566 926 566 926 630.5 993 c 128,-1,46
 695 1060 695 1060 774 1100 c 128,-1,47
 853 1140 853 1140 930 1140 c 0,48,49
 1010 1140 1010 1140 1067 1108 c 128,-1,50
 1124 1076 1124 1076 1145 1009 c 1,51,-1
 1168 1115 l 1,52,-1
 1344 1115 l 1,53,-1
 1242 617 l 2,54,55
 1219 503 1219 503 1219 452 c 0,56,57
 1219 417 1219 417 1236 391.5 c 128,-1,58
 1253 366 1253 366 1287 366 c 0,59,60
 1328 366 1328 366 1372 400 c 128,-1,61
 1416 434 1416 434 1452 491 c 128,-1,62
 1488 548 1488 548 1511.5 630.5 c 128,-1,63
 1535 713 1535 713 1535 801 c 0,64,65
 1535 927 1535 927 1487.5 1030.5 c 128,-1,66
 1440 1134 1440 1134 1359 1201.5 c 128,-1,67
 1278 1269 1278 1269 1172.5 1305.5 c 128,-1,68
 1067 1342 1067 1342 949 1342 c 0,69,70
 812 1342 812 1342 691.5 1298 c 128,-1,71
 571 1254 571 1254 478 1172 c 128,-1,72
 385 1090 385 1090 331.5 962 c 128,-1,73
 278 834 278 834 278 675 c 0,74,75
 278 552 278 552 314 447.5 c 128,-1,76
 350 343 350 343 412 269.5 c 128,-1,77
 474 196 474 196 558.5 144 c 128,-1,78
 643 92 643 92 740.5 67 c 128,-1,79
 838 42 838 42 944 42 c 0,80,81
 1075 42 1075 42 1203.5 80 c 128,-1,82
 1332 118 1332 118 1433 192 c 1,83,-1
 1507 98 l 1,84,85
 1403 4 1403 4 1250.5 -44.5 c 128,-1,86
 1098 -93 1098 -93 932 -93 c 0,13,14
EndSplineSet
EndChar

StartChar: A
Encoding: 65 65 36
Width: 1416
GlyphClass: 2
Flags: W
AnchorPoint: "Anchor-2" 1260 0 basechar 0
AnchorPoint: "Anchor-1" 736 0 basechar 0
AnchorPoint: "Anchor-0" 692 1536 basechar 0
LayerCount: 2
UndoRedoHistory
Layer: 1
Undoes
EndUndoes
Redoes
EndRedoes
EndUndoRedoHistory
Fore
SplineSet
458 563 m 1,0,-1
 946 563 l 1,1,-1
 703 1229 l 1,2,-1
 458 563 l 1,0,-1
22 0 m 1,3,-1
 596 1456 l 1,4,-1
 817 1456 l 1,5,-1
 1395 0 l 1,6,-1
 1161 0 l 1,7,-1
 1010 387 l 1,8,-1
 400 387 l 1,9,-1
 252 0 l 1,10,-1
 22 0 l 1,3,-1
EndSplineSet
EndChar

StartChar: B
Encoding: 66 66 37
Width: 1356
GlyphClass: 2
Flags: W
AnchorPoint: "Anchor-1" 676 0 basechar 0
AnchorPoint: "Anchor-0" 700 1536 basechar 0
LayerCount: 2
UndoRedoHistory
Layer: 1
Undoes
EndUndoes
Redoes
EndRedoes
EndUndoRedoHistory
Fore
SplineSet
408 851 m 1,0,-1
 637 851 l 2,1,2
 950 851 950 851 950 1073 c 0,3,4
 950 1124 950 1124 933.5 1160.5 c 128,-1,5
 917 1197 917 1197 889.5 1219 c 128,-1,6
 862 1241 862 1241 817 1254 c 128,-1,7
 772 1267 772 1267 723.5 1271.5 c 128,-1,8
 675 1276 675 1276 608 1276 c 2,9,-1
 408 1276 l 1,10,-1
 408 851 l 1,0,-1
409 182 m 1,11,-1
 679 182 l 2,12,13
 843 182 843 182 930 245.5 c 128,-1,14
 1017 309 1017 309 1017 428 c 0,15,16
 1017 569 1017 569 935.5 622 c 128,-1,17
 854 675 854 675 657 675 c 2,18,-1
 409 675 l 1,19,-1
 409 182 l 1,11,-1
196 0 m 1,20,-1
 196 1456 l 1,21,-1
 575 1456 l 2,22,23
 640 1456 640 1456 691.5 1453.5 c 128,-1,24
 743 1451 743 1451 808 1442.5 c 128,-1,25
 873 1434 873 1434 921.5 1419.5 c 128,-1,26
 970 1405 970 1405 1020 1378.5 c 128,-1,27
 1070 1352 1070 1352 1102 1315 c 128,-1,28
 1134 1278 1134 1278 1154 1223.5 c 128,-1,29
 1174 1169 1174 1169 1174 1101 c 0,30,31
 1174 989 1174 989 1116.5 904.5 c 128,-1,32
 1059 820 1059 820 944 782 c 1,33,34
 1087 754 1087 754 1165 658 c 128,-1,35
 1243 562 1243 562 1243 421 c 0,36,37
 1243 336 1243 336 1210 261 c 128,-1,38
 1177 186 1177 186 1113.5 127.5 c 128,-1,39
 1050 69 1050 69 948 34.5 c 128,-1,40
 846 0 846 0 718 0 c 2,41,-1
 196 0 l 1,20,-1
EndSplineSet
EndChar

StartChar: C
Encoding: 67 67 38
Width: 1402
GlyphClass: 2
Flags: W
AnchorPoint: "Anchor-1" 826 -20 basechar 0
AnchorPoint: "Anchor-0" 790 1536 basechar 0
LayerCount: 2
UndoRedoHistory
Layer: 1
Undoes
EndUndoes
Redoes
EndRedoes
EndUndoRedoHistory
Fore
SplineSet
827 -22 m 0,0,1
 714 -22 714 -22 609 7.5 c 128,-1,2
 504 37 504 37 412.5 98 c 128,-1,3
 321 159 321 159 253 245.5 c 128,-1,4
 185 332 185 332 145.5 454 c 128,-1,5
 106 576 106 576 106 720 c 0,6,7
 106 889 106 889 161.5 1032.5 c 128,-1,8
 217 1176 217 1176 312.5 1274 c 128,-1,9
 408 1372 408 1372 538 1427 c 128,-1,10
 668 1482 668 1482 815 1482 c 0,11,12
 1096 1482 1096 1482 1283 1330 c 1,13,-1
 1199 1184 l 1,14,15
 1037 1302 1037 1302 833 1302 c 0,16,17
 683 1302 683 1302 567.5 1224 c 128,-1,18
 452 1146 452 1146 391 1014.5 c 128,-1,19
 330 883 330 883 330 722 c 0,20,21
 330 463 330 463 472.5 310.5 c 128,-1,22
 615 158 615 158 839 158 c 0,23,24
 1053 158 1053 158 1247 306 c 1,25,-1
 1318 135 l 1,26,27
 1108 -22 1108 -22 827 -22 c 0,0,1
EndSplineSet
EndChar

StartChar: D
Encoding: 68 68 39
Width: 1543
GlyphClass: 2
Flags: W
AnchorPoint: "Anchor-1" 676 0 basechar 0
AnchorPoint: "Anchor-0" 700 1536 basechar 0
LayerCount: 2
UndoRedoHistory
Layer: 1
Undoes
EndUndoes
Redoes
EndRedoes
EndUndoRedoHistory
Fore
SplineSet
196 0 m 1,0,-1
 196 1456 l 1,1,-1
 550 1456 l 2,2,3
 1438 1456 1438 1456 1438 730 c 0,4,5
 1438 382 1438 382 1228 191 c 128,-1,6
 1018 0 1018 0 626 0 c 2,7,-1
 196 0 l 1,0,-1
408 180 m 1,8,-1
 639 180 l 2,9,10
 923 180 923 180 1068 324.5 c 128,-1,11
 1213 469 1213 469 1213 730 c 0,12,13
 1213 1012 1213 1012 1057 1144 c 128,-1,14
 901 1276 901 1276 573 1276 c 2,15,-1
 408 1276 l 1,16,-1
 408 180 l 1,8,-1
EndSplineSet
EndChar

StartChar: E
Encoding: 69 69 40
Width: 1200
GlyphClass: 2
Flags: W
AnchorPoint: "Anchor-2" 850 0 basechar 0
AnchorPoint: "Anchor-1" 826 0 basechar 0
AnchorPoint: "Anchor-0" 656 1536 basechar 0
LayerCount: 2
UndoRedoHistory
Layer: 1
Undoes
EndUndoes
Redoes
EndRedoes
EndUndoRedoHistory
Fore
SplineSet
196 0 m 1,0,-1
 196 1456 l 1,1,-1
 1084 1456 l 1,2,-1
 1084 1276 l 1,3,-1
 408 1276 l 1,4,-1
 408 849 l 1,5,-1
 1046 849 l 1,6,-1
 1046 669 l 1,7,-1
 409 669 l 1,8,-1
 409 180 l 1,9,-1
 1113 180 l 1,10,-1
 1113 0 l 1,11,-1
 196 0 l 1,0,-1
EndSplineSet
EndChar

StartChar: F
Encoding: 70 70 41
Width: 1123
GlyphClass: 2
Flags: W
AnchorPoint: "Anchor-1" 676 0 basechar 0
AnchorPoint: "Anchor-0" 700 1536 basechar 0
LayerCount: 2
UndoRedoHistory
Layer: 1
Undoes
EndUndoes
Redoes
EndRedoes
EndUndoRedoHistory
Fore
SplineSet
196 0 m 1,0,-1
 196 1456 l 1,1,-1
 1052 1456 l 1,2,-1
 1052 1276 l 1,3,-1
 408 1276 l 1,4,-1
 408 851 l 1,5,-1
 1010 851 l 1,6,-1
 1010 671 l 1,7,-1
 408 671 l 1,8,-1
 408 0 l 1,9,-1
 196 0 l 1,0,-1
EndSplineSet
EndChar

StartChar: G
Encoding: 71 71 42
Width: 1530
GlyphClass: 2
Flags: W
AnchorPoint: "Anchor-1" 826 -20 basechar 0
AnchorPoint: "Anchor-0" 830 1536 basechar 0
LayerCount: 2
UndoRedoHistory
Layer: 1
Undoes
EndUndoes
Redoes
EndRedoes
EndUndoRedoHistory
Fore
SplineSet
847 -22 m 0,0,1
 491 -22 491 -22 299.5 173.5 c 128,-1,2
 108 369 108 369 108 703 c 0,3,4
 108 925 108 925 203.5 1102.5 c 128,-1,5
 299 1280 299 1280 472.5 1381 c 128,-1,6
 646 1482 646 1482 866 1482 c 0,7,8
 1155 1482 1155 1482 1348 1337 c 1,9,-1
 1263 1189 l 1,10,11
 1101 1302 1101 1302 871 1302 c 0,12,13
 710 1302 710 1302 585.5 1224 c 128,-1,14
 461 1146 461 1146 394.5 1013 c 128,-1,15
 328 880 328 880 328 714 c 0,16,17
 328 459 328 459 461.5 308.5 c 128,-1,18
 595 158 595 158 856 158 c 0,19,20
 1017 158 1017 158 1150 205 c 1,21,-1
 1150 593 l 1,22,-1
 793 593 l 1,23,-1
 793 775 l 1,24,-1
 1364 775 l 1,25,-1
 1364 85 l 1,26,27
 1128 -22 1128 -22 847 -22 c 0,0,1
EndSplineSet
EndChar

StartChar: H
Encoding: 72 72 43
Width: 1559
GlyphClass: 2
Flags: W
AnchorPoint: "Anchor-1" 788 0 basechar 0
AnchorPoint: "Anchor-0" 793 1536 basechar 0
LayerCount: 2
UndoRedoHistory
Layer: 1
Undoes
EndUndoes
Redoes
EndRedoes
EndUndoRedoHistory
Fore
SplineSet
196 0 m 1,0,-1
 196 1456 l 1,1,-1
 408 1456 l 1,2,-1
 408 836 l 1,3,-1
 1151 836 l 1,4,-1
 1151 1456 l 1,5,-1
 1363 1456 l 1,6,-1
 1363 0 l 1,7,-1
 1153 0 l 1,8,-1
 1153 657 l 1,9,-1
 410 657 l 1,10,-1
 410 0 l 1,11,-1
 196 0 l 1,0,-1
EndSplineSet
EndChar

StartChar: I
Encoding: 73 73 44
Width: 604
GlyphClass: 2
Flags: W
AnchorPoint: "Anchor-1" 286 1 basechar 0
AnchorPoint: "Anchor-0" 298 1536 basechar 0
LayerCount: 2
UndoRedoHistory
Layer: 1
Undoes
EndUndoes
Redoes
EndRedoes
EndUndoRedoHistory
Fore
SplineSet
212 0 m 1,0,-1
 212 1456 l 1,1,-1
 424 1456 l 1,2,-1
 424 0 l 1,3,-1
 212 0 l 1,0,-1
EndSplineSet
EndChar

StartChar: J
Encoding: 74 74 45
Width: 816
GlyphClass: 2
Flags: W
AnchorPoint: "Anchor-0" 517 1516 basechar 0
LayerCount: 2
UndoRedoHistory
Layer: 1
Undoes
EndUndoes
Redoes
EndRedoes
EndUndoRedoHistory
Fore
SplineSet
263 -330 m 0,0,1
 133 -330 133 -330 -9 -278 c 1,2,-1
 24 -112 l 1,3,4
 142 -150 142 -150 231 -150 c 0,5,6
 334 -150 334 -150 373 -85 c 128,-1,7
 412 -20 412 -20 412 117 c 2,8,-1
 412 1456 l 1,9,-1
 624 1456 l 1,10,-1
 624 118 l 2,11,12
 624 -104 624 -104 531.5 -217 c 128,-1,13
 439 -330 439 -330 263 -330 c 0,0,1
EndSplineSet
EndChar

StartChar: K
Encoding: 75 75 46
Width: 1311
GlyphClass: 2
Flags: W
AnchorPoint: "Anchor-1" 726 0 basechar 0
AnchorPoint: "Anchor-0" 667 1536 basechar 0
LayerCount: 2
UndoRedoHistory
Layer: 1
Undoes
EndUndoes
Redoes
EndRedoes
EndUndoRedoHistory
Fore
SplineSet
196 0 m 1,0,-1
 196 1456 l 1,1,-1
 408 1456 l 1,2,-1
 408 806 l 1,3,-1
 1013 1456 l 1,4,-1
 1277 1456 l 1,5,-1
 618 754 l 1,6,-1
 1325 0 l 1,7,-1
 1054 0 l 1,8,-1
 409 679 l 1,9,-1
 409 0 l 1,10,-1
 196 0 l 1,0,-1
EndSplineSet
EndChar

StartChar: L
Encoding: 76 76 47
Width: 1124
GlyphClass: 2
Flags: W
AnchorPoint: "Anchor-1" 696 0 basechar 0
AnchorPoint: "Anchor-0" 580 1536 basechar 0
LayerCount: 2
UndoRedoHistory
Layer: 1
Undoes
EndUndoes
Redoes
EndRedoes
EndUndoRedoHistory
Fore
SplineSet
196 0 m 1,0,-1
 196 1456 l 1,1,-1
 408 1456 l 1,2,-1
 408 180 l 1,3,-1
 1084 180 l 1,4,-1
 1084 0 l 1,5,-1
 196 0 l 1,0,-1
EndSplineSet
EndChar

StartChar: M
Encoding: 77 77 48
Width: 1941
GlyphClass: 2
Flags: W
AnchorPoint: "Anchor-1" 976 0 basechar 0
AnchorPoint: "Anchor-0" 970 1536 basechar 0
LayerCount: 2
UndoRedoHistory
Layer: 1
Undoes
EndUndoes
Redoes
EndRedoes
EndUndoRedoHistory
Fore
SplineSet
196 0 m 1,0,-1
 196 1456 l 1,1,-1
 452 1456 l 1,2,-1
 875 496 l 1,3,-1
 972 274 l 1,4,-1
 1070 501 l 1,5,-1
 1491 1456 l 1,6,-1
 1745 1456 l 1,7,-1
 1745 0 l 1,8,-1
 1544 0 l 1,9,-1
 1544 1111 l 1,10,-1
 1469 945 l 1,11,-1
 1049 0 l 1,12,-1
 893 0 l 1,13,-1
 477 933 l 1,14,-1
 401 1111 l 1,15,-1
 401 0 l 1,16,-1
 196 0 l 1,0,-1
EndSplineSet
EndChar

StartChar: N
Encoding: 78 78 49
Width: 1605
GlyphClass: 2
Flags: W
AnchorPoint: "Anchor-1" 804 0 basechar 0
AnchorPoint: "Anchor-0" 809 1536 basechar 0
LayerCount: 2
UndoRedoHistory
Layer: 1
Undoes
EndUndoes
Redoes
EndRedoes
EndUndoRedoHistory
Fore
SplineSet
196 0 m 1,0,-1
 196 1456 l 1,1,-1
 424 1456 l 1,2,-1
 1105 456 l 1,3,-1
 1208 292 l 1,4,-1
 1208 1456 l 1,5,-1
 1409 1456 l 1,6,-1
 1409 0 l 1,7,-1
 1181 0 l 1,8,-1
 526 948 l 1,9,-1
 394 1157 l 1,10,-1
 394 0 l 1,11,-1
 196 0 l 1,0,-1
EndSplineSet
EndChar

StartChar: O
Encoding: 79 79 50
Width: 1640
GlyphClass: 2
Flags: W
AnchorPoint: "Anchor-1" 826 -20 basechar 0
AnchorPoint: "Anchor-0" 822 1536 basechar 0
LayerCount: 2
UndoRedoHistory
Layer: 1
Undoes
EndUndoes
Redoes
EndRedoes
EndUndoRedoHistory
Fore
SplineSet
823 -22 m 0,0,1
 488 -22 488 -22 297 181 c 128,-1,2
 106 384 106 384 106 731 c 0,3,4
 106 952 106 952 190 1121 c 128,-1,5
 274 1290 274 1290 438 1386 c 128,-1,6
 602 1482 602 1482 825 1482 c 0,7,8
 1041 1482 1041 1482 1202.5 1386.5 c 128,-1,9
 1364 1291 1364 1291 1449 1121.5 c 128,-1,10
 1534 952 1534 952 1534 731 c 0,11,12
 1534 385 1534 385 1345 181.5 c 128,-1,13
 1156 -22 1156 -22 823 -22 c 0,0,1
820 158 m 0,14,15
 1061 158 1061 158 1181.5 310 c 128,-1,16
 1302 462 1302 462 1302 731 c 0,17,18
 1302 857 1302 857 1273 960 c 128,-1,19
 1244 1063 1244 1063 1186 1140 c 128,-1,20
 1128 1217 1128 1217 1035.5 1259.5 c 128,-1,21
 943 1302 943 1302 823 1302 c 0,22,23
 704 1302 704 1302 610.5 1259.5 c 128,-1,24
 517 1217 517 1217 457 1140 c 128,-1,25
 397 1063 397 1063 365.5 959.5 c 128,-1,26
 334 856 334 856 334 731 c 0,27,28
 334 463 334 463 457.5 310.5 c 128,-1,29
 581 158 581 158 820 158 c 0,14,15
EndSplineSet
EndChar

StartChar: P
Encoding: 80 80 51
Width: 1270
GlyphClass: 2
Flags: W
AnchorPoint: "Anchor-1" 676 0 basechar 0
AnchorPoint: "Anchor-0" 700 1536 basechar 0
LayerCount: 2
UndoRedoHistory
Layer: 1
Undoes
EndUndoes
Redoes
EndRedoes
EndUndoRedoHistory
Fore
SplineSet
408 830 m 1,0,-1
 659 830 l 2,1,2
 739 830 739 830 795.5 839.5 c 128,-1,3
 852 849 852 849 896.5 873 c 128,-1,4
 941 897 941 897 963 941 c 128,-1,5
 985 985 985 985 985 1050 c 0,6,7
 985 1110 985 1110 968 1151 c 128,-1,8
 951 1192 951 1192 923.5 1216.5 c 128,-1,9
 896 1241 896 1241 846.5 1254.5 c 128,-1,10
 797 1268 797 1268 746 1272 c 128,-1,11
 695 1276 695 1276 618 1276 c 2,12,-1
 408 1276 l 1,13,-1
 408 830 l 1,0,-1
196 0 m 1,14,-1
 196 1456 l 1,15,-1
 612 1456 l 2,16,17
 691 1456 691 1456 753 1452 c 128,-1,18
 815 1448 815 1448 878.5 1437 c 128,-1,19
 942 1426 942 1426 988.5 1407.5 c 128,-1,20
 1035 1389 1035 1389 1077.5 1358.5 c 128,-1,21
 1120 1328 1120 1328 1146 1286 c 128,-1,22
 1172 1244 1172 1244 1187.5 1185 c 128,-1,23
 1203 1126 1203 1126 1203 1052 c 0,24,25
 1203 961 1203 961 1177.5 892 c 128,-1,26
 1152 823 1152 823 1107 777.5 c 128,-1,27
 1062 732 1062 732 993.5 703 c 128,-1,28
 925 674 925 674 844.5 662 c 128,-1,29
 764 650 764 650 662 650 c 2,30,-1
 408 650 l 1,31,-1
 408 0 l 1,32,-1
 196 0 l 1,14,-1
EndSplineSet
EndChar

StartChar: Q
Encoding: 81 81 52
Width: 1639
GlyphClass: 2
Flags: W
LayerCount: 2
UndoRedoHistory
Layer: 1
Undoes
EndUndoes
Redoes
EndRedoes
EndUndoRedoHistory
Fore
SplineSet
823 -22 m 0,0,1
 488 -22 488 -22 297 181 c 128,-1,2
 106 384 106 384 106 731 c 0,3,4
 106 952 106 952 190 1121 c 128,-1,5
 274 1290 274 1290 438 1386 c 128,-1,6
 602 1482 602 1482 825 1482 c 0,7,8
 1041 1482 1041 1482 1202.5 1386.5 c 128,-1,9
 1364 1291 1364 1291 1449 1121.5 c 128,-1,10
 1534 952 1534 952 1534 731 c 0,11,12
 1534 386 1534 386 1345 182 c 0,13,14
 1247 77 1247 77 1112 26 c 1,15,16
 1136 -21 1136 -21 1168 -72 c 0,17,18
 1202 -124 1202 -124 1235 -163 c 128,-1,19
 1268 -202 1268 -202 1297 -234.5 c 128,-1,20
 1326 -267 1326 -267 1344 -284 c 2,21,-1
 1361 -301 l 1,22,-1
 1236 -434 l 1,23,24
 1228 -426 1228 -426 1213.5 -412.5 c 128,-1,25
 1199 -399 1199 -399 1158 -354 c 0,26,27
 1118 -309 1118 -309 1080 -262 c 0,28,29
 1042 -216 1042 -216 996 -146 c 0,30,31
 953 -81 953 -81 922 -17 c 1,32,33
 874 -22 874 -22 823 -22 c 0,0,1
820 158 m 0,34,35
 1061 158 1061 158 1181.5 310 c 128,-1,36
 1302 462 1302 462 1302 731 c 0,37,38
 1302 857 1302 857 1273 960 c 128,-1,39
 1244 1063 1244 1063 1186 1140 c 128,-1,40
 1128 1217 1128 1217 1035.5 1259.5 c 128,-1,41
 943 1302 943 1302 823 1302 c 0,42,43
 704 1302 704 1302 610.5 1259.5 c 128,-1,44
 517 1217 517 1217 457 1140 c 128,-1,45
 397 1063 397 1063 365.5 959.5 c 128,-1,46
 334 856 334 856 334 731 c 0,47,48
 334 463 334 463 457.5 310.5 c 128,-1,49
 581 158 581 158 820 158 c 0,34,35
EndSplineSet
EndChar

StartChar: R
Encoding: 82 82 53
Width: 1359
GlyphClass: 2
Flags: W
AnchorPoint: "Anchor-1" 676 0 basechar 0
AnchorPoint: "Anchor-0" 700 1536 basechar 0
LayerCount: 2
UndoRedoHistory
Layer: 1
Undoes
EndUndoes
Redoes
EndRedoes
EndUndoRedoHistory
Fore
SplineSet
406 821 m 1,0,-1
 656 821 l 2,1,2
 708 821 708 821 750 827 c 128,-1,3
 792 833 792 833 830 849.5 c 128,-1,4
 868 866 868 866 894 891.5 c 128,-1,5
 920 917 920 917 935 958 c 128,-1,6
 950 999 950 999 950 1053 c 0,7,8
 950 1183 950 1183 886 1229.5 c 128,-1,9
 822 1276 822 1276 675 1276 c 2,10,-1
 406 1276 l 1,11,-1
 406 821 l 1,0,-1
196 0 m 1,12,-1
 196 1456 l 1,13,-1
 670 1456 l 2,14,15
 758 1456 758 1456 826.5 1447.5 c 128,-1,16
 895 1439 895 1439 963 1414 c 128,-1,17
 1031 1389 1031 1389 1075.5 1347 c 128,-1,18
 1120 1305 1120 1305 1147.5 1234 c 128,-1,19
 1175 1163 1175 1163 1175 1067 c 0,20,21
 1175 934 1175 934 1106.5 843.5 c 128,-1,22
 1038 753 1038 753 895 719 c 1,23,24
 970 691 970 691 1018.5 623 c 128,-1,25
 1067 555 1067 555 1113 442 c 2,26,-1
 1290 0 l 1,27,-1
 1060 0 l 1,28,-1
 896 433 l 2,29,30
 849 558 849 558 800 599.5 c 128,-1,31
 751 641 751 641 638 641 c 2,32,-1
 408 641 l 1,33,-1
 408 0 l 1,34,-1
 196 0 l 1,12,-1
EndSplineSet
EndChar

StartChar: S
Encoding: 83 83 54
Width: 1235
GlyphClass: 2
Flags: W
AnchorPoint: "Anchor-1" 612 -20 basechar 0
AnchorPoint: "Anchor-0" 604 1536 basechar 0
LayerCount: 2
UndoRedoHistory
Layer: 1
Undoes
EndUndoes
Redoes
EndRedoes
EndUndoRedoHistory
Fore
SplineSet
613 -22 m 0,0,1
 453 -22 453 -22 318.5 31 c 128,-1,2
 184 84 184 84 126 142 c 1,3,-1
 219 296 l 1,4,5
 282 246 282 246 390 202 c 128,-1,6
 498 158 498 158 604 158 c 0,7,8
 746 158 746 158 819.5 217 c 128,-1,9
 893 276 893 276 893 386 c 0,10,11
 893 442 893 442 881.5 477 c 128,-1,12
 870 512 870 512 832.5 546 c 128,-1,13
 795 580 795 580 728.5 607.5 c 128,-1,14
 662 635 662 635 549 668 c 0,15,16
 332 732 332 732 234 825.5 c 128,-1,17
 136 919 136 919 136 1094 c 0,18,19
 136 1219 136 1219 202.5 1308.5 c 128,-1,20
 269 1398 269 1398 378 1440 c 128,-1,21
 487 1482 487 1482 627 1482 c 0,22,23
 808 1482 808 1482 914 1438 c 128,-1,24
 1020 1394 1020 1394 1090 1325 c 1,25,-1
 983 1182 l 1,26,27
 928 1234 928 1234 841 1268 c 128,-1,28
 754 1302 754 1302 655 1302 c 0,29,30
 524 1302 524 1302 443 1252 c 128,-1,31
 362 1202 362 1202 362 1102 c 0,32,33
 362 1057 362 1057 370 1027 c 128,-1,34
 378 997 378 997 395.5 971.5 c 128,-1,35
 413 946 413 946 451 925 c 128,-1,36
 489 904 489 904 539.5 884.5 c 128,-1,37
 590 865 590 865 674 840 c 0,38,39
 804 800 804 800 887.5 758.5 c 128,-1,40
 971 717 971 717 1022.5 662 c 128,-1,41
 1074 607 1074 607 1095 541.5 c 128,-1,42
 1116 476 1116 476 1116 384 c 0,43,44
 1116 282 1116 282 1075.5 202.5 c 128,-1,45
 1035 123 1035 123 965 75 c 128,-1,46
 895 27 895 27 805.5 2.5 c 128,-1,47
 716 -22 716 -22 613 -22 c 0,0,1
EndSplineSet
EndChar

StartChar: T
Encoding: 84 84 55
Width: 1156
GlyphClass: 2
Flags: W
AnchorPoint: "Anchor-1" 580 1 basechar 0
AnchorPoint: "Anchor-0" 580 1536 basechar 0
LayerCount: 2
UndoRedoHistory
Layer: 1
Undoes
EndUndoes
Redoes
EndRedoes
EndUndoRedoHistory
Fore
SplineSet
470 0 m 1,0,-1
 470 1276 l 1,1,-1
 10 1276 l 1,2,-1
 10 1456 l 1,3,-1
 1146 1456 l 1,4,-1
 1146 1276 l 1,5,-1
 682 1276 l 1,6,-1
 682 0 l 1,7,-1
 470 0 l 1,0,-1
EndSplineSet
EndChar

StartChar: U
Encoding: 85 85 56
Width: 1498
GlyphClass: 2
Flags: W
AnchorPoint: "Anchor-2" 850 0 basechar 0
AnchorPoint: "Anchor-1" 826 -20 basechar 0
AnchorPoint: "Anchor-0" 756 1536 basechar 0
LayerCount: 2
UndoRedoHistory
Layer: 1
Undoes
EndUndoes
Redoes
EndRedoes
EndUndoRedoHistory
Fore
SplineSet
747 -22 m 0,0,1
 615 -22 615 -22 514 8.5 c 128,-1,2
 413 39 413 39 348.5 91 c 128,-1,3
 284 143 284 143 242.5 220 c 128,-1,4
 201 297 201 297 184.5 382.5 c 128,-1,5
 168 468 168 468 168 572 c 2,6,-1
 168 1456 l 1,7,-1
 380 1456 l 1,8,-1
 380 568 l 2,9,10
 380 355 380 355 472.5 256.5 c 128,-1,11
 565 158 565 158 750 158 c 0,12,13
 1120 158 1120 158 1120 564 c 2,14,-1
 1120 1456 l 1,15,-1
 1331 1456 l 1,16,-1
 1331 574 l 2,17,18
 1331 440 1331 440 1300 335 c 128,-1,19
 1269 230 1269 230 1202.5 148 c 128,-1,20
 1136 66 1136 66 1021 22 c 128,-1,21
 906 -22 906 -22 747 -22 c 0,0,1
EndSplineSet
EndChar

StartChar: V
Encoding: 86 86 57
Width: 1340
GlyphClass: 2
Flags: W
LayerCount: 2
UndoRedoHistory
Layer: 1
Undoes
EndUndoes
Redoes
EndRedoes
EndUndoRedoHistory
Fore
SplineSet
563 0 m 1,0,-1
 14 1456 l 1,1,-1
 252 1456 l 1,2,-1
 601 469 l 1,3,-1
 676 262 l 1,4,-1
 750 469 l 1,5,-1
 1103 1456 l 1,6,-1
 1326 1456 l 1,7,-1
 780 0 l 1,8,-1
 563 0 l 1,0,-1
EndSplineSet
EndChar

StartChar: W
Encoding: 87 87 58
Width: 2018
GlyphClass: 2
Flags: W
AnchorPoint: "Anchor-1" 1017 0 basechar 0
AnchorPoint: "Anchor-0" 1023 1536 basechar 0
LayerCount: 2
UndoRedoHistory
Layer: 1
Undoes
EndUndoes
Redoes
EndRedoes
EndUndoRedoHistory
Fore
SplineSet
422 0 m 1,0,-1
 18 1456 l 1,1,-1
 246 1456 l 1,2,-1
 489 511 l 1,3,-1
 552 246 l 1,4,-1
 624 506 l 1,5,-1
 911 1456 l 1,6,-1
 1122 1456 l 1,7,-1
 1413 503 l 1,8,-1
 1486 246 l 1,9,-1
 1543 498 l 1,10,-1
 1781 1456 l 1,11,-1
 2000 1456 l 1,12,-1
 1607 0 l 1,13,-1
 1360 0 l 1,14,-1
 1012 1169 l 1,15,-1
 665 0 l 1,16,-1
 422 0 l 1,0,-1
EndSplineSet
EndChar

StartChar: X
Encoding: 88 88 59
Width: 1298
GlyphClass: 2
Flags: W
LayerCount: 2
UndoRedoHistory
Layer: 1
Undoes
EndUndoes
Redoes
EndRedoes
EndUndoRedoHistory
Fore
SplineSet
1034 0 m 1,0,-1
 650 570 l 1,1,-1
 262 0 l 1,2,-1
 14 0 l 1,3,-1
 529 740 l 1,4,-1
 38 1456 l 1,5,-1
 297 1456 l 1,6,-1
 660 917 l 1,7,-1
 1030 1456 l 1,8,-1
 1273 1456 l 1,9,-1
 780 748 l 1,10,-1
 1291 0 l 1,11,-1
 1034 0 l 1,0,-1
EndSplineSet
EndChar

StartChar: Y
Encoding: 89 89 60
Width: 1240
GlyphClass: 2
Flags: W
AnchorPoint: "Anchor-1" 625 0 basechar 0
AnchorPoint: "Anchor-0" 620 1536 basechar 0
LayerCount: 2
UndoRedoHistory
Layer: 1
Undoes
EndUndoes
Redoes
EndRedoes
EndUndoRedoHistory
Fore
SplineSet
513 0 m 1,0,-1
 513 571 l 1,1,-1
 6 1456 l 1,2,-1
 244 1456 l 1,3,-1
 623 758 l 1,4,-1
 1004 1456 l 1,5,-1
 1244 1456 l 1,6,-1
 725 574 l 1,7,-1
 725 0 l 1,8,-1
 513 0 l 1,0,-1
EndSplineSet
EndChar

StartChar: Z
Encoding: 90 90 61
Width: 1185
GlyphClass: 2
Flags: W
AnchorPoint: "Anchor-1" 676 0 basechar 0
AnchorPoint: "Anchor-0" 700 1536 basechar 0
LayerCount: 2
UndoRedoHistory
Layer: 1
Undoes
EndUndoes
Redoes
EndRedoes
EndUndoRedoHistory
Fore
SplineSet
88 0 m 1,0,-1
 88 114 l 1,1,-1
 809 1276 l 1,2,-1
 117 1276 l 1,3,-1
 117 1456 l 1,4,-1
 1096 1456 l 1,5,-1
 1096 1346 l 1,6,-1
 368 180 l 1,7,-1
 1092 180 l 1,8,-1
 1092 0 l 1,9,-1
 88 0 l 1,0,-1
EndSplineSet
EndChar

StartChar: bracketleft
Encoding: 91 91 62
Width: 646
GlyphClass: 2
Flags: W
LayerCount: 2
UndoRedoHistory
Layer: 1
Undoes
EndUndoes
Redoes
EndRedoes
EndUndoRedoHistory
Fore
SplineSet
162 -203 m 1,0,-1
 162 1482 l 1,1,-1
 576 1482 l 1,2,-1
 576 1327 l 1,3,-1
 364 1327 l 1,4,-1
 364 -48 l 1,5,-1
 577 -48 l 1,6,-1
 577 -203 l 1,7,-1
 162 -203 l 1,0,-1
EndSplineSet
EndChar

StartChar: backslash
Encoding: 92 92 63
Width: 845
GlyphClass: 2
Flags: W
LayerCount: 2
UndoRedoHistory
Layer: 1
Undoes
EndUndoes
Redoes
EndRedoes
EndUndoRedoHistory
Fore
SplineSet
622 0 m 1,0,-1
 32 1456 l 1,1,-1
 217 1456 l 1,2,-1
 813 0 l 1,3,-1
 622 0 l 1,0,-1
EndSplineSet
EndChar

StartChar: bracketright
Encoding: 93 93 64
Width: 646
GlyphClass: 2
Flags: W
LayerCount: 2
UndoRedoHistory
Layer: 1
Undoes
EndUndoes
Redoes
EndRedoes
EndUndoRedoHistory
Fore
SplineSet
111 -203 m 1,0,-1
 111 -48 l 1,1,-1
 319 -48 l 1,2,-1
 319 1327 l 1,3,-1
 110 1327 l 1,4,-1
 110 1482 l 1,5,-1
 522 1482 l 1,6,-1
 522 -203 l 1,7,-1
 111 -203 l 1,0,-1
EndSplineSet
EndChar

StartChar: asciicircum
Encoding: 94 94 65
Width: 1605
GlyphClass: 2
Flags: W
LayerCount: 2
UndoRedoHistory
Layer: 1
Undoes
EndUndoes
Redoes
EndRedoes
EndUndoRedoHistory
Fore
SplineSet
242 553 m 1,0,-1
 734 1456 l 1,1,-1
 864 1456 l 1,2,-1
 1363 553 l 1,3,-1
 1161 553 l 1,4,-1
 797 1229 l 1,5,-1
 448 553 l 1,6,-1
 242 553 l 1,0,-1
EndSplineSet
EndChar

StartChar: underscore
Encoding: 95 95 66
Width: 964
GlyphClass: 2
Flags: W
LayerCount: 2
UndoRedoHistory
Layer: 1
Undoes
EndUndoes
Redoes
EndRedoes
EndUndoRedoHistory
Fore
SplineSet
-8 -264 m 1,0,-1
 -8 -102 l 1,1,-1
 972 -102 l 1,2,-1
 972 -264 l 1,3,-1
 -8 -264 l 1,0,-1
EndSplineSet
EndChar

StartChar: grave
Encoding: 96 96 67
Width: 600
GlyphClass: 2
Flags: W
LayerCount: 2
UndoRedoHistory
Layer: 1
Undoes
EndUndoes
Redoes
EndRedoes
EndUndoRedoHistory
Fore
SplineSet
367 1173 m 1,0,-1
 26 1552 l 1,1,-1
 292 1552 l 1,2,-1
 545 1173 l 1,3,-1
 367 1173 l 1,0,-1
EndSplineSet
EndChar

StartChar: a
Encoding: 97 97 68
Width: 1281
GlyphClass: 2
Flags: W
AnchorPoint: "Anchor-2" 994 0 basechar 0
AnchorPoint: "Anchor-1" 616 0 basechar 0
AnchorPoint: "Anchor-0" 637 1152 basechar 0
LayerCount: 2
UndoRedoHistory
Layer: 1
Undoes
EndUndoes
Redoes
EndRedoes
EndUndoRedoHistory
Fore
SplineSet
624 885 m 0,0,1
 468 885 468 885 390 782.5 c 128,-1,2
 312 680 312 680 312 516 c 0,3,4
 312 411 312 411 343.5 329.5 c 128,-1,5
 375 248 375 248 447.5 196.5 c 128,-1,6
 520 145 520 145 627 145 c 0,7,8
 775 145 775 145 851.5 247 c 128,-1,9
 928 349 928 349 928 520 c 0,10,11
 928 681 928 681 850.5 783 c 128,-1,12
 773 885 773 885 624 885 c 0,0,1
920 874 m 1,13,-1
 920 1026 l 1,14,-1
 1123 1026 l 1,15,-1
 1123 0 l 1,16,-1
 918 0 l 1,17,-1
 918 164 l 1,18,19
 886 102 886 102 830 56 c 0,20,21
 732 -22 732 -22 595 -22 c 0,22,23
 478 -22 478 -22 383.5 22 c 128,-1,24
 289 66 289 66 229 140.5 c 128,-1,25
 169 215 169 215 137 310 c 128,-1,26
 105 405 105 405 105 510 c 0,27,28
 105 619 105 619 139.5 717.5 c 128,-1,29
 174 816 174 816 236 890.5 c 128,-1,30
 298 965 298 965 391 1008.5 c 128,-1,31
 484 1052 484 1052 594 1052 c 0,32,33
 736 1052 736 1052 843 962 c 0,34,35
 892 920 892 920 920 874 c 1,13,-1
EndSplineSet
EndChar

StartChar: b
Encoding: 98 98 69
Width: 1279
GlyphClass: 2
Flags: W
AnchorPoint: "Anchor-1" 826 0 basechar 0
AnchorPoint: "Anchor-0" 686 1249 basechar 0
LayerCount: 2
UndoRedoHistory
Layer: 1
Undoes
EndUndoes
Redoes
EndRedoes
EndUndoRedoHistory
Fore
SplineSet
677 145 m 0,0,1
 816 145 816 145 889 248 c 128,-1,2
 962 351 962 351 962 525 c 0,3,4
 962 684 962 684 886 784.5 c 128,-1,5
 810 885 810 885 676 885 c 0,6,7
 533 885 533 885 449 782 c 128,-1,8
 365 679 365 679 365 515 c 0,9,10
 365 350 365 350 448 247.5 c 128,-1,11
 531 145 531 145 677 145 c 0,0,1
707 -22 m 0,12,13
 589 -22 589 -22 499 30.5 c 128,-1,14
 409 83 409 83 370 158 c 1,15,-1
 370 0 l 1,16,-1
 160 0 l 1,17,18
 167 217 167 217 167 271 c 2,19,-1
 167 1478 l 1,20,-1
 373 1478 l 1,21,-1
 373 865 l 1,22,23
 407 937 407 937 494.5 994.5 c 128,-1,24
 582 1052 582 1052 711 1052 c 0,25,26
 924 1052 924 1052 1050.5 908.5 c 128,-1,27
 1177 765 1177 765 1177 528 c 0,28,29
 1177 280 1177 280 1044 129 c 128,-1,30
 911 -22 911 -22 707 -22 c 0,12,13
EndSplineSet
EndChar

StartChar: c
Encoding: 99 99 70
Width: 1047
GlyphClass: 2
Flags: W
AnchorPoint: "Anchor-1" 599 0 basechar 0
AnchorPoint: "Anchor-0" 597 1152 basechar 0
LayerCount: 2
UndoRedoHistory
Layer: 1
Undoes
EndUndoes
Redoes
EndRedoes
EndUndoRedoHistory
Fore
SplineSet
627 -22 m 0,0,1
 468 -22 468 -22 348 47.5 c 128,-1,2
 228 117 228 117 165 237 c 128,-1,3
 102 357 102 357 102 508 c 0,4,5
 102 749 102 749 247.5 900.5 c 128,-1,6
 393 1052 393 1052 630 1052 c 0,7,8
 850 1052 850 1052 975 925 c 1,9,-1
 902 790 l 1,10,11
 794 884 794 884 646 884 c 128,-1,12
 498 884 498 884 406.5 787 c 128,-1,13
 315 690 315 690 315 509 c 0,14,15
 315 342 315 342 403.5 243.5 c 128,-1,16
 492 145 492 145 644 145 c 0,17,18
 791 145 791 145 915 238 c 1,19,-1
 979 89 l 1,20,21
 828 -22 828 -22 627 -22 c 0,0,1
EndSplineSet
EndChar

StartChar: d
Encoding: 100 100 71
Width: 1264
GlyphClass: 2
Flags: W
AnchorPoint: "Anchor-1" 825 0 basechar 0
AnchorPoint: "Anchor-0" 542 1208 basechar 0
LayerCount: 2
UndoRedoHistory
Layer: 1
Undoes
EndUndoes
Redoes
EndRedoes
EndUndoRedoHistory
Fore
SplineSet
606 145 m 0,0,1
 749 145 749 145 824.5 247 c 128,-1,2
 900 349 900 349 900 522 c 0,3,4
 900 682 900 682 823.5 783.5 c 128,-1,5
 747 885 747 885 610 885 c 0,6,7
 471 885 471 885 393.5 782 c 128,-1,8
 316 679 316 679 316 512 c 0,9,10
 316 348 316 348 391 246.5 c 128,-1,11
 466 145 466 145 606 145 c 0,0,1
573 -22 m 0,12,13
 368 -22 368 -22 235 122.5 c 128,-1,14
 102 267 102 267 102 507 c 0,15,16
 102 748 102 748 231 900 c 128,-1,17
 360 1052 360 1052 585 1052 c 0,18,19
 699 1052 699 1052 781.5 1002.5 c 128,-1,20
 864 953 864 953 895 890 c 1,21,-1
 895 1478 l 1,22,-1
 1101 1478 l 1,23,-1
 1101 266 l 1,24,25
 1103 146 1103 146 1108 0 c 1,26,-1
 899 0 l 1,27,-1
 896 158 l 1,28,29
 867 87 867 87 784 32.5 c 128,-1,30
 701 -22 701 -22 573 -22 c 0,12,13
EndSplineSet
EndChar

StartChar: e
Encoding: 101 101 72
Width: 1168
GlyphClass: 2
Flags: W
AnchorPoint: "Anchor-2" 864 56 basechar 0
AnchorPoint: "Anchor-1" 651 0 basechar 0
AnchorPoint: "Anchor-0" 603 1152 basechar 0
LayerCount: 2
UndoRedoHistory
Layer: 1
Undoes
EndUndoes
Redoes
EndRedoes
EndUndoRedoHistory
Fore
SplineSet
320 622 m 1,0,-1
 876 622 l 1,1,2
 862 752 862 752 792.5 821 c 128,-1,3
 723 890 723 890 616 890 c 0,4,5
 499 890 499 890 420 819 c 128,-1,6
 341 748 341 748 320 622 c 1,0,-1
638 -22 m 0,7,8
 391 -22 391 -22 246.5 123.5 c 128,-1,9
 102 269 102 269 102 511 c 0,10,11
 102 745 102 745 241.5 898.5 c 128,-1,12
 381 1052 381 1052 609 1052 c 0,13,14
 755 1052 755 1052 857.5 983 c 128,-1,15
 960 914 960 914 1008 798 c 128,-1,16
 1056 682 1056 682 1056 529 c 0,17,18
 1056 515 1056 515 1052 482 c 1,19,-1
 315 482 l 1,20,21
 319 318 319 318 410.5 231.5 c 128,-1,22
 502 145 502 145 651 145 c 0,23,24
 831 145 831 145 972 258 c 1,25,-1
 1032 106 l 1,26,27
 867 -22 867 -22 638 -22 c 0,7,8
EndSplineSet
EndChar

StartChar: f
Encoding: 102 102 73
Width: 757
GlyphClass: 2
Flags: W
AnchorPoint: "Anchor-1" 366 0 basechar 0
AnchorPoint: "Anchor-0" 543 1464 basechar 0
LayerCount: 2
UndoRedoHistory
Layer: 1
Undoes
EndUndoes
Redoes
EndRedoes
EndUndoRedoHistory
Fore
SplineSet
254 0 m 1,0,-1
 254 889 l 1,1,-1
 69 889 l 1,2,-1
 69 1026 l 1,3,-1
 254 1026 l 1,4,-1
 254 1091 l 2,5,6
 254 1154 254 1154 257.5 1198 c 128,-1,7
 261 1242 261 1242 271 1286.5 c 128,-1,8
 281 1331 281 1331 299 1359.5 c 128,-1,9
 317 1388 317 1388 347 1413 c 128,-1,10
 377 1438 377 1438 420.5 1452 c 128,-1,11
 464 1466 464 1466 523.5 1474 c 128,-1,12
 583 1482 583 1482 661 1482 c 2,13,-1
 711 1482 l 1,14,-1
 706 1323 l 1,15,16
 647 1323 647 1323 608.5 1320 c 128,-1,17
 570 1317 570 1317 541 1306 c 128,-1,18
 512 1295 512 1295 497 1282 c 128,-1,19
 482 1269 482 1269 473 1241 c 128,-1,20
 464 1213 464 1213 462 1183.5 c 128,-1,21
 460 1154 460 1154 460 1104 c 2,22,-1
 460 1026 l 1,23,-1
 700 1026 l 1,24,-1
 700 889 l 1,25,-1
 460 889 l 1,26,-1
 460 0 l 1,27,-1
 254 0 l 1,0,-1
EndSplineSet
EndChar

StartChar: g
Encoding: 103 103 74
Width: 1247
GlyphClass: 2
Flags: W
AnchorPoint: "Anchor-1" 588 -512 basechar 0
AnchorPoint: "Anchor-0" 580 1124 basechar 0
LayerCount: 2
UndoRedoHistory
Layer: 1
Undoes
EndUndoes
Redoes
EndRedoes
EndUndoRedoHistory
Fore
SplineSet
603 181 m 0,0,1
 752 181 752 181 826 277.5 c 128,-1,2
 900 374 900 374 900 537 c 0,3,4
 900 696 900 696 825 790.5 c 128,-1,5
 750 885 750 885 615 885 c 0,6,7
 475 885 475 885 396 783.5 c 128,-1,8
 317 682 317 682 317 519 c 0,9,10
 317 357 317 357 390.5 269 c 128,-1,11
 464 181 464 181 603 181 c 0,0,1
895 888 m 1,12,-1
 896 1026 l 1,13,-1
 1110 1026 l 1,14,15
 1097 866 1097 866 1097 728 c 2,16,-1
 1097 147 l 2,17,18
 1097 54 1097 54 1080 -27 c 128,-1,19
 1063 -108 1063 -108 1024 -179.5 c 128,-1,20
 985 -251 985 -251 926 -302 c 128,-1,21
 867 -353 867 -353 778 -382.5 c 128,-1,22
 689 -412 689 -412 576 -412 c 0,23,24
 370 -412 370 -412 189 -320 c 1,25,-1
 222 -142 l 1,26,27
 394 -247 394 -247 567 -247 c 0,28,29
 724 -247 724 -247 809 -165 c 128,-1,30
 894 -83 894 -83 894 78 c 2,31,-1
 894 180 l 1,32,33
 880 160 880 160 857 134 c 0,34,35
 828 102 828 102 793 78 c 128,-1,36
 758 54 758 54 704.5 37.5 c 128,-1,37
 651 21 651 21 589 21 c 0,38,39
 376 21 376 21 239.5 154.5 c 128,-1,40
 103 288 103 288 103 516 c 0,41,42
 103 754 103 754 229 903 c 128,-1,43
 355 1052 355 1052 584 1052 c 0,44,45
 659 1052 659 1052 720.5 1030.5 c 128,-1,46
 782 1009 782 1009 822 972.5 c 128,-1,47
 862 936 862 936 888 898 c 0,48,49
 892 893 892 893 895 888 c 1,12,-1
EndSplineSet
EndChar

StartChar: h
Encoding: 104 104 75
Width: 1232
GlyphClass: 2
Flags: W
AnchorPoint: "Anchor-1" 645 0 basechar 0
AnchorPoint: "Anchor-0" 737 1260 basechar 0
LayerCount: 2
UndoRedoHistory
Layer: 1
Undoes
EndUndoes
Redoes
EndRedoes
EndUndoRedoHistory
Fore
SplineSet
158 0 m 1,0,-1
 158 1478 l 1,1,-1
 364 1478 l 1,2,-1
 364 875 l 1,3,4
 407 954 407 954 502.5 1003 c 128,-1,5
 598 1052 598 1052 699 1052 c 0,6,7
 783 1052 783 1052 849.5 1026.5 c 128,-1,8
 916 1001 916 1001 959 958.5 c 128,-1,9
 1002 916 1002 916 1030 857 c 128,-1,10
 1058 798 1058 798 1070 735.5 c 128,-1,11
 1082 673 1082 673 1082 603 c 2,12,-1
 1082 0 l 1,13,-1
 876 0 l 1,14,-1
 876 603 l 2,15,16
 876 752 876 752 826 818.5 c 128,-1,17
 776 885 776 885 667 885 c 0,18,19
 550 885 550 885 457 805 c 128,-1,20
 364 725 364 725 364 621 c 2,21,-1
 364 0 l 1,22,-1
 158 0 l 1,0,-1
EndSplineSet
EndChar

StartChar: i
Encoding: 105 105 76
Width: 556
GlyphClass: 2
Flags: W
AnchorPoint: "Anchor-1" 248 1 basechar 0
LayerCount: 2
UndoRedoHistory
Layer: 1
Undoes
EndUndoes
Redoes
EndRedoes
EndUndoRedoHistory
Fore
SplineSet
184 1270 m 1,0,-1
 184 1456 l 1,1,-1
 386 1456 l 1,2,-1
 386 1270 l 1,3,-1
 184 1270 l 1,0,-1
182 0 m 1,4,-1
 182 1026 l 1,5,-1
 386 1026 l 1,6,-1
 386 0 l 1,7,-1
 182 0 l 1,4,-1
EndSplineSet
EndChar

StartChar: j
Encoding: 106 106 77
Width: 575
GlyphClass: 2
Flags: W
LayerCount: 2
UndoRedoHistory
Layer: 1
Undoes
EndUndoes
Redoes
EndRedoes
EndUndoRedoHistory
Fore
SplineSet
210 1270 m 1,0,-1
 210 1456 l 1,1,-1
 416 1456 l 1,2,-1
 416 1270 l 1,3,-1
 210 1270 l 1,0,-1
86 -391 m 0,4,5
 9 -391 9 -391 -83 -369 c 1,6,-1
 -65 -219 l 1,7,8
 -3 -237 -3 -237 62 -237 c 0,9,10
 146 -237 146 -237 178 -185 c 128,-1,11
 210 -133 210 -133 210 12 c 2,12,-1
 210 1026 l 1,13,-1
 416 1026 l 1,14,-1
 416 5 l 2,15,16
 416 -200 416 -200 342.5 -295.5 c 128,-1,17
 269 -391 269 -391 86 -391 c 0,4,5
EndSplineSet
EndChar

StartChar: k
Encoding: 107 107 78
Width: 1080
GlyphClass: 2
Flags: W
AnchorPoint: "Anchor-1" 616 -1 basechar 0
AnchorPoint: "Anchor-0" 767 1152 basechar 0
LayerCount: 2
UndoRedoHistory
Layer: 1
Undoes
EndUndoes
Redoes
EndRedoes
EndUndoRedoHistory
Fore
SplineSet
160 0 m 1,0,-1
 160 1478 l 1,1,-1
 366 1478 l 1,2,-1
 366 597 l 1,3,-1
 785 1026 l 1,4,-1
 1068 1026 l 1,5,-1
 558 536 l 1,6,-1
 1103 0 l 1,7,-1
 829 0 l 1,8,-1
 366 473 l 1,9,-1
 366 0 l 1,10,-1
 160 0 l 1,0,-1
EndSplineSet
EndChar

StartChar: l
Encoding: 108 108 79
Width: 532
GlyphClass: 2
Flags: W
AnchorPoint: "Anchor-1" 264 0 basechar 0
AnchorPoint: "Anchor-0" 266 1474 basechar 0
LayerCount: 2
UndoRedoHistory
Layer: 1
Undoes
EndUndoes
Redoes
EndRedoes
EndUndoRedoHistory
Fore
SplineSet
168 0 m 1,0,-1
 168 1478 l 1,1,-1
 374 1478 l 1,2,-1
 374 0 l 1,3,-1
 168 0 l 1,0,-1
EndSplineSet
EndChar

StartChar: m
Encoding: 109 109 80
Width: 1864
GlyphClass: 2
Flags: W
AnchorPoint: "Anchor-1" 946 0 basechar 0
AnchorPoint: "Anchor-0" 952 1024 basechar 0
LayerCount: 2
UndoRedoHistory
Layer: 1
Undoes
EndUndoes
Redoes
EndRedoes
EndUndoRedoHistory
Fore
SplineSet
170 0 m 1,0,-1
 170 728 l 2,1,2
 170 804 170 804 158 1026 c 1,3,-1
 374 1026 l 1,4,-1
 374 870 l 1,5,6
 413 953 413 953 501 1002.5 c 128,-1,7
 589 1052 589 1052 689 1052 c 0,8,9
 792 1052 792 1052 874.5 996.5 c 128,-1,10
 957 941 957 941 996 840 c 1,11,12
 1055 938 1055 938 1147 995 c 128,-1,13
 1239 1052 1239 1052 1356 1052 c 0,14,15
 1532 1052 1532 1052 1623 940.5 c 128,-1,16
 1714 829 1714 829 1714 630 c 2,17,-1
 1714 0 l 1,18,-1
 1508 0 l 1,19,-1
 1508 611 l 2,20,21
 1508 885 1508 885 1335 885 c 0,22,23
 1221 885 1221 885 1134.5 795 c 128,-1,24
 1048 705 1048 705 1048 584 c 2,25,-1
 1048 0 l 1,26,-1
 842 0 l 1,27,-1
 842 631 l 2,28,29
 842 683 842 683 832.5 726.5 c 128,-1,30
 823 770 823 770 802 807 c 128,-1,31
 781 844 781 844 743.5 864.5 c 128,-1,32
 706 885 706 885 654 885 c 0,33,34
 538 885 538 885 457.5 802.5 c 128,-1,35
 377 720 377 720 377 612 c 2,36,-1
 377 0 l 1,37,-1
 170 0 l 1,0,-1
EndSplineSet
EndChar

StartChar: n
Encoding: 110 110 81
Width: 1241
GlyphClass: 2
Flags: W
AnchorPoint: "Anchor-1" 676 0 basechar 0
AnchorPoint: "Anchor-0" 697 1152 basechar 0
LayerCount: 2
UndoRedoHistory
Layer: 1
Undoes
EndUndoes
Redoes
EndRedoes
EndUndoRedoHistory
Fore
SplineSet
171 0 m 1,0,-1
 171 708 l 2,1,2
 171 789 171 789 167.5 868.5 c 128,-1,3
 164 948 164 948 161 987 c 2,4,-1
 158 1026 l 1,5,-1
 374 1026 l 1,6,-1
 374 876 l 1,7,8
 426 958 426 958 519 1005 c 128,-1,9
 612 1052 612 1052 710 1052 c 0,10,11
 906 1052 906 1052 998.5 932.5 c 128,-1,12
 1091 813 1091 813 1091 567 c 2,13,-1
 1091 0 l 1,14,-1
 885 0 l 1,15,-1
 885 566 l 2,16,17
 885 732 885 732 839.5 808.5 c 128,-1,18
 794 885 794 885 670 885 c 0,19,20
 561 885 561 885 469.5 805.5 c 128,-1,21
 378 726 378 726 377 634 c 1,22,-1
 377 0 l 1,23,-1
 171 0 l 1,0,-1
EndSplineSet
EndChar

StartChar: o
Encoding: 111 111 82
Width: 1265
GlyphClass: 2
Flags: W
AnchorPoint: "Anchor-2" 726 0 basechar 0
AnchorPoint: "Anchor-1" 826 0 basechar 0
AnchorPoint: "Anchor-0" 619 1152 basechar 0
LayerCount: 2
UndoRedoHistory
Layer: 1
Undoes
EndUndoes
Redoes
EndRedoes
EndUndoRedoHistory
Fore
SplineSet
635 -22 m 0,0,1
 467 -22 467 -22 345 48 c 128,-1,2
 223 118 223 118 162.5 237.5 c 128,-1,3
 102 357 102 357 102 512 c 0,4,5
 102 753 102 753 244 902.5 c 128,-1,6
 386 1052 386 1052 637 1052 c 128,-1,7
 888 1052 888 1052 1025.5 903 c 128,-1,8
 1163 754 1163 754 1163 512 c 0,9,10
 1163 358 1163 358 1103 238.5 c 128,-1,11
 1043 119 1043 119 922 48.5 c 128,-1,12
 801 -22 801 -22 635 -22 c 0,0,1
635 145 m 0,13,14
 788 145 788 145 867.5 246 c 128,-1,15
 947 347 947 347 947 513 c 0,16,17
 947 681 947 681 866.5 783 c 128,-1,18
 786 885 786 885 634 885 c 0,19,20
 481 885 481 885 399.5 783 c 128,-1,21
 318 681 318 681 318 512 c 0,22,23
 318 347 318 347 398.5 246 c 128,-1,24
 479 145 479 145 635 145 c 0,13,14
EndSplineSet
EndChar

StartChar: p
Encoding: 112 112 83
Width: 1261
GlyphClass: 2
Flags: W
AnchorPoint: "Anchor-1" 826 0 basechar 0
AnchorPoint: "Anchor-0" 673 1014 basechar 0
LayerCount: 2
UndoRedoHistory
Layer: 1
Undoes
EndUndoes
Redoes
EndRedoes
EndUndoRedoHistory
Fore
SplineSet
658 145 m 0,0,1
 796 145 796 145 870 248 c 128,-1,2
 944 351 944 351 944 518 c 0,3,4
 944 683 944 683 870 784 c 128,-1,5
 796 885 796 885 660 885 c 0,6,7
 520 885 520 885 443 780.5 c 128,-1,8
 366 676 366 676 366 506 c 0,9,10
 366 344 366 344 442 244.5 c 128,-1,11
 518 145 518 145 658 145 c 0,0,1
169 -412 m 1,12,-1
 169 720 l 2,13,14
 169 801 169 801 156 1026 c 1,15,-1
 373 1026 l 1,16,-1
 373 858 l 1,17,18
 398 934 398 934 492 993 c 128,-1,19
 586 1052 586 1052 702 1052 c 0,20,21
 910 1052 910 1052 1034.5 903.5 c 128,-1,22
 1159 755 1159 755 1159 526 c 0,23,24
 1159 372 1159 372 1103.5 248 c 128,-1,25
 1048 124 1048 124 942 51 c 128,-1,26
 836 -22 836 -22 697 -22 c 0,27,28
 580 -22 580 -22 488 33.5 c 128,-1,29
 396 89 396 89 373 155 c 1,30,-1
 373 -412 l 1,31,-1
 169 -412 l 1,12,-1
EndSplineSet
EndChar

StartChar: q
Encoding: 113 113 84
Width: 1254
GlyphClass: 2
Flags: W
LayerCount: 2
UndoRedoHistory
Layer: 1
Undoes
EndUndoes
Redoes
EndRedoes
EndUndoRedoHistory
Fore
SplineSet
605 145 m 0,0,1
 747 145 747 145 821.5 249 c 128,-1,2
 896 353 896 353 896 525 c 0,3,4
 896 686 896 686 821 785.5 c 128,-1,5
 746 885 746 885 609 885 c 0,6,7
 470 885 470 885 394 782.5 c 128,-1,8
 318 680 318 680 318 512 c 0,9,10
 318 347 318 347 392 246 c 128,-1,11
 466 145 466 145 605 145 c 0,0,1
889 -412 m 1,12,-1
 889 128 l 1,13,14
 835 63 835 63 755.5 20.5 c 128,-1,15
 676 -22 676 -22 579 -22 c 0,16,17
 432 -22 432 -22 322 50 c 128,-1,18
 212 122 212 122 157 243.5 c 128,-1,19
 102 365 102 365 102 517 c 0,20,21
 102 671 102 671 159 791.5 c 128,-1,22
 216 912 216 912 326.5 982 c 128,-1,23
 437 1052 437 1052 585 1052 c 0,24,25
 677 1052 677 1052 757 1010.5 c 128,-1,26
 837 969 837 969 890 894 c 1,27,-1
 890 1026 l 1,28,-1
 1101 1026 l 1,29,30
 1093 885 1093 885 1093 772 c 2,31,-1
 1093 -412 l 1,32,-1
 889 -412 l 1,12,-1
EndSplineSet
EndChar

StartChar: r
Encoding: 114 114 85
Width: 807
GlyphClass: 2
Flags: W
AnchorPoint: "Anchor-1" 338 -3 basechar 0
AnchorPoint: "Anchor-0" 487 1152 basechar 0
LayerCount: 2
UndoRedoHistory
Layer: 1
Undoes
EndUndoes
Redoes
EndRedoes
EndUndoRedoHistory
Fore
SplineSet
173 0 m 1,0,-1
 173 773 l 2,1,2
 173 802 173 802 169.5 865 c 128,-1,3
 166 928 166 928 162 977 c 2,4,-1
 159 1026 l 1,5,-1
 377 1026 l 1,6,-1
 377 874 l 1,7,8
 481 1051 481 1051 644 1051 c 0,9,10
 698 1051 698 1051 749 1038 c 1,11,-1
 749 856 l 1,12,13
 690 874 690 874 631 874 c 0,14,15
 518 874 518 874 449 795 c 128,-1,16
 380 716 380 716 380 574 c 2,17,-1
 380 0 l 1,18,-1
 173 0 l 1,0,-1
EndSplineSet
EndChar

StartChar: s
Encoding: 115 115 86
Width: 988
GlyphClass: 2
Flags: W
AnchorPoint: "Anchor-1" 501 0 basechar 0
AnchorPoint: "Anchor-0" 500 1152 basechar 0
LayerCount: 2
UndoRedoHistory
Layer: 1
Undoes
EndUndoes
Redoes
EndRedoes
EndUndoRedoHistory
Fore
SplineSet
533 -22 m 0,0,1
 398 -22 398 -22 293.5 17.5 c 128,-1,2
 189 57 189 57 132 103 c 1,3,-1
 187 256 l 1,4,5
 246 212 246 212 336 178.5 c 128,-1,6
 426 145 426 145 516 145 c 0,7,8
 703 145 703 145 703 283 c 0,9,10
 703 340 703 340 658.5 368 c 128,-1,11
 614 396 614 396 480 443 c 0,12,13
 472 446 472 446 468 447 c 0,14,15
 427 462 427 462 409.5 468.5 c 128,-1,16
 392 475 392 475 356 489 c 128,-1,17
 320 503 320 503 303 512.5 c 128,-1,18
 286 522 286 522 258 538.5 c 128,-1,19
 230 555 230 555 216 569.5 c 128,-1,20
 202 584 202 584 184 605.5 c 128,-1,21
 166 627 166 627 157.5 649.5 c 128,-1,22
 149 672 149 672 143 701 c 128,-1,23
 137 730 137 730 137 763 c 0,24,25
 137 838 137 838 168.5 895 c 128,-1,26
 200 952 200 952 253.5 985 c 128,-1,27
 307 1018 307 1018 370.5 1034.5 c 128,-1,28
 434 1051 434 1051 505 1051 c 0,29,30
 712 1051 712 1051 856 958 c 1,31,-1
 800 812 l 1,32,33
 750 838 750 838 676 861.5 c 128,-1,34
 602 885 602 885 531 885 c 0,35,36
 442 885 442 885 391.5 854 c 128,-1,37
 341 823 341 823 341 767 c 1,38,39
 342 714 342 714 378 689 c 128,-1,40
 414 664 414 664 530 622 c 0,41,42
 561 611 561 611 578 605 c 0,43,44
 636 584 636 584 666 572 c 128,-1,45
 696 560 696 560 740 538.5 c 128,-1,46
 784 517 784 517 807 496 c 128,-1,47
 830 475 830 475 853.5 444.5 c 128,-1,48
 877 414 877 414 887 375 c 128,-1,49
 897 336 897 336 897 287 c 0,50,51
 897 204 897 204 865 142 c 128,-1,52
 833 80 833 80 779.5 45.5 c 128,-1,53
 726 11 726 11 664 -5.5 c 128,-1,54
 602 -22 602 -22 533 -22 c 0,0,1
EndSplineSet
EndChar

StartChar: t
Encoding: 116 116 87
Width: 814
GlyphClass: 2
Flags: W
AnchorPoint: "Anchor-1" 505 0 basechar 0
AnchorPoint: "Anchor-0" 374 1266 basechar 0
LayerCount: 2
UndoRedoHistory
Layer: 1
Undoes
EndUndoes
Redoes
EndRedoes
EndUndoRedoHistory
Fore
SplineSet
736 0 m 1,0,-1
 641 0 l 2,1,2
 529 0 529 0 456.5 15.5 c 128,-1,3
 384 31 384 31 333 72 c 128,-1,4
 282 113 282 113 260.5 183 c 128,-1,5
 239 253 239 253 239 362 c 2,6,-1
 239 889 l 1,7,-1
 44 889 l 1,8,-1
 44 1026 l 1,9,-1
 244 1026 l 1,10,-1
 244 1283 l 1,11,-1
 445 1342 l 1,12,-1
 445 1026 l 1,13,-1
 734 1026 l 1,14,-1
 734 889 l 1,15,-1
 445 889 l 1,16,-1
 445 350 l 2,17,18
 445 298 445 298 454 265 c 128,-1,19
 463 232 463 232 480.5 210 c 128,-1,20
 498 188 498 188 534.5 177.5 c 128,-1,21
 571 167 571 167 616 163 c 128,-1,22
 661 159 661 159 736 159 c 1,23,-1
 736 0 l 1,0,-1
EndSplineSet
EndChar

StartChar: u
Encoding: 117 117 88
Width: 1221
GlyphClass: 2
Flags: W
AnchorPoint: "Anchor-2" 947 0 basechar 0
AnchorPoint: "Anchor-1" 587 0 basechar 0
AnchorPoint: "Anchor-0" 600 1152 basechar 0
LayerCount: 2
UndoRedoHistory
Layer: 1
Undoes
EndUndoes
Redoes
EndRedoes
EndUndoRedoHistory
Fore
SplineSet
548 -22 m 0,0,1
 447 -22 447 -22 369 9.5 c 128,-1,2
 291 41 291 41 244 97 c 128,-1,3
 197 153 197 153 173.5 226 c 128,-1,4
 150 299 150 299 150 387 c 2,5,-1
 150 1026 l 1,6,-1
 355 1026 l 1,7,-1
 355 388 l 2,8,9
 355 266 355 266 414.5 205.5 c 128,-1,10
 474 145 474 145 586 145 c 0,11,12
 712 145 712 145 780 215.5 c 128,-1,13
 848 286 848 286 848 415 c 2,14,-1
 848 1026 l 1,15,-1
 1054 1026 l 1,16,-1
 1054 261 l 2,17,18
 1054 120 1054 120 1064 0 c 1,19,-1
 852 0 l 1,20,-1
 848 159 l 1,21,22
 826 114 826 114 791.5 76.5 c 128,-1,23
 757 39 757 39 692 8.5 c 128,-1,24
 627 -22 627 -22 548 -22 c 0,0,1
EndSplineSet
EndChar

StartChar: v
Encoding: 118 118 89
Width: 1076
GlyphClass: 2
Flags: W
LayerCount: 2
UndoRedoHistory
Layer: 1
Undoes
EndUndoes
Redoes
EndRedoes
EndUndoRedoHistory
Fore
SplineSet
443 0 m 1,0,-1
 12 1026 l 1,1,-1
 238 1026 l 1,2,-1
 473 419 l 1,3,-1
 548 218 l 1,4,-1
 618 419 l 1,5,-1
 847 1026 l 1,6,-1
 1067 1026 l 1,7,-1
 636 0 l 1,8,-1
 443 0 l 1,0,-1
EndSplineSet
EndChar

StartChar: w
Encoding: 119 119 90
Width: 1649
GlyphClass: 2
Flags: W
AnchorPoint: "Anchor-1" 840 0 basechar 0
AnchorPoint: "Anchor-0" 843 1024 basechar 0
LayerCount: 2
UndoRedoHistory
Layer: 1
Undoes
EndUndoes
Redoes
EndRedoes
EndUndoRedoHistory
Fore
SplineSet
559 0 m 1,0,-1
 375 0 l 1,1,-1
 24 1026 l 1,2,-1
 242 1026 l 1,3,-1
 442 378 l 1,4,-1
 484 245 l 1,5,-1
 526 371 l 1,6,-1
 747 1026 l 1,7,-1
 938 1026 l 1,8,-1
 1152 363 l 1,9,-1
 1191 243 l 1,10,-1
 1227 361 l 1,11,-1
 1429 1026 l 1,12,-1
 1625 1026 l 1,13,-1
 1268 0 l 1,14,-1
 1084 0 l 1,15,-1
 875 630 l 1,16,-1
 830 769 l 1,17,-1
 782 631 l 1,18,-1
 559 0 l 1,0,-1
EndSplineSet
EndChar

StartChar: x
Encoding: 120 120 91
Width: 1032
GlyphClass: 2
Flags: W
LayerCount: 2
UndoRedoHistory
Layer: 1
Undoes
EndUndoes
Redoes
EndRedoes
EndUndoRedoHistory
Fore
SplineSet
32 0 m 1,0,-1
 407 508 l 1,1,-1
 52 1026 l 1,2,-1
 276 1026 l 1,3,-1
 518 661 l 1,4,-1
 781 1026 l 1,5,-1
 995 1026 l 1,6,-1
 631 527 l 1,7,-1
 1001 0 l 1,8,-1
 778 0 l 1,9,-1
 519 375 l 1,10,-1
 248 0 l 1,11,-1
 32 0 l 1,0,-1
EndSplineSet
EndChar

StartChar: y
Encoding: 121 121 92
Width: 1090
GlyphClass: 2
Flags: W
AnchorPoint: "Anchor-0" 544 1086 basechar 0
LayerCount: 2
UndoRedoHistory
Layer: 1
Undoes
EndUndoes
Redoes
EndRedoes
EndUndoRedoHistory
Fore
SplineSet
230 -437 m 1,0,-1
 145 -297 l 1,1,2
 397 -209 397 -209 453 -35 c 1,3,-1
 468 15 l 1,4,-1
 44 1026 l 1,5,-1
 258 1026 l 1,6,-1
 569 233 l 1,7,-1
 852 1026 l 1,8,-1
 1060 1026 l 1,9,-1
 645 -55 l 2,10,11
 588 -203 588 -203 480 -301 c 128,-1,12
 372 -399 372 -399 230 -437 c 1,0,-1
EndSplineSet
EndChar

StartChar: z
Encoding: 122 122 93
Width: 978
GlyphClass: 2
Flags: W
AnchorPoint: "Anchor-1" 555 0 basechar 0
AnchorPoint: "Anchor-0" 506 1024 basechar 0
LayerCount: 2
UndoRedoHistory
Layer: 1
Undoes
EndUndoes
Redoes
EndRedoes
EndUndoRedoHistory
Fore
SplineSet
107 0 m 1,0,-1
 107 110 l 1,1,-1
 617 860 l 1,2,-1
 121 860 l 1,3,-1
 121 1026 l 1,4,-1
 883 1026 l 1,5,-1
 883 918 l 1,6,-1
 372 165 l 1,7,-1
 905 165 l 1,8,-1
 905 0 l 1,9,-1
 107 0 l 1,0,-1
EndSplineSet
EndChar

StartChar: braceleft
Encoding: 123 123 94
Width: 759
GlyphClass: 2
Flags: W
LayerCount: 2
UndoRedoHistory
Layer: 1
Undoes
EndUndoes
Redoes
EndRedoes
EndUndoRedoHistory
Fore
SplineSet
688 -204 m 1,0,1
 306 -200 306 -200 306 116 c 2,2,-1
 306 351 l 2,3,4
 306 457 306 457 264.5 512 c 128,-1,5
 223 567 223 567 132 572 c 1,6,-1
 132 720 l 1,7,8
 215 724 215 724 259.5 775.5 c 128,-1,9
 304 827 304 827 305 920 c 1,10,-1
 305 1154 l 2,11,12
 305 1494 305 1494 689 1494 c 1,13,-1
 689 1334 l 1,14,15
 598 1333 598 1333 556.5 1281 c 128,-1,16
 515 1229 515 1229 515 1123 c 2,17,-1
 515 868 l 2,18,19
 515 783 515 783 465.5 725.5 c 128,-1,20
 416 668 416 668 340 641 c 1,21,22
 419 606 419 606 467 539 c 128,-1,23
 515 472 515 472 515 382 c 2,24,-1
 515 135 l 2,25,26
 515 31 515 31 559.5 -6 c 128,-1,27
 604 -43 604 -43 688 -44 c 1,28,-1
 688 -204 l 1,0,1
EndSplineSet
EndChar

StartChar: bar
Encoding: 124 124 95
Width: 766
GlyphClass: 2
Flags: W
LayerCount: 2
UndoRedoHistory
Layer: 1
Undoes
EndUndoes
Redoes
EndRedoes
EndUndoRedoHistory
Fore
SplineSet
285 -473 m 1,0,-1
 285 1526 l 1,1,-1
 481 1526 l 1,2,-1
 481 -473 l 1,3,-1
 285 -473 l 1,0,-1
EndSplineSet
EndChar

StartChar: braceright
Encoding: 125 125 96
Width: 772
GlyphClass: 2
Flags: W
LayerCount: 2
UndoRedoHistory
Layer: 1
Undoes
EndUndoes
Redoes
EndRedoes
EndUndoRedoHistory
Fore
SplineSet
108 -204 m 1,0,-1
 108 -43 l 1,1,2
 199 -42 199 -42 241 10 c 128,-1,3
 283 62 283 62 283 168 c 2,4,-1
 283 423 l 2,5,6
 283 508 283 508 332 565.5 c 128,-1,7
 381 623 381 623 457 650 c 1,8,9
 379 685 379 685 331 752 c 128,-1,10
 283 819 283 819 283 909 c 2,11,-1
 283 1156 l 2,12,13
 283 1260 283 1260 238.5 1297 c 128,-1,14
 194 1334 194 1334 110 1335 c 1,15,-1
 110 1494 l 1,16,17
 492 1490 492 1490 492 1175 c 2,18,-1
 492 940 l 2,19,20
 492 834 492 834 533.5 779 c 128,-1,21
 575 724 575 724 666 719 c 1,22,-1
 666 571 l 1,23,24
 583 567 583 567 538 515.5 c 128,-1,25
 493 464 493 464 492 371 c 1,26,-1
 492 137 l 2,27,28
 492 -204 492 -204 108 -204 c 1,0,-1
EndSplineSet
EndChar

StartChar: asciitilde
Encoding: 126 126 97
Width: 1336
GlyphClass: 2
Flags: W
LayerCount: 2
UndoRedoHistory
Layer: 1
Undoes
EndUndoes
Redoes
EndRedoes
EndUndoRedoHistory
Fore
SplineSet
320 361 m 1,0,-1
 165 435 l 1,1,2
 189 552 189 552 269 628.5 c 128,-1,3
 349 705 349 705 473 705 c 0,4,5
 512 705 512 705 564 690.5 c 128,-1,6
 616 676 616 676 650.5 662.5 c 128,-1,7
 685 649 685 649 744 623 c 0,8,9
 748 622 748 622 792 603.5 c 128,-1,10
 836 585 836 585 869 574 c 128,-1,11
 902 563 902 563 919 563 c 0,12,13
 970 563 970 563 1008 614.5 c 128,-1,14
 1046 666 1046 666 1063 741 c 1,15,-1
 1232 689 l 1,16,17
 1202 556 1202 556 1121.5 475.5 c 128,-1,18
 1041 395 1041 395 920 395 c 0,19,20
 849 395 849 395 691 468 c 1,21,22
 521 538 521 538 478 538 c 0,23,24
 363 538 363 538 320 361 c 1,0,-1
EndSplineSet
EndChar

StartChar: cent
Encoding: 162 162 100
Width: 1044
GlyphClass: 2
Flags: W
LayerCount: 2
UndoRedoHistory
Layer: 1
Undoes
EndUndoes
Redoes
EndRedoes
EndUndoRedoHistory
Fore
SplineSet
681 1050 m 1,0,1
 865 1037 865 1037 975 925 c 1,2,-1
 902 790 l 1,3,4
 807 873 807 873 681 883 c 1,5,-1
 681 147 l 1,6,7
 807 157 807 157 915 238 c 1,8,-1
 979 89 l 1,9,10
 849 -7 849 -7 681 -20 c 1,11,-1
 681 -222 l 1,12,-1
 576 -222 l 1,13,-1
 576 -20 l 1,14,15
 448 -10 448 -10 348 48 c 0,16,17
 228 118 228 118 165 237.5 c 128,-1,18
 102 357 102 357 102 508 c 0,19,20
 102 748 102 748 248 900 c 0,21,22
 377 1034 377 1034 576 1050 c 1,23,-1
 576 1251 l 1,24,-1
 681 1251 l 1,25,-1
 681 1050 l 1,0,1
576 878 m 1,26,27
 474 860 474 860 406 787 c 0,28,29
 314 690 314 690 315 509 c 0,30,31
 316 342 316 342 404 244 c 0,32,33
 472 169 472 169 576 150 c 1,34,-1
 576 878 l 1,26,27
EndSplineSet
EndChar

StartChar: sterling
Encoding: 163 163 101
Width: 1220
GlyphClass: 2
Flags: W
LayerCount: 2
UndoRedoHistory
Layer: 1
Undoes
EndUndoes
Redoes
EndRedoes
EndUndoRedoHistory
Fore
SplineSet
157 0 m 1,0,-1
 157 161 l 1,1,2
 341 307 341 307 341 601 c 2,3,-1
 341 692 l 1,4,-1
 152 692 l 1,5,-1
 152 827 l 1,6,-1
 339 827 l 1,7,-1
 339 924 l 2,8,9
 339 1023 339 1023 350.5 1101.5 c 128,-1,10
 362 1180 362 1180 393.5 1253 c 128,-1,11
 425 1326 425 1326 475.5 1374.5 c 128,-1,12
 526 1423 526 1423 607.5 1452 c 128,-1,13
 689 1481 689 1481 797 1481 c 0,14,15
 968 1481 968 1481 1083 1407 c 1,16,-1
 1029 1250 l 1,17,18
 992 1269 992 1269 967 1280 c 128,-1,19
 942 1291 942 1291 898.5 1301 c 128,-1,20
 855 1311 855 1311 808 1310 c 0,21,22
 671 1308 671 1308 609.5 1225.5 c 128,-1,23
 548 1143 548 1143 548 971 c 2,24,-1
 548 827 l 1,25,-1
 903 827 l 1,26,-1
 903 692 l 1,27,-1
 549 692 l 1,28,-1
 549 598 l 2,29,30
 549 456 549 456 507.5 345.5 c 128,-1,31
 466 235 466 235 412 172 c 1,32,-1
 1056 172 l 1,33,-1
 1056 0 l 1,34,-1
 157 0 l 1,0,-1
EndSplineSet
EndChar

StartChar: currency
Encoding: 164 164 102
Width: 1218
GlyphClass: 2
Flags: W
LayerCount: 2
UndoRedoHistory
Layer: 1
Undoes
EndUndoes
Redoes
EndRedoes
EndUndoRedoHistory
Fore
SplineSet
609 711 m 128,-1,1
 739 711 739 711 825 801 c 128,-1,2
 911 891 911 891 911 1023 c 0,3,4
 911 1109 911 1109 872 1179.5 c 128,-1,5
 833 1250 833 1250 764 1291 c 128,-1,6
 695 1332 695 1332 609 1332 c 0,7,8
 479 1332 479 1332 393 1243 c 128,-1,9
 307 1154 307 1154 307 1023 c 0,10,11
 307 891 307 891 393 801 c 128,-1,0
 479 711 479 711 609 711 c 128,-1,1
1048 544 m 1,12,-1
 862 730 l 1,13,14
 753 640 753 640 610 640 c 128,-1,15
 467 640 467 640 358 731 c 1,16,-1
 171 544 l 1,17,-1
 120 595 l 1,18,-1
 307 782 l 1,19,20
 219 887 219 887 219 1025 c 0,21,22
 219 1169 219 1169 314 1277 c 1,23,-1
 119 1472 l 1,24,-1
 170 1523 l 1,25,-1
 367 1327 l 1,26,27
 472 1410 472 1410 610 1410 c 0,28,29
 745 1410 745 1410 853 1328 c 1,30,-1
 1048 1523 l 1,31,-1
 1099 1472 l 1,32,-1
 906 1279 l 1,33,34
 1002 1170 1002 1170 1002 1025 c 0,35,36
 1002 886 1002 886 913 780 c 1,37,-1
 1099 595 l 1,38,-1
 1048 544 l 1,12,-1
EndSplineSet
EndChar

StartChar: yen
Encoding: 165 165 103
Width: 1240
GlyphClass: 2
Flags: W
LayerCount: 2
UndoRedoHistory
Layer: 1
Undoes
EndUndoes
Redoes
EndRedoes
EndUndoRedoHistory
Fore
SplineSet
725 393 m 1,0,-1
 1068 393 l 1,1,-1
 1068 264 l 1,2,-1
 725 264 l 1,3,-1
 725 0 l 1,4,-1
 513 0 l 1,5,-1
 513 264 l 1,6,-1
 166 264 l 1,7,-1
 166 393 l 1,8,-1
 513 393 l 1,9,-1
 513 564 l 1,10,-1
 166 564 l 1,11,-1
 166 698 l 1,12,-1
 440 698 l 1,13,-1
 6 1456 l 1,14,-1
 244 1456 l 1,15,-1
 623 758 l 1,16,-1
 1004 1456 l 1,17,-1
 1244 1456 l 1,18,-1
 798 698 l 1,19,-1
 1067 698 l 1,20,-1
 1067 564 l 1,21,-1
 725 564 l 1,22,-1
 725 393 l 1,0,-1
EndSplineSet
EndChar

StartChar: brokenbar
Encoding: 166 166 104
Width: 500
GlyphClass: 2
Flags: W
LayerCount: 2
UndoRedoHistory
Layer: 1
Undoes
EndUndoes
Redoes
EndRedoes
EndUndoRedoHistory
Fore
SplineSet
194 621 m 1,0,-1
 194 1526 l 1,1,-1
 370 1526 l 1,2,-1
 370 621 l 1,3,-1
 194 621 l 1,0,-1
195 -473 m 1,4,-1
 195 404 l 1,5,-1
 372 404 l 1,6,-1
 372 -473 l 1,7,-1
 195 -473 l 1,4,-1
EndSplineSet
EndChar

StartChar: section
Encoding: 167 167 105
Width: 1080
GlyphClass: 2
Flags: W
LayerCount: 2
UndoRedoHistory
Layer: 1
Undoes
EndUndoes
Redoes
EndRedoes
EndUndoRedoHistory
Fore
SplineSet
509 -71 m 0,0,1
 345 -71 345 -71 201 -14 c 1,2,-1
 201 156 l 1,3,4
 364 87 364 87 495 87 c 0,5,6
 594 87 594 87 652 126 c 128,-1,7
 710 165 710 165 710 234 c 2,8,-1
 710 235 l 2,9,10
 710 281 710 281 658 315 c 128,-1,11
 606 349 606 349 448 422 c 0,12,13
 439 427 439 427 433.5 429.5 c 128,-1,14
 428 432 428 432 419 436 c 128,-1,15
 410 440 410 440 403 443 c 0,16,17
 185 542 185 542 185 713 c 0,18,19
 185 786 185 786 236.5 852.5 c 128,-1,20
 288 919 288 919 364 957 c 1,21,22
 289 1009 289 1009 249 1063.5 c 128,-1,23
 209 1118 209 1118 209 1194 c 0,24,25
 209 1334 209 1334 318 1408 c 128,-1,26
 427 1482 427 1482 594 1482 c 0,27,28
 735 1482 735 1482 858 1442 c 1,29,-1
 858 1291 l 1,30,31
 740 1333 740 1333 626 1333 c 0,32,33
 532 1333 532 1333 473 1301 c 128,-1,34
 414 1269 414 1269 414 1203 c 0,35,36
 414 1153 414 1153 470 1108 c 128,-1,37
 526 1063 526 1063 647 1009 c 0,38,39
 712 979 712 979 755 954 c 128,-1,40
 798 929 798 929 839.5 894 c 128,-1,41
 881 859 881 859 901.5 816 c 128,-1,42
 922 773 922 773 922 721 c 0,43,44
 922 650 922 650 876 584.5 c 128,-1,45
 830 519 830 519 757 468 c 1,46,47
 915 383 915 383 915 241 c 0,48,49
 915 92 915 92 799.5 10.5 c 128,-1,50
 684 -71 684 -71 509 -71 c 0,0,1
621 543 m 1,51,52
 657 571 657 571 683.5 612 c 128,-1,53
 710 653 710 653 710 696 c 0,54,55
 710 717 710 717 705 734.5 c 128,-1,56
 700 752 700 752 686.5 767 c 128,-1,57
 673 782 673 782 662.5 793 c 128,-1,58
 652 804 652 804 628.5 817 c 128,-1,59
 605 830 605 830 591.5 837 c 128,-1,60
 578 844 578 844 548 858 c 128,-1,61
 518 872 518 872 505 878 c 1,62,63
 461 853 461 853 422.5 813 c 128,-1,64
 384 773 384 773 384 729 c 0,65,66
 384 705 384 705 396.5 683 c 128,-1,67
 409 661 409 661 425.5 645.5 c 128,-1,68
 442 630 442 630 478.5 610 c 128,-1,69
 515 590 515 590 541 578 c 128,-1,70
 567 566 567 566 621 543 c 1,51,52
EndSplineSet
EndChar

StartChar: dieresis
Encoding: 168 168 106
Width: 743
GlyphClass: 4
Flags: W
AnchorPoint: "Anchor-0" 359 1072 mark 0
LayerCount: 2
UndoRedoHistory
Layer: 1
Undoes
EndUndoes
Redoes
EndRedoes
EndUndoRedoHistory
Fore
SplineSet
477 1175 m 1,0,-1
 477 1384 l 1,1,-1
 685 1384 l 1,2,-1
 685 1175 l 1,3,-1
 477 1175 l 1,0,-1
57 1175 m 1,4,-1
 57 1384 l 1,5,-1
 266 1384 l 1,6,-1
 266 1175 l 1,7,-1
 57 1175 l 1,4,-1
EndSplineSet
EndChar

StartChar: copyright
Encoding: 169 169 107
Width: 1723
GlyphClass: 2
Flags: W
LayerCount: 2
UndoRedoHistory
Layer: 1
Undoes
EndUndoes
Redoes
EndRedoes
EndUndoRedoHistory
Fore
SplineSet
862 82 m 0,0,1
 991 82 991 82 1108 133.5 c 128,-1,2
 1225 185 1225 185 1309 272 c 128,-1,3
 1393 359 1393 359 1443 478 c 128,-1,4
 1493 597 1493 597 1493 726 c 0,5,6
 1493 900 1493 900 1409 1050 c 128,-1,7
 1325 1200 1325 1200 1179 1289 c 128,-1,8
 1033 1378 1033 1378 862 1378 c 0,9,10
 733 1378 733 1378 615 1325.5 c 128,-1,11
 497 1273 497 1273 413 1184.5 c 128,-1,12
 329 1096 329 1096 279 976 c 128,-1,13
 229 856 229 856 229 726 c 0,14,15
 229 553 229 553 313 405 c 128,-1,16
 397 257 397 257 543 169.5 c 128,-1,17
 689 82 689 82 862 82 c 0,0,1
861 1482 m 128,-1,19
 1014 1482 1014 1482 1154 1422 c 128,-1,20
 1294 1362 1294 1362 1395.5 1261.5 c 128,-1,21
 1497 1161 1497 1161 1557 1021.5 c 128,-1,22
 1617 882 1617 882 1617 729 c 128,-1,23
 1617 576 1617 576 1557 437 c 128,-1,24
 1497 298 1497 298 1395.5 197.5 c 128,-1,25
 1294 97 1294 97 1154 37.5 c 128,-1,26
 1014 -22 1014 -22 861 -22 c 128,-1,27
 708 -22 708 -22 568.5 37.5 c 128,-1,28
 429 97 429 97 328 197.5 c 128,-1,29
 227 298 227 298 167 437 c 128,-1,30
 107 576 107 576 107 729 c 128,-1,31
 107 882 107 882 167 1021.5 c 128,-1,32
 227 1161 227 1161 328 1261.5 c 128,-1,33
 429 1362 429 1362 568.5 1422 c 128,-1,18
 708 1482 708 1482 861 1482 c 128,-1,19
447 719 m 0,34,35
 447 920 447 920 567 1045 c 128,-1,36
 687 1170 687 1170 884 1170 c 0,37,38
 1066 1170 1066 1170 1169 1065 c 1,39,-1
 1109 953 l 1,40,41
 1017 1032 1017 1032 897 1032 c 0,42,43
 776 1032 776 1032 699.5 951 c 128,-1,44
 623 870 623 870 623 720 c 0,45,46
 623 581 623 581 700 504.5 c 128,-1,47
 777 428 777 428 896 428 c 0,48,49
 1017 428 1017 428 1120 509 c 1,50,-1
 1174 389 l 1,51,52
 1044 291 1044 291 883 291 c 0,53,54
 698 291 698 291 572.5 412.5 c 128,-1,55
 447 534 447 534 447 719 c 0,34,35
EndSplineSet
EndChar

StartChar: ordfeminine
Encoding: 170 170 108
Width: 816
GlyphClass: 2
Flags: W
LayerCount: 2
UndoRedoHistory
Layer: 1
Undoes
EndUndoes
Redoes
EndRedoes
EndUndoRedoHistory
Fore
SplineSet
353 864 m 0,0,1
 434 864 434 864 490.5 916.5 c 128,-1,2
 547 969 547 969 547 1057 c 2,3,-1
 547 1077 l 1,4,5
 507 1077 507 1077 485 1077 c 128,-1,6
 463 1077 463 1077 432 1076 c 128,-1,7
 401 1075 401 1075 385 1073.5 c 128,-1,8
 369 1072 369 1072 346.5 1069 c 128,-1,9
 324 1066 324 1066 313 1062 c 128,-1,10
 302 1058 302 1058 288 1052 c 128,-1,11
 274 1046 274 1046 268 1037.5 c 128,-1,12
 262 1029 262 1029 255 1018.5 c 128,-1,13
 248 1008 248 1008 246 994.5 c 128,-1,14
 244 981 244 981 244 964 c 0,15,16
 244 917 244 917 274.5 890.5 c 128,-1,17
 305 864 305 864 353 864 c 0,0,1
338 750 m 0,18,19
 234 750 234 750 165 806.5 c 128,-1,20
 96 863 96 863 96 961 c 0,21,22
 96 1062 96 1062 165.5 1117 c 128,-1,23
 235 1172 235 1172 372 1172 c 2,24,-1
 548 1172 l 1,25,-1
 548 1214 l 2,26,27
 548 1290 548 1290 514 1323.5 c 128,-1,28
 480 1357 480 1357 410 1357 c 0,29,30
 359 1357 359 1357 301.5 1343.5 c 128,-1,31
 244 1330 244 1330 212 1317 c 2,32,-1
 179 1304 l 1,33,-1
 131 1414 l 1,34,35
 145 1422 145 1422 169.5 1433 c 128,-1,36
 194 1444 194 1444 271 1463 c 128,-1,37
 348 1482 348 1482 424 1482 c 0,38,39
 552 1482 552 1482 632 1418 c 128,-1,40
 712 1354 712 1354 712 1215 c 2,41,-1
 712 916 l 1,42,43
 713 868 713 868 720 776 c 1,44,-1
 566 776 l 1,45,-1
 555 872 l 1,46,47
 532 821 532 821 475 785.5 c 128,-1,48
 418 750 418 750 338 750 c 0,18,19
EndSplineSet
EndChar

StartChar: guillemotleft
Encoding: 171 171 109
Width: 1137
GlyphClass: 2
Flags: W
LayerCount: 2
UndoRedoHistory
Layer: 1
Undoes
EndUndoes
Redoes
EndRedoes
EndUndoRedoHistory
Fore
SplineSet
843 166 m 1,0,-1
 570 542 l 1,1,-1
 849 919 l 1,2,-1
 1024 919 l 1,3,-1
 779 542 l 1,4,-1
 1016 166 l 1,5,-1
 843 166 l 1,0,-1
410 166 m 1,6,-1
 137 542 l 1,7,-1
 415 919 l 1,8,-1
 590 919 l 1,9,-1
 346 542 l 1,10,-1
 582 166 l 1,11,-1
 410 166 l 1,6,-1
EndSplineSet
EndChar

StartChar: logicalnot
Encoding: 172 172 110
Width: 1461
GlyphClass: 2
Flags: W
LayerCount: 2
UndoRedoHistory
Layer: 1
Undoes
EndUndoes
Redoes
EndRedoes
EndUndoRedoHistory
Fore
SplineSet
1051 230 m 1,0,-1
 1051 634 l 1,1,-1
 185 634 l 1,2,-1
 185 806 l 1,3,-1
 1242 806 l 1,4,-1
 1242 230 l 1,5,-1
 1051 230 l 1,0,-1
EndSplineSet
EndChar

StartChar: uni00AD
Encoding: 173 173 111
Width: 728
GlyphClass: 2
Flags: W
LayerCount: 2
UndoRedoHistory
Layer: 1
Undoes
EndUndoes
Redoes
EndRedoes
EndUndoRedoHistory
Fore
SplineSet
59 1191 m 1,0,-1
 58 1346 l 1,1,-1
 656 1346 l 1,2,-1
 656 1191 l 1,3,-1
 59 1191 l 1,0,-1
EndSplineSet
EndChar

StartChar: registered
Encoding: 174 174 112
Width: 1723
GlyphClass: 2
Flags: W
LayerCount: 2
UndoRedoHistory
Layer: 1
Undoes
EndUndoes
Redoes
EndRedoes
EndUndoRedoHistory
Fore
SplineSet
717 282 m 1,0,-1
 536 282 l 1,1,-1
 536 1182 l 1,2,-1
 830 1182 l 2,3,4
 1040 1182 1040 1182 1136.5 1116 c 128,-1,5
 1233 1050 1233 1050 1233 921 c 0,6,7
 1233 720 1233 720 1035 676 c 1,8,-1
 1238 282 l 1,9,-1
 1037 282 l 1,10,-1
 864 650 l 1,11,-1
 717 650 l 1,12,-1
 717 282 l 1,0,-1
715 781 m 1,13,-1
 824 781 l 2,14,15
 942 781 942 781 995 807 c 128,-1,16
 1048 833 1048 833 1048 908 c 0,17,18
 1048 993 1048 993 1007 1015.5 c 128,-1,19
 966 1038 966 1038 829 1038 c 2,20,-1
 715 1038 l 1,21,-1
 715 781 l 1,13,-1
862 82 m 0,22,23
 991 82 991 82 1108 133.5 c 128,-1,24
 1225 185 1225 185 1309 272 c 128,-1,25
 1393 359 1393 359 1443 478 c 128,-1,26
 1493 597 1493 597 1493 726 c 0,27,28
 1493 900 1493 900 1409 1050 c 128,-1,29
 1325 1200 1325 1200 1179 1289 c 128,-1,30
 1033 1378 1033 1378 862 1378 c 0,31,32
 733 1378 733 1378 615 1325.5 c 128,-1,33
 497 1273 497 1273 413 1184.5 c 128,-1,34
 329 1096 329 1096 279 976 c 128,-1,35
 229 856 229 856 229 726 c 0,36,37
 229 553 229 553 313 405 c 128,-1,38
 397 257 397 257 543 169.5 c 128,-1,39
 689 82 689 82 862 82 c 0,22,23
861 1482 m 128,-1,41
 1014 1482 1014 1482 1154 1422 c 128,-1,42
 1294 1362 1294 1362 1395.5 1261.5 c 128,-1,43
 1497 1161 1497 1161 1557 1021.5 c 128,-1,44
 1617 882 1617 882 1617 729 c 128,-1,45
 1617 576 1617 576 1557 437 c 128,-1,46
 1497 298 1497 298 1395.5 197.5 c 128,-1,47
 1294 97 1294 97 1154 37.5 c 128,-1,48
 1014 -22 1014 -22 861 -22 c 128,-1,49
 708 -22 708 -22 568.5 37.5 c 128,-1,50
 429 97 429 97 328 197.5 c 128,-1,51
 227 298 227 298 167 437 c 128,-1,52
 107 576 107 576 107 729 c 128,-1,53
 107 882 107 882 167 1021.5 c 128,-1,54
 227 1161 227 1161 328 1261.5 c 128,-1,55
 429 1362 429 1362 568.5 1422 c 128,-1,40
 708 1482 708 1482 861 1482 c 128,-1,41
EndSplineSet
EndChar

StartChar: macron
Encoding: 175 175 113
Width: 732
GlyphClass: 4
Flags: W
AnchorPoint: "Anchor-0" 373 1136 mark 0
LayerCount: 2
UndoRedoHistory
Layer: 1
Undoes
EndUndoes
Redoes
EndRedoes
EndUndoRedoHistory
Fore
SplineSet
67 1234 m 1,0,-1
 67 1390 l 1,1,-1
 665 1390 l 1,2,-1
 665 1234 l 1,3,-1
 67 1234 l 1,0,-1
EndSplineSet
EndChar

StartChar: degree
Encoding: 176 176 114
Width: 864
GlyphClass: 2
Flags: W
LayerCount: 2
UndoRedoHistory
Layer: 1
Undoes
EndUndoes
Redoes
EndRedoes
EndUndoRedoHistory
Fore
SplineSet
432 974 m 0,0,1
 511 974 511 974 560 1026 c 128,-1,2
 609 1078 609 1078 609 1155 c 0,3,4
 609 1231 609 1231 559.5 1282.5 c 128,-1,5
 510 1334 510 1334 432 1334 c 0,6,7
 355 1334 355 1334 306 1282.5 c 128,-1,8
 257 1231 257 1231 257 1155 c 0,9,10
 257 1078 257 1078 305.5 1026 c 128,-1,11
 354 974 354 974 432 974 c 0,0,1
432 1456 m 0,12,13
 561 1456 561 1456 650.5 1368 c 128,-1,14
 740 1280 740 1280 740 1154 c 0,15,16
 740 1029 740 1029 650.5 941 c 128,-1,17
 561 853 561 853 432 853 c 0,18,19
 304 853 304 853 214.5 941 c 128,-1,20
 125 1029 125 1029 125 1154 c 0,21,22
 125 1280 125 1280 214.5 1368 c 128,-1,23
 304 1456 304 1456 432 1456 c 0,12,13
EndSplineSet
EndChar

StartChar: plusminus
Encoding: 177 177 115
Width: 1244
GlyphClass: 2
Flags: W
LayerCount: 2
UndoRedoHistory
Layer: 1
Undoes
EndUndoes
Redoes
EndRedoes
EndUndoRedoHistory
Fore
SplineSet
186 0 m 1,0,-1
 186 142 l 1,1,-1
 1065 142 l 1,2,-1
 1065 0 l 1,3,-1
 186 0 l 1,0,-1
526 266 m 1,4,-1
 526 593 l 1,5,-1
 193 593 l 1,6,-1
 193 763 l 1,7,-1
 523 763 l 1,8,-1
 523 1092 l 1,9,-1
 715 1092 l 1,10,-1
 715 763 l 1,11,-1
 1049 763 l 1,12,-1
 1049 593 l 1,13,-1
 722 593 l 1,14,-1
 722 266 l 1,15,-1
 526 266 l 1,4,-1
EndSplineSet
EndChar

StartChar: uni00B2
Encoding: 178 178 116
Width: 1157
GlyphClass: 2
Flags: W
LayerCount: 2
UndoRedoHistory
Layer: 1
Undoes
EndUndoes
Redoes
EndRedoes
EndUndoRedoHistory
Fore
SplineSet
338 616 m 1,0,-1
 338 724 l 1,1,2
 561 918 561 918 655.5 1027.5 c 128,-1,3
 750 1137 750 1137 750 1218 c 0,4,5
 750 1267 750 1267 715 1294.5 c 128,-1,6
 680 1322 680 1322 620 1322 c 0,7,8
 562 1322 562 1322 509 1292 c 128,-1,9
 456 1262 456 1262 417 1210 c 1,10,-1
 339 1312 l 1,11,12
 386 1381 386 1381 462.5 1418.5 c 128,-1,13
 539 1456 539 1456 629 1456 c 0,14,15
 748 1456 748 1456 825 1393.5 c 128,-1,16
 902 1331 902 1331 902 1220 c 0,17,18
 902 1171 902 1171 880.5 1119 c 128,-1,19
 859 1067 859 1067 828 1023 c 128,-1,20
 797 979 797 979 743 924.5 c 128,-1,21
 689 870 689 870 644.5 831 c 128,-1,22
 600 792 600 792 531 735 c 1,23,-1
 897 735 l 1,24,-1
 897 616 l 1,25,-1
 338 616 l 1,0,-1
EndSplineSet
EndChar

StartChar: uni00B3
Encoding: 179 179 117
Width: 1111
GlyphClass: 2
Flags: W
LayerCount: 2
UndoRedoHistory
Layer: 1
Undoes
EndUndoes
Redoes
EndRedoes
EndUndoRedoHistory
Fore
SplineSet
575 600 m 0,0,1
 414 600 414 600 307 696 c 1,2,-1
 367 802 l 1,3,4
 463 725 463 725 567 725 c 0,5,6
 637 725 637 725 680 760.5 c 128,-1,7
 723 796 723 796 723 857 c 0,8,9
 723 921 723 921 671 952.5 c 128,-1,10
 619 984 619 984 525 984 c 2,11,-1
 458 984 l 1,12,-1
 458 1108 l 1,13,-1
 519 1108 l 2,14,15
 601 1108 601 1108 650 1136 c 128,-1,16
 699 1164 699 1164 699 1222 c 0,17,18
 699 1330 699 1330 570 1330 c 0,19,20
 465 1330 465 1330 362 1256 c 1,21,-1
 304 1360 l 1,22,23
 359 1404 359 1404 433.5 1430 c 128,-1,24
 508 1456 508 1456 581 1456 c 0,25,26
 694 1456 694 1456 770 1397 c 128,-1,27
 846 1338 846 1338 846 1232 c 0,28,29
 846 1090 846 1090 695 1052 c 1,30,31
 783 1032 783 1032 826.5 978.5 c 128,-1,32
 870 925 870 925 870 854 c 0,33,34
 870 735 870 735 785.5 667.5 c 128,-1,35
 701 600 701 600 575 600 c 0,0,1
EndSplineSet
EndChar

StartChar: acute
Encoding: 180 180 118
Width: 607
GlyphClass: 2
Flags: W
LayerCount: 2
UndoRedoHistory
Layer: 1
Undoes
EndUndoes
Redoes
EndRedoes
EndUndoRedoHistory
Fore
SplineSet
61 1172 m 1,0,-1
 307 1551 l 1,1,-1
 571 1551 l 1,2,-1
 240 1172 l 1,3,-1
 61 1172 l 1,0,-1
EndSplineSet
EndChar

StartChar: paragraph
Encoding: 182 182 119
Width: 1215
GlyphClass: 2
Flags: W
LayerCount: 2
UndoRedoHistory
Layer: 1
Undoes
EndUndoes
Redoes
EndRedoes
EndUndoRedoHistory
Fore
SplineSet
472 -179 m 1,0,-1
 472 806 l 1,1,2
 318 813 318 813 220.5 898.5 c 128,-1,3
 123 984 123 984 123 1132 c 0,4,5
 123 1207 123 1207 146 1264 c 128,-1,6
 169 1321 169 1321 209 1357 c 128,-1,7
 249 1393 249 1393 309.5 1415.5 c 128,-1,8
 370 1438 370 1438 439 1447 c 128,-1,9
 508 1456 508 1456 595 1456 c 2,10,-1
 1060 1456 l 1,11,-1
 1060 1298 l 1,12,-1
 953 1298 l 1,13,-1
 953 -179 l 1,14,-1
 802 -179 l 1,15,-1
 802 1298 l 1,16,-1
 624 1298 l 1,17,-1
 624 -179 l 1,18,-1
 472 -179 l 1,0,-1
EndSplineSet
EndChar

StartChar: periodcentered
Encoding: 183 183 120
Width: 517
GlyphClass: 2
Flags: W
LayerCount: 2
UndoRedoHistory
Layer: 1
Undoes
EndUndoes
Redoes
EndRedoes
EndUndoRedoHistory
Fore
SplineSet
132 533 m 1,0,-1
 132 773 l 1,1,-1
 385 773 l 1,2,-1
 385 533 l 1,3,-1
 132 533 l 1,0,-1
EndSplineSet
EndChar

StartChar: cedilla
Encoding: 184 184 121
Width: 529
GlyphClass: 4
Flags: W
AnchorPoint: "Anchor-1" 228 -1 mark 0
LayerCount: 2
UndoRedoHistory
Layer: 1
Undoes
EndUndoes
Redoes
EndRedoes
EndUndoRedoHistory
Fore
SplineSet
35 -421 m 1,0,-1
 48 -315 l 1,1,2
 71 -324 71 -324 119 -332.5 c 128,-1,3
 167 -341 167 -341 207 -341 c 0,4,5
 255 -341 255 -341 285.5 -320 c 128,-1,6
 316 -299 316 -299 316 -264 c 0,7,8
 316 -249 316 -249 309 -234 c 128,-1,9
 302 -219 302 -219 286 -204 c 128,-1,10
 270 -189 270 -189 237.5 -180 c 128,-1,11
 205 -171 205 -171 160 -171 c 2,12,-1
 134 -171 l 1,13,-1
 166 25 l 1,14,-1
 272 25 l 1,15,-1
 253 -99 l 1,16,17
 365 -111 365 -111 426.5 -157 c 128,-1,18
 488 -203 488 -203 488 -269 c 0,19,20
 488 -350 488 -350 412.5 -398.5 c 128,-1,21
 337 -447 337 -447 216 -447 c 0,22,23
 129 -447 129 -447 44 -424 c 0,24,25
 39 -422 39 -422 35 -421 c 1,0,-1
EndSplineSet
EndChar

StartChar: uni00B9
Encoding: 185 185 122
Width: 1095
GlyphClass: 2
Flags: W
LayerCount: 2
UndoRedoHistory
Layer: 1
Undoes
EndUndoes
Redoes
EndRedoes
EndUndoRedoHistory
Fore
SplineSet
350 610 m 1,0,-1
 350 742 l 1,1,-1
 499 742 l 1,2,-1
 499 1271 l 1,3,4
 487 1264 487 1264 452 1251.5 c 128,-1,5
 417 1239 417 1239 376.5 1225 c 128,-1,6
 336 1211 336 1211 325 1207 c 1,7,-1
 325 1348 l 1,8,9
 366 1361 366 1361 434 1388 c 128,-1,10
 502 1415 502 1415 523 1427 c 1,11,-1
 643 1437 l 1,12,-1
 643 739 l 1,13,-1
 784 739 l 1,14,-1
 784 610 l 1,15,-1
 350 610 l 1,0,-1
EndSplineSet
EndChar

StartChar: ordmasculine
Encoding: 186 186 123
Width: 894
GlyphClass: 2
Flags: W
LayerCount: 2
UndoRedoHistory
Layer: 1
Undoes
EndUndoes
Redoes
EndRedoes
EndUndoRedoHistory
Fore
SplineSet
452 738 m 0,0,1
 273 738 273 738 175 839.5 c 128,-1,2
 77 941 77 941 77 1100 c 0,3,4
 77 1255 77 1255 177 1356 c 128,-1,5
 277 1457 277 1457 450 1457 c 0,6,7
 624 1457 624 1457 722 1355 c 128,-1,8
 820 1253 820 1253 820 1096 c 0,9,10
 820 943 820 943 722 840.5 c 128,-1,11
 624 738 624 738 452 738 c 0,0,1
451 876 m 0,12,13
 544 876 544 876 599.5 935.5 c 128,-1,14
 655 995 655 995 655 1094 c 0,15,16
 655 1198 655 1198 599.5 1258 c 128,-1,17
 544 1318 544 1318 450 1318 c 0,18,19
 357 1318 357 1318 301 1258 c 128,-1,20
 245 1198 245 1198 245 1098 c 0,21,22
 245 993 245 993 299 934.5 c 128,-1,23
 353 876 353 876 451 876 c 0,12,13
EndSplineSet
EndChar

StartChar: guillemotright
Encoding: 187 187 124
Width: 1137
GlyphClass: 2
Flags: W
LayerCount: 2
UndoRedoHistory
Layer: 1
Undoes
EndUndoes
Redoes
EndRedoes
EndUndoRedoHistory
Fore
SplineSet
321 918 m 1,0,-1
 594 542 l 1,1,-1
 315 165 l 1,2,-1
 140 165 l 1,3,-1
 384 542 l 1,4,-1
 148 918 l 1,5,-1
 321 918 l 1,0,-1
754 918 m 1,6,-1
 1027 542 l 1,7,-1
 748 165 l 1,8,-1
 574 165 l 1,9,-1
 818 542 l 1,10,-1
 582 918 l 1,11,-1
 754 918 l 1,6,-1
EndSplineSet
EndChar

StartChar: onequarter
Encoding: 188 188 125
Width: 2048
GlyphClass: 2
Flags: W
LayerCount: 2
UndoRedoHistory
Layer: 1
Undoes
EndUndoes
Redoes
EndRedoes
EndUndoRedoHistory
Fore
SplineSet
232 626 m 1,0,-1
 232 752 l 1,1,-1
 401 752 l 1,2,-1
 401 1303 l 1,3,-1
 213 1242 l 1,4,-1
 213 1371 l 1,5,6
 238 1378 238 1378 327 1413 c 128,-1,7
 416 1448 416 1448 430 1456 c 1,8,-1
 560 1456 l 1,9,-1
 560 750 l 1,10,-1
 713 750 l 1,11,-1
 713 626 l 1,12,-1
 232 626 l 1,0,-1
535 0 m 1,13,-1
 1430 1456 l 1,14,-1
 1611 1456 l 1,15,-1
 717 0 l 1,16,-1
 535 0 l 1,13,-1
1354 311 m 1,17,-1
 1582 311 l 1,18,-1
 1582 629 l 1,19,-1
 1354 311 l 1,17,-1
1584 0 m 1,20,-1
 1584 191 l 1,21,-1
 1211 191 l 1,22,-1
 1211 293 l 1,23,-1
 1578 804 l 1,24,-1
 1736 804 l 1,25,-1
 1736 311 l 1,26,-1
 1853 311 l 1,27,-1
 1853 191 l 1,28,-1
 1735 191 l 1,29,-1
 1735 0 l 1,30,-1
 1584 0 l 1,20,-1
EndSplineSet
EndChar

StartChar: onehalf
Encoding: 189 189 126
Width: 2266
GlyphClass: 2
Flags: W
LayerCount: 2
UndoRedoHistory
Layer: 1
Undoes
EndUndoes
Redoes
EndRedoes
EndUndoRedoHistory
Fore
SplineSet
509 0 m 1,0,-1
 1404 1456 l 1,1,-1
 1585 1456 l 1,2,-1
 691 0 l 1,3,-1
 509 0 l 1,0,-1
1374 0 m 1,4,-1
 1374 140 l 1,5,6
 1606 335 1606 335 1694 432.5 c 128,-1,7
 1782 530 1782 530 1782 599 c 0,8,9
 1782 647 1782 647 1748.5 674.5 c 128,-1,10
 1715 702 1715 702 1659 702 c 0,11,12
 1604 702 1604 702 1547.5 673.5 c 128,-1,13
 1491 645 1491 645 1444 598 c 1,14,-1
 1371 716 l 1,15,16
 1426 777 1426 777 1505 810.5 c 128,-1,17
 1584 844 1584 844 1669 844 c 0,18,19
 1791 844 1791 844 1871 780 c 128,-1,20
 1951 716 1951 716 1951 601 c 0,21,22
 1951 553 1951 553 1929.5 502 c 128,-1,23
 1908 451 1908 451 1878 409.5 c 128,-1,24
 1848 368 1848 368 1794 315.5 c 128,-1,25
 1740 263 1740 263 1698.5 228 c 128,-1,26
 1657 193 1657 193 1589 138 c 1,27,-1
 1944 138 l 1,28,-1
 1944 0 l 1,29,-1
 1374 0 l 1,4,-1
232 626 m 1,30,-1
 232 752 l 1,31,-1
 401 752 l 1,32,-1
 401 1303 l 1,33,-1
 213 1242 l 1,34,-1
 213 1371 l 1,35,36
 238 1378 238 1378 327 1413 c 128,-1,37
 416 1448 416 1448 430 1456 c 1,38,-1
 560 1456 l 1,39,-1
 560 750 l 1,40,-1
 713 750 l 1,41,-1
 713 626 l 1,42,-1
 232 626 l 1,30,-1
EndSplineSet
EndChar

StartChar: threequarters
Encoding: 190 190 127
Width: 2256
GlyphClass: 2
Flags: W
LayerCount: 2
UndoRedoHistory
Layer: 1
Undoes
EndUndoes
Redoes
EndRedoes
EndUndoRedoHistory
Fore
SplineSet
558 0 m 1,0,-1
 1454 1456 l 1,1,-1
 1635 1456 l 1,2,-1
 741 0 l 1,3,-1
 558 0 l 1,0,-1
493 602 m 0,4,5
 335 602 335 602 222 698 c 1,6,-1
 283 801 l 1,7,8
 387 725 387 725 483 725 c 0,9,10
 551 725 551 725 594 764.5 c 128,-1,11
 637 804 637 804 637 864 c 0,12,13
 637 923 637 923 588 954 c 128,-1,14
 539 985 539 985 451 985 c 2,15,-1
 377 985 l 1,16,-1
 377 1105 l 1,17,-1
 446 1105 l 2,18,19
 520 1105 520 1105 567 1137 c 128,-1,20
 614 1169 614 1169 614 1223 c 128,-1,21
 614 1277 614 1277 577.5 1308.5 c 128,-1,22
 541 1340 541 1340 482 1340 c 0,23,24
 384 1340 384 1340 276 1267 c 1,25,-1
 217 1366 l 1,26,27
 277 1410 277 1410 352 1434.5 c 128,-1,28
 427 1459 427 1459 500 1459 c 0,29,30
 615 1459 615 1459 692.5 1401 c 128,-1,31
 770 1343 770 1343 770 1238 c 0,32,33
 770 1181 770 1181 734 1133 c 128,-1,34
 698 1085 698 1085 624 1059 c 1,35,36
 709 1034 709 1034 752.5 981.5 c 128,-1,37
 796 929 796 929 796 861 c 0,38,39
 796 739 796 739 708.5 670.5 c 128,-1,40
 621 602 621 602 493 602 c 0,4,5
1584 0 m 1,41,-1
 1584 191 l 1,42,-1
 1211 191 l 1,43,-1
 1211 293 l 1,44,-1
 1578 804 l 1,45,-1
 1736 804 l 1,46,-1
 1736 311 l 1,47,-1
 1853 311 l 1,48,-1
 1853 191 l 1,49,-1
 1735 191 l 1,50,-1
 1735 0 l 1,51,-1
 1584 0 l 1,41,-1
1354 311 m 1,52,-1
 1582 311 l 1,53,-1
 1582 629 l 1,54,-1
 1354 311 l 1,52,-1
EndSplineSet
EndChar

StartChar: AE
Encoding: 198 198 135
Width: 2112
GlyphClass: 2
Flags: W
LayerCount: 2
UndoRedoHistory
Layer: 1
Undoes
EndUndoes
Redoes
EndRedoes
EndUndoRedoHistory
Fore
SplineSet
577 551 m 1,0,-1
 1080 551 l 1,1,-1
 1027 1272 l 1,2,-1
 984 1272 l 1,3,-1
 577 551 l 1,0,-1
23 0 m 1,4,-1
 869 1456 l 1,5,-1
 1914 1456 l 1,6,-1
 1914 1272 l 1,7,-1
 1236 1272 l 1,8,-1
 1273 837 l 1,9,-1
 1892 837 l 1,10,-1
 1892 659 l 1,11,-1
 1294 659 l 1,12,-1
 1337 183 l 1,13,-1
 1940 183 l 1,14,-1
 1940 0 l 1,15,-1
 1128 0 l 1,16,-1
 1095 386 l 1,17,-1
 492 386 l 1,18,-1
 273 0 l 1,19,-1
 23 0 l 1,4,-1
EndSplineSet
EndChar

StartChar: Eth
Encoding: 208 208 145
Width: 1505
GlyphClass: 2
Flags: W
LayerCount: 2
UndoRedoHistory
Layer: 1
Undoes
EndUndoes
Redoes
EndRedoes
EndUndoRedoHistory
Fore
SplineSet
408 180 m 1,0,-1
 639 180 l 2,1,2
 923 180 923 180 1068 324.5 c 128,-1,3
 1213 469 1213 469 1213 730 c 0,4,5
 1213 1012 1213 1012 1057 1144 c 128,-1,6
 901 1276 901 1276 573 1276 c 2,7,-1
 408 1276 l 1,8,-1
 408 807 l 1,9,-1
 672 807 l 1,10,-1
 672 676 l 1,11,-1
 408 676 l 1,12,-1
 408 180 l 1,0,-1
196 676 m 1,13,-1
 18 676 l 1,14,-1
 18 807 l 1,15,-1
 196 807 l 1,16,-1
 196 1456 l 1,17,-1
 550 1456 l 2,18,19
 1438 1456 1438 1456 1438 730 c 0,20,21
 1438 382 1438 382 1228 191 c 128,-1,22
 1018 0 1018 0 626 0 c 2,23,-1
 196 0 l 1,24,-1
 196 676 l 1,13,-1
EndSplineSet
EndChar

StartChar: multiply
Encoding: 215 215 152
Width: 1244
GlyphClass: 2
Flags: W
LayerCount: 2
UndoRedoHistory
Layer: 1
Undoes
EndUndoes
Redoes
EndRedoes
EndUndoRedoHistory
Fore
SplineSet
351 136 m 1,0,-1
 219 267 l 1,1,-1
 502 551 l 1,2,-1
 219 833 l 1,3,-1
 351 966 l 1,4,-1
 634 682 l 1,5,-1
 917 966 l 1,6,-1
 1049 834 l 1,7,-1
 765 551 l 1,8,-1
 1049 268 l 1,9,-1
 917 136 l 1,10,-1
 634 418 l 1,11,-1
 351 136 l 1,0,-1
EndSplineSet
EndChar

StartChar: Oslash
Encoding: 216 216 153
Width: 1663
GlyphClass: 2
Flags: W
LayerCount: 2
UndoRedoHistory
Layer: 1
Undoes
EndUndoes
Redoes
EndRedoes
EndUndoRedoHistory
Fore
SplineSet
820 158 m 0,0,1
 1061 158 1061 158 1181.5 310 c 128,-1,2
 1302 462 1302 462 1302 731 c 0,3,4
 1302 857 1302 857 1273 960 c 128,-1,5
 1244 1063 1244 1063 1186 1140 c 0,6,7
 1165 1168 1165 1168 1139 1192 c 1,8,-1
 610 196 l 1,9,10
 700 158 700 158 820 158 c 0,0,1
439 -125 m 1,11,-1
 338 -74 l 1,12,-1
 420 80 l 1,13,14
 352 122 352 122 297 181 c 0,15,16
 106 384 106 384 106 731 c 0,17,18
 106 952 106 952 190 1121 c 128,-1,19
 274 1290 274 1290 438 1386 c 128,-1,20
 602 1482 602 1482 825 1482 c 0,21,22
 996 1482 996 1482 1133 1422 c 1,23,-1
 1209 1564 l 1,24,-1
 1309 1513 l 1,25,-1
 1232 1368 l 1,26,27
 1372 1276 1372 1276 1449 1122 c 0,28,29
 1534 952 1534 952 1534 731 c 0,30,31
 1534 385 1534 385 1345 181.5 c 128,-1,32
 1156 -22 1156 -22 823 -22 c 0,33,34
 654 -22 654 -22 521 30 c 1,35,-1
 439 -125 l 1,11,-1
1045 1255 m 1,36,37
 1040 1258 1040 1258 1036 1260 c 0,38,39
 944 1302 944 1302 823 1302 c 0,40,41
 704 1302 704 1302 610.5 1259.5 c 128,-1,42
 517 1217 517 1217 457 1140 c 128,-1,43
 397 1063 397 1063 365.5 959.5 c 128,-1,44
 334 856 334 856 334 731 c 0,45,46
 334 462 334 462 458 310 c 0,47,48
 483 279 483 279 513 255 c 1,49,-1
 1045 1255 l 1,36,37
EndSplineSet
EndChar

StartChar: Thorn
Encoding: 222 222 159
Width: 1286
GlyphClass: 2
Flags: W
LayerCount: 2
UndoRedoHistory
Layer: 1
Undoes
EndUndoes
Redoes
EndRedoes
EndUndoRedoHistory
Fore
SplineSet
408 520 m 1,0,-1
 653 520 l 2,1,2
 808 520 808 520 895.5 583 c 128,-1,3
 983 646 983 646 983 775 c 0,4,5
 983 853 983 853 959 905 c 128,-1,6
 935 957 935 957 885.5 985.5 c 128,-1,7
 836 1014 836 1014 773 1025 c 128,-1,8
 710 1036 710 1036 618 1036 c 2,9,-1
 408 1036 l 1,10,-1
 408 520 l 1,0,-1
197 0 m 1,11,-1
 197 1456 l 1,12,-1
 408 1456 l 1,13,-1
 408 1212 l 1,14,-1
 606 1212 l 2,15,16
 716 1212 716 1212 800.5 1202 c 128,-1,17
 885 1192 885 1192 965 1163.5 c 128,-1,18
 1045 1135 1045 1135 1096.5 1087.5 c 128,-1,19
 1148 1040 1148 1040 1179 961.5 c 128,-1,20
 1210 883 1210 883 1210 776 c 0,21,22
 1210 663 1210 663 1166.5 578.5 c 128,-1,23
 1123 494 1123 494 1044.5 443.5 c 128,-1,24
 966 393 966 393 865.5 368.5 c 128,-1,25
 765 344 765 344 642 344 c 2,26,-1
 408 344 l 1,27,-1
 408 0 l 1,28,-1
 197 0 l 1,11,-1
EndSplineSet
EndChar

StartChar: germandbls
Encoding: 223 223 160
Width: 1254
GlyphClass: 2
Flags: W
LayerCount: 2
UndoRedoHistory
Layer: 1
Undoes
EndUndoes
Redoes
EndRedoes
EndUndoRedoHistory
Fore
SplineSet
813 -23 m 0,0,1
 732 -23 732 -23 650.5 -8 c 128,-1,2
 569 7 569 7 528 22 c 2,3,-1
 486 37 l 1,4,-1
 520 198 l 1,5,6
 537 191 537 191 565.5 180 c 128,-1,7
 594 169 594 169 667.5 153.5 c 128,-1,8
 741 138 741 138 797 143 c 0,9,10
 870 149 870 149 917 198 c 128,-1,11
 964 247 964 247 964 332 c 0,12,13
 964 397 964 397 937.5 453 c 128,-1,14
 911 509 911 509 856.5 558.5 c 128,-1,15
 802 608 802 608 732 649.5 c 128,-1,16
 662 691 662 691 561 738 c 1,17,-1
 561 891 l 1,18,19
 687 943 687 943 746.5 1009 c 128,-1,20
 806 1075 806 1075 806 1166 c 0,21,22
 806 1242 806 1242 751 1287 c 128,-1,23
 696 1332 696 1332 604 1332 c 0,24,25
 487 1332 487 1332 424.5 1247 c 128,-1,26
 362 1162 362 1162 362 1019 c 2,27,-1
 362 0 l 1,28,-1
 160 0 l 1,29,-1
 158 1017 l 2,30,31
 158 1247 158 1247 276.5 1371 c 128,-1,32
 395 1495 395 1495 604 1495 c 0,33,34
 795 1495 795 1495 908.5 1407 c 128,-1,35
 1022 1319 1022 1319 1022 1174 c 0,36,37
 1022 963 1022 963 796 853 c 1,38,39
 762 834 762 834 722 822 c 1,40,41
 741 817 741 817 799 797 c 1,42,43
 1184 646 1184 646 1184 347 c 0,44,45
 1184 182 1184 182 1075.5 79.5 c 128,-1,46
 967 -23 967 -23 813 -23 c 0,0,1
EndSplineSet
EndChar

StartChar: ae
Encoding: 230 230 167
Width: 1786
GlyphClass: 2
Flags: W
LayerCount: 2
UndoRedoHistory
Layer: 1
Undoes
EndUndoes
Redoes
EndRedoes
EndUndoRedoHistory
Fore
SplineSet
982 621 m 1,0,-1
 1504 621 l 1,1,-1
 1502 633 l 1,2,3
 1488 752 1488 752 1421 820.5 c 128,-1,4
 1354 889 1354 889 1251 889 c 0,5,6
 1137 889 1137 889 1069.5 814 c 128,-1,7
 1002 739 1002 739 982 621 c 1,0,-1
485 142 m 0,8,9
 561 142 561 142 618.5 171 c 128,-1,10
 676 200 676 200 709 249.5 c 128,-1,11
 742 299 742 299 758.5 357 c 128,-1,12
 775 415 775 415 776 480 c 1,13,-1
 641 480 l 2,14,15
 568 480 568 480 508.5 471 c 128,-1,16
 449 462 449 462 397 442.5 c 128,-1,17
 345 423 345 423 316 386 c 128,-1,18
 287 349 287 349 287 297 c 0,19,20
 287 218 287 218 343 180 c 128,-1,21
 399 142 399 142 485 142 c 0,8,9
467 -25 m 0,22,23
 294 -25 294 -25 188.5 58.5 c 128,-1,24
 83 142 83 142 83 288 c 0,25,26
 83 360 83 360 103.5 414 c 128,-1,27
 124 468 124 468 166.5 504.5 c 128,-1,28
 209 541 209 541 263 565 c 128,-1,29
 317 589 317 589 395.5 601.5 c 128,-1,30
 474 614 474 614 553.5 619 c 128,-1,31
 633 624 633 624 740 624 c 2,32,-1
 775 624 l 1,33,34
 775 744 775 744 712 816 c 128,-1,35
 649 888 649 888 531 888 c 0,36,37
 391 888 391 888 217 806 c 1,38,-1
 157 949 l 1,39,40
 182 965 182 965 223.5 984 c 128,-1,41
 265 1003 265 1003 364 1028 c 128,-1,42
 463 1053 463 1053 564 1053 c 128,-1,43
 665 1053 665 1053 760.5 1002 c 128,-1,44
 856 951 856 951 896 858 c 1,45,46
 953 948 953 948 1040.5 999.5 c 128,-1,47
 1128 1051 1128 1051 1236 1053 c 0,48,49
 1382 1055 1382 1055 1485 985.5 c 128,-1,50
 1588 916 1588 916 1636.5 797 c 128,-1,51
 1685 678 1685 678 1685 522 c 1,52,-1
 1682 480 l 1,53,-1
 980 480 l 1,54,-1
 980 455 l 1,55,56
 994 157 994 157 1267 145 c 0,57,58
 1320 142 1320 142 1374 152.5 c 128,-1,59
 1428 163 1428 163 1467 179.5 c 128,-1,60
 1506 196 1506 196 1537 213 c 128,-1,61
 1568 230 1568 230 1584 242 c 2,62,-1
 1599 254 l 1,63,-1
 1658 104 l 1,64,65
 1652 99 1652 99 1641 90 c 128,-1,66
 1630 81 1630 81 1591 58.5 c 128,-1,67
 1552 36 1552 36 1509.5 19 c 128,-1,68
 1467 2 1467 2 1399.5 -11 c 128,-1,69
 1332 -24 1332 -24 1261 -22 c 0,70,71
 1133 -20 1133 -20 1031 43 c 128,-1,72
 929 106 929 106 875 213 c 1,73,74
 819 105 819 105 710.5 40 c 128,-1,75
 602 -25 602 -25 467 -25 c 0,22,23
EndSplineSet
EndChar

StartChar: eth
Encoding: 240 240 177
Width: 1220
GlyphClass: 2
Flags: W
LayerCount: 2
UndoRedoHistory
Layer: 1
Undoes
EndUndoes
Redoes
EndRedoes
EndUndoRedoHistory
Fore
SplineSet
444 1046 m 1,0,-1
 375 1156 l 1,1,-1
 573 1279 l 1,2,3
 430 1379 430 1379 264 1416 c 1,4,-1
 342 1553 l 1,5,6
 448 1532 448 1532 555 1480 c 0,7,8
 643 1438 643 1438 725 1373 c 1,9,-1
 954 1515 l 1,10,-1
 1023 1404 l 1,11,-1
 828 1283 l 1,12,13
 888 1224 888 1224 938 1156 c 0,14,15
 1014 1052 1014 1052 1060 914.5 c 128,-1,16
 1106 777 1106 777 1106 628 c 0,17,18
 1106 314 1106 314 971 146 c 128,-1,19
 836 -22 836 -22 591 -22 c 0,20,21
 445 -22 445 -22 332.5 43.5 c 128,-1,22
 220 109 220 109 161.5 218 c 128,-1,23
 103 327 103 327 103 460 c 0,24,25
 103 657 103 657 241 782.5 c 128,-1,26
 379 908 379 908 589 908 c 0,27,28
 697 908 697 908 783 857.5 c 128,-1,29
 869 807 869 807 905 739 c 1,30,31
 905 756 905 756 900 778 c 1,32,33
 892 910 892 910 806 1043 c 0,34,35
 754 1123 754 1123 681 1192 c 1,36,-1
 444 1046 l 1,0,-1
596 158 m 0,37,38
 725 158 725 158 802.5 245 c 128,-1,39
 880 332 880 332 880 473 c 0,40,41
 880 589 880 589 793 663.5 c 128,-1,42
 706 738 706 738 594 738 c 0,43,44
 472 738 472 738 394.5 662.5 c 128,-1,45
 317 587 317 587 317 457 c 0,46,47
 317 321 317 321 397 239.5 c 128,-1,48
 477 158 477 158 596 158 c 0,37,38
EndSplineSet
EndChar

StartChar: divide
Encoding: 247 247 184
Width: 1356
GlyphClass: 2
Flags: W
LayerCount: 2
UndoRedoHistory
Layer: 1
Undoes
EndUndoes
Redoes
EndRedoes
EndUndoRedoHistory
Fore
SplineSet
540 857 m 1,0,-1
 540 1097 l 1,1,-1
 797 1097 l 1,2,-1
 797 857 l 1,3,-1
 540 857 l 1,0,-1
164 467 m 1,4,-1
 164 639 l 1,5,-1
 1169 639 l 1,6,-1
 1169 467 l 1,7,-1
 164 467 l 1,4,-1
542 1 m 1,8,-1
 542 242 l 1,9,-1
 799 242 l 1,10,-1
 799 1 l 1,11,-1
 542 1 l 1,8,-1
EndSplineSet
EndChar

StartChar: oslash
Encoding: 248 248 185
Width: 1259
GlyphClass: 2
Flags: W
LayerCount: 2
UndoRedoHistory
Layer: 1
Undoes
EndUndoes
Redoes
EndRedoes
EndUndoRedoHistory
Fore
SplineSet
635 145 m 0,0,1
 788 145 788 145 867.5 246 c 128,-1,2
 947 347 947 347 947 513 c 0,3,4
 946 681 946 681 866 783 c 0,5,6
 848 806 848 806 827 824 c 1,7,-1
 524 161 l 1,8,9
 573 145 573 145 635 145 c 0,0,1
354 -210 m 1,10,-1
 256 -168 l 1,11,-1
 353 44 l 1,12,13
 349 46 349 46 345 48 c 0,14,15
 223 118 223 118 162.5 237.5 c 128,-1,16
 102 357 102 357 102 512 c 0,17,18
 102 753 102 753 244 902.5 c 128,-1,19
 386 1052 386 1052 637 1052 c 0,20,21
 728 1052 728 1052 804 1032 c 1,22,-1
 891 1222 l 1,23,-1
 989 1179 l 1,24,-1
 905 995 l 1,25,26
 974 960 974 960 1026 903 c 0,27,28
 1164 754 1164 754 1163 512 c 0,29,30
 1163 358 1163 358 1103 238.5 c 128,-1,31
 1043 119 1043 119 922 48.5 c 128,-1,32
 801 -22 801 -22 635 -22 c 0,33,34
 535 -22 535 -22 451 3 c 1,35,-1
 354 -210 l 1,10,-1
731 873 m 1,36,37
 687 885 687 885 634 885 c 0,38,39
 481 885 481 885 399.5 783 c 128,-1,40
 318 681 318 681 318 512 c 0,41,42
 318 347 318 347 398 246 c 0,43,44
 413 228 413 228 430 213 c 1,45,-1
 731 873 l 1,36,37
EndSplineSet
EndChar

StartChar: thorn
Encoding: 254 254 191
Width: 1233
GlyphClass: 2
Flags: W
LayerCount: 2
UndoRedoHistory
Layer: 1
Undoes
EndUndoes
Redoes
EndRedoes
EndUndoRedoHistory
Fore
SplineSet
631 142 m 0,0,1
 704 142 704 142 760.5 173 c 128,-1,2
 817 204 817 204 850.5 257.5 c 128,-1,3
 884 311 884 311 901 377.5 c 128,-1,4
 918 444 918 444 918 521 c 0,5,6
 918 595 918 595 903 657.5 c 128,-1,7
 888 720 888 720 856.5 772 c 128,-1,8
 825 824 825 824 769 854 c 128,-1,9
 713 884 713 884 638 884 c 0,10,11
 560 884 560 884 502 852 c 128,-1,12
 444 820 444 820 411.5 764 c 128,-1,13
 379 708 379 708 363.5 641 c 128,-1,14
 348 574 348 574 348 494 c 0,15,16
 348 337 348 337 422 239.5 c 128,-1,17
 496 142 496 142 631 142 c 0,0,1
150 -412 m 1,18,-1
 150 1460 l 1,19,-1
 350 1460 l 1,20,-1
 350 891 l 1,21,22
 394 965 394 965 479.5 1008 c 128,-1,23
 565 1051 565 1051 664 1051 c 0,24,25
 780 1051 780 1051 871.5 1009 c 128,-1,26
 963 967 963 967 1019.5 894 c 128,-1,27
 1076 821 1076 821 1105 727.5 c 128,-1,28
 1134 634 1134 634 1134 526 c 0,29,30
 1134 416 1134 416 1105 319 c 128,-1,31
 1076 222 1076 222 1019.5 145 c 128,-1,32
 963 68 963 68 871.5 23 c 128,-1,33
 780 -22 780 -22 664 -22 c 0,34,35
 566 -22 566 -22 481.5 14.5 c 128,-1,36
 397 51 397 51 350 122 c 1,37,-1
 350 -412 l 1,38,-1
 150 -412 l 1,18,-1
EndSplineSet
EndChar

StartChar: dcroat
Encoding: 273 273 210
Width: 1255
GlyphClass: 2
Flags: W
LayerCount: 2
UndoRedoHistory
Layer: 1
Undoes
EndUndoes
Redoes
EndRedoes
EndUndoRedoHistory
Fore
SplineSet
606 145 m 0,0,1
 749 145 749 145 824.5 247 c 128,-1,2
 900 349 900 349 900 522 c 0,3,4
 900 682 900 682 823.5 783.5 c 128,-1,5
 747 885 747 885 610 885 c 0,6,7
 471 885 471 885 393.5 782 c 128,-1,8
 316 679 316 679 316 512 c 0,9,10
 316 348 316 348 391 246.5 c 128,-1,11
 466 145 466 145 606 145 c 0,0,1
573 -22 m 0,12,13
 368 -22 368 -22 235 122.5 c 128,-1,14
 102 267 102 267 102 507 c 0,15,16
 102 748 102 748 231 900 c 128,-1,17
 360 1052 360 1052 585 1052 c 0,18,19
 699 1052 699 1052 781.5 1002.5 c 128,-1,20
 864 953 864 953 895 890 c 1,21,-1
 895 1220 l 1,22,-1
 592 1220 l 1,23,-1
 592 1346 l 1,24,-1
 895 1346 l 1,25,-1
 895 1478 l 1,26,-1
 1101 1478 l 1,27,-1
 1101 1346 l 1,28,-1
 1206 1346 l 1,29,-1
 1206 1220 l 1,30,-1
 1101 1220 l 1,31,-1
 1101 266 l 1,32,33
 1103 146 1103 146 1108 0 c 1,34,-1
 899 0 l 1,35,-1
 896 158 l 1,36,37
 867 87 867 87 784 32.5 c 128,-1,38
 701 -22 701 -22 573 -22 c 0,12,13
EndSplineSet
EndChar

StartChar: gcedilla
Encoding: 291 291 228
Width: 1241
GlyphClass: 2
Flags: W
LayerCount: 2
UndoRedoHistory
Layer: 1
Undoes
EndUndoes
Redoes
EndRedoes
EndUndoRedoHistory
Fore
SplineSet
603 181 m 0,0,1
 752 181 752 181 826 277.5 c 128,-1,2
 900 374 900 374 900 537 c 0,3,4
 900 696 900 696 825 790.5 c 128,-1,5
 750 885 750 885 615 885 c 0,6,7
 475 885 475 885 396 783.5 c 128,-1,8
 317 682 317 682 317 519 c 0,9,10
 317 357 317 357 390.5 269 c 128,-1,11
 464 181 464 181 603 181 c 0,0,1
480 1162 m 1,12,-1
 643 1625 l 1,13,-1
 774 1625 l 1,14,-1
 667 1162 l 1,15,-1
 480 1162 l 1,12,-1
895 888 m 1,16,-1
 896 1026 l 1,17,-1
 1110 1026 l 1,18,19
 1097 866 1097 866 1097 728 c 2,20,-1
 1097 147 l 2,21,22
 1097 54 1097 54 1080 -27 c 128,-1,23
 1063 -108 1063 -108 1024 -179.5 c 128,-1,24
 985 -251 985 -251 926 -302 c 128,-1,25
 867 -353 867 -353 778 -382.5 c 128,-1,26
 689 -412 689 -412 576 -412 c 0,27,28
 370 -412 370 -412 189 -320 c 1,29,-1
 222 -142 l 1,30,31
 394 -247 394 -247 567 -247 c 0,32,33
 724 -247 724 -247 809 -165 c 128,-1,34
 894 -83 894 -83 894 78 c 2,35,-1
 894 180 l 1,36,37
 880 160 880 160 857 134 c 0,38,39
 828 102 828 102 793 78 c 128,-1,40
 758 54 758 54 704.5 37.5 c 128,-1,41
 651 21 651 21 589 21 c 0,42,43
 376 21 376 21 239.5 154.5 c 128,-1,44
 103 288 103 288 103 516 c 0,45,46
 103 754 103 754 229 903 c 128,-1,47
 355 1052 355 1052 584 1052 c 0,48,49
 659 1052 659 1052 720.5 1030.5 c 128,-1,50
 782 1009 782 1009 822 972.5 c 128,-1,51
 862 936 862 936 888 898 c 0,52,53
 892 893 892 893 895 888 c 1,16,-1
EndSplineSet
EndChar

StartChar: Hbar
Encoding: 294 294 231
Width: 1539
GlyphClass: 2
Flags: W
LayerCount: 2
UndoRedoHistory
Layer: 1
Undoes
EndUndoes
Redoes
EndRedoes
EndUndoRedoHistory
Fore
SplineSet
82 1145 m 1,0,-1
 82 1266 l 1,1,-1
 196 1266 l 1,2,-1
 196 1456 l 1,3,-1
 408 1456 l 1,4,-1
 408 1266 l 1,5,-1
 1151 1266 l 1,6,-1
 1151 1456 l 1,7,-1
 1363 1456 l 1,8,-1
 1363 1266 l 1,9,-1
 1458 1266 l 1,10,-1
 1458 1145 l 1,11,-1
 1363 1145 l 1,12,-1
 1363 0 l 1,13,-1
 1153 0 l 1,14,-1
 1153 657 l 1,15,-1
 410 657 l 1,16,-1
 410 0 l 1,17,-1
 196 0 l 1,18,-1
 196 1145 l 1,19,-1
 82 1145 l 1,0,-1
408 1145 m 1,20,-1
 408 836 l 1,21,-1
 1151 836 l 1,22,-1
 1151 1145 l 1,23,-1
 408 1145 l 1,20,-1
EndSplineSet
EndChar

StartChar: hbar
Encoding: 295 295 232
Width: 1198
GlyphClass: 2
Flags: W
LayerCount: 2
UndoRedoHistory
Layer: 1
Undoes
EndUndoes
Redoes
EndRedoes
EndUndoRedoHistory
Fore
SplineSet
-16 1190 m 1,0,-1
 -16 1323 l 1,1,-1
 158 1323 l 1,2,-1
 158 1478 l 1,3,-1
 364 1478 l 1,4,-1
 364 1323 l 1,5,-1
 582 1323 l 1,6,-1
 582 1190 l 1,7,-1
 364 1190 l 1,8,-1
 364 875 l 1,9,10
 407 954 407 954 502.5 1003 c 128,-1,11
 598 1052 598 1052 699 1052 c 0,12,13
 783 1052 783 1052 849.5 1026.5 c 128,-1,14
 916 1001 916 1001 959 958.5 c 128,-1,15
 1002 916 1002 916 1030 857 c 128,-1,16
 1058 798 1058 798 1070 735.5 c 128,-1,17
 1082 673 1082 673 1082 603 c 2,18,-1
 1082 0 l 1,19,-1
 876 0 l 1,20,-1
 876 603 l 2,21,22
 876 752 876 752 826 818.5 c 128,-1,23
 776 885 776 885 667 885 c 0,24,25
 550 885 550 885 457 805 c 128,-1,26
 364 725 364 725 364 621 c 2,27,-1
 364 0 l 1,28,-1
 158 0 l 1,29,-1
 158 1190 l 1,30,-1
 -16 1190 l 1,0,-1
EndSplineSet
EndChar

StartChar: dotlessi
Encoding: 305 305 242
Width: 548
GlyphClass: 2
Flags: W
AnchorPoint: "Anchor-0" 259 1116 basechar 0
LayerCount: 2
UndoRedoHistory
Layer: 1
Undoes
EndUndoes
Redoes
EndRedoes
EndUndoRedoHistory
Fore
SplineSet
174 0 m 1,0,-1
 174 1026 l 1,1,-1
 380 1026 l 1,2,-1
 380 0 l 1,3,-1
 174 0 l 1,0,-1
EndSplineSet
EndChar

StartChar: kgreenlandic
Encoding: 312 312 249
Width: 1082
GlyphClass: 2
Flags: W
LayerCount: 2
UndoRedoHistory
Layer: 1
Undoes
EndUndoes
Redoes
EndRedoes
EndUndoRedoHistory
Fore
SplineSet
162 0 m 1,0,-1
 162 1026 l 1,1,-1
 367 1026 l 1,2,-1
 367 582 l 1,3,-1
 778 1026 l 1,4,-1
 1048 1026 l 1,5,-1
 538 518 l 1,6,-1
 1084 0 l 1,7,-1
 822 0 l 1,8,-1
 367 440 l 1,9,-1
 367 0 l 1,10,-1
 162 0 l 1,0,-1
EndSplineSet
EndChar

StartChar: Lslash
Encoding: 321 321 258
Width: 1142
GlyphClass: 2
Flags: W
LayerCount: 2
UndoRedoHistory
Layer: 1
Undoes
EndUndoes
Redoes
EndRedoes
EndUndoRedoHistory
Fore
SplineSet
196 731 m 1,0,-1
 196 1456 l 1,1,-1
 408 1456 l 1,2,-1
 408 868 l 1,3,-1
 707 1061 l 1,4,-1
 707 881 l 1,5,-1
 408 688 l 1,6,-1
 408 180 l 1,7,-1
 1084 180 l 1,8,-1
 1084 0 l 1,9,-1
 196 0 l 1,10,-1
 196 551 l 1,11,-1
 48 456 l 1,12,-1
 48 636 l 1,13,-1
 196 731 l 1,0,-1
EndSplineSet
EndChar

StartChar: lslash
Encoding: 322 322 259
Width: 503
GlyphClass: 2
Flags: W
LayerCount: 2
UndoRedoHistory
Layer: 1
Undoes
EndUndoes
Redoes
EndRedoes
EndUndoRedoHistory
Fore
SplineSet
143 0 m 1,0,-1
 143 707 l 1,1,-1
 3 607 l 1,2,-1
 3 785 l 1,3,-1
 143 885 l 1,4,-1
 143 1475 l 1,5,-1
 349 1475 l 1,6,-1
 349 1026 l 1,7,-1
 486 1125 l 1,8,-1
 486 946 l 1,9,-1
 350 845 l 1,10,-1
 350 0 l 1,11,-1
 143 0 l 1,0,-1
EndSplineSet
EndChar

StartChar: Eng
Encoding: 330 330 267
Width: 1587
GlyphClass: 2
Flags: W
LayerCount: 2
UndoRedoHistory
Layer: 1
Undoes
EndUndoes
Redoes
EndRedoes
EndUndoRedoHistory
Fore
SplineSet
586 -222 m 1,0,1
 785 -275 785 -275 912 -275 c 0,2,3
 1048 -275 1048 -275 1119.5 -213 c 128,-1,4
 1191 -151 1191 -151 1191 -14 c 2,5,-1
 1191 69 l 1,6,-1
 493 1021 l 1,7,-1
 393 1174 l 1,8,-1
 393 0 l 1,9,-1
 190 0 l 1,10,-1
 190 1456 l 1,11,-1
 422 1456 l 1,12,-1
 1089 526 l 1,13,-1
 1192 373 l 1,14,-1
 1192 1456 l 1,15,-1
 1397 1456 l 1,16,-1
 1397 70 l 2,17,18
 1397 -438 1397 -438 912 -438 c 0,19,20
 765 -438 765 -438 560 -389 c 1,21,-1
 586 -222 l 1,0,1
EndSplineSet
EndChar

StartChar: eng
Encoding: 331 331 268
Width: 1220
GlyphClass: 2
Flags: W
LayerCount: 2
UndoRedoHistory
Layer: 1
Undoes
EndUndoes
Redoes
EndRedoes
EndUndoRedoHistory
Fore
SplineSet
285 -219 m 1,0,1
 452 -260 452 -260 565 -260 c 0,2,3
 724 -260 724 -260 796.5 -177.5 c 128,-1,4
 869 -95 869 -95 869 84 c 2,5,-1
 869 566 l 2,6,7
 869 734 869 734 826.5 809 c 128,-1,8
 784 884 784 884 660 884 c 0,9,10
 552 884 552 884 464 805 c 128,-1,11
 376 726 376 726 375 634 c 1,12,-1
 375 0 l 1,13,-1
 169 0 l 1,14,-1
 169 708 l 2,15,16
 169 789 169 789 165.5 868.5 c 128,-1,17
 162 948 162 948 159 987 c 2,18,-1
 156 1026 l 1,19,-1
 372 1026 l 1,20,-1
 372 881 l 1,21,22
 422 963 422 963 512 1007 c 128,-1,23
 602 1051 602 1051 701 1051 c 0,24,25
 896 1051 896 1051 985.5 932.5 c 128,-1,26
 1075 814 1075 814 1075 567 c 2,27,-1
 1075 124 l 2,28,29
 1075 -140 1075 -140 957 -276.5 c 128,-1,30
 839 -413 839 -413 589 -413 c 0,31,32
 449 -413 449 -413 263 -368 c 1,33,-1
 285 -219 l 1,0,1
EndSplineSet
EndChar

StartChar: OE
Encoding: 338 338 275
Width: 2051
GlyphClass: 2
Flags: W
LayerCount: 2
UndoRedoHistory
Layer: 1
Undoes
EndUndoes
Redoes
EndRedoes
EndUndoRedoHistory
Fore
SplineSet
816 149 m 0,0,1
 880 150 880 150 933.5 161.5 c 128,-1,2
 987 173 987 173 1022 191.5 c 128,-1,3
 1057 210 1057 210 1078 225.5 c 128,-1,4
 1099 241 1099 241 1114 258 c 1,5,-1
 1114 1205 l 1,6,7
 1002 1310 1002 1310 797 1300 c 1,8,9
 588 1293 588 1293 461.5 1139.5 c 128,-1,10
 335 986 335 986 335 725 c 0,11,12
 335 550 335 550 391 420 c 128,-1,13
 447 290 447 290 556 219 c 128,-1,14
 665 148 665 148 816 149 c 0,0,1
810 -23 m 0,15,16
 602 -29 602 -29 444 55.5 c 128,-1,17
 286 140 286 140 196.5 314 c 128,-1,18
 107 488 107 488 107 730 c 0,19,20
 107 897 107 897 158 1037.5 c 128,-1,21
 209 1178 209 1178 299.5 1275 c 128,-1,22
 390 1372 390 1372 516 1427 c 128,-1,23
 642 1482 642 1482 790 1483 c 0,24,25
 859 1484 859 1484 919 1473.5 c 128,-1,26
 979 1463 979 1463 1017.5 1446 c 128,-1,27
 1056 1429 1056 1429 1078.5 1415.5 c 128,-1,28
 1101 1402 1101 1402 1114 1390 c 1,29,-1
 1114 1456 l 1,30,-1
 1933 1456 l 1,31,-1
 1933 1274 l 1,32,-1
 1326 1274 l 1,33,-1
 1326 837 l 1,34,-1
 1895 837 l 1,35,-1
 1895 654 l 1,36,-1
 1327 654 l 1,37,-1
 1327 182 l 1,38,-1
 1963 182 l 1,39,-1
 1963 0 l 1,40,-1
 1114 0 l 1,41,-1
 1114 84 l 1,42,43
 1080 49 1080 49 999.5 14.5 c 128,-1,44
 919 -20 919 -20 810 -23 c 0,15,16
EndSplineSet
EndChar

StartChar: oe
Encoding: 339 339 276
Width: 1985
GlyphClass: 2
Flags: W
LayerCount: 2
UndoRedoHistory
Layer: 1
Undoes
EndUndoes
Redoes
EndRedoes
EndUndoRedoHistory
Fore
SplineSet
626 -22 m 0,0,1
 502 -22 502 -22 401.5 18.5 c 128,-1,2
 301 59 301 59 234.5 130.5 c 128,-1,3
 168 202 168 202 132.5 299 c 128,-1,4
 97 396 97 396 97 510 c 0,5,6
 97 601 97 601 118.5 682 c 128,-1,7
 140 763 140 763 184 831 c 128,-1,8
 228 899 228 899 290.5 948 c 128,-1,9
 353 997 353 997 439 1024.5 c 128,-1,10
 525 1052 525 1052 626 1052 c 0,11,12
 765 1052 765 1052 864 995.5 c 128,-1,13
 963 939 963 939 1024 838 c 1,14,15
 1146 1054 1146 1054 1405 1054 c 0,16,17
 1513 1054 1513 1054 1600 1014.5 c 128,-1,18
 1687 975 1687 975 1744 904 c 128,-1,19
 1801 833 1801 833 1831.5 734.5 c 128,-1,20
 1862 636 1862 636 1862 516 c 2,21,-1
 1862 462 l 1,22,-1
 1124 462 l 1,23,24
 1124 461 1124 461 1124.5 458 c 128,-1,25
 1125 455 1125 455 1125 450.5 c 128,-1,26
 1125 446 1125 446 1125 442 c 128,-1,27
 1125 438 1125 438 1125.5 434.5 c 128,-1,28
 1126 431 1126 431 1126 430 c 0,29,30
 1139 278 1139 278 1253 201 c 0,31,32
 1337 145 1337 145 1455 145 c 0,33,34
 1511 145 1511 145 1564.5 155.5 c 128,-1,35
 1618 166 1618 166 1654.5 181.5 c 128,-1,36
 1691 197 1691 197 1719 213 c 128,-1,37
 1747 229 1747 229 1761 239 c 1,38,-1
 1774 250 l 1,39,-1
 1834 98 l 1,40,41
 1829 94 1829 94 1818.5 85.5 c 128,-1,42
 1808 77 1808 77 1771 56.5 c 128,-1,43
 1734 36 1734 36 1691 20 c 128,-1,44
 1648 4 1648 4 1578.5 -9 c 128,-1,45
 1509 -22 1509 -22 1433 -22 c 0,46,47
 1304 -22 1304 -22 1189 38 c 128,-1,48
 1074 98 1074 98 1022 197 c 1,49,50
 990 130 990 130 929 80 c 128,-1,51
 868 30 868 30 789.5 4 c 128,-1,52
 711 -22 711 -22 626 -22 c 0,0,1
631 145 m 0,53,54
 704 145 704 145 760 174.5 c 128,-1,55
 816 204 816 204 850 255 c 128,-1,56
 884 306 884 306 901.5 371 c 128,-1,57
 919 436 919 436 919 511 c 0,58,59
 919 576 919 576 908.5 631.5 c 128,-1,60
 898 687 898 687 875 734 c 128,-1,61
 852 781 852 781 818 814.5 c 128,-1,62
 784 848 784 848 734.5 866.5 c 128,-1,63
 685 885 685 885 624 885 c 0,64,65
 549 885 549 885 489.5 856 c 128,-1,66
 430 827 430 827 391.5 775.5 c 128,-1,67
 353 724 353 724 332.5 655.5 c 128,-1,68
 312 587 312 587 312 507 c 0,69,70
 312 431 312 431 331 366.5 c 128,-1,71
 350 302 350 302 388 252 c 128,-1,72
 426 202 426 202 488.5 173.5 c 128,-1,73
 551 145 551 145 631 145 c 0,53,54
1126 624 m 1,74,-1
 1668 624 l 1,75,76
 1668 635 1668 635 1668 639 c 0,77,78
 1655 747 1655 747 1584 816 c 128,-1,79
 1513 885 1513 885 1406 885 c 0,80,81
 1295 885 1295 885 1218 808.5 c 128,-1,82
 1141 732 1141 732 1126 624 c 1,74,-1
EndSplineSet
EndChar

StartChar: Tbar
Encoding: 358 358 295
Width: 1156
GlyphClass: 2
Flags: W
LayerCount: 2
UndoRedoHistory
Layer: 1
Undoes
EndUndoes
Redoes
EndRedoes
EndUndoRedoHistory
Fore
SplineSet
214 635 m 1,0,-1
 214 782 l 1,1,-1
 470 782 l 1,2,-1
 470 1276 l 1,3,-1
 10 1276 l 1,4,-1
 10 1456 l 1,5,-1
 1146 1456 l 1,6,-1
 1146 1276 l 1,7,-1
 682 1276 l 1,8,-1
 682 782 l 1,9,-1
 939 782 l 1,10,-1
 939 635 l 1,11,-1
 682 635 l 1,12,-1
 682 0 l 1,13,-1
 470 0 l 1,14,-1
 470 635 l 1,15,-1
 214 635 l 1,0,-1
EndSplineSet
EndChar

StartChar: tbar
Encoding: 359 359 296
Width: 765
GlyphClass: 2
Flags: W
LayerCount: 2
UndoRedoHistory
Layer: 1
Undoes
EndUndoes
Redoes
EndRedoes
EndUndoRedoHistory
Fore
SplineSet
736 0 m 1,0,-1
 641 0 l 2,1,2
 529 0 529 0 456.5 15.5 c 128,-1,3
 384 31 384 31 333 72 c 128,-1,4
 282 113 282 113 260.5 183 c 128,-1,5
 239 253 239 253 239 362 c 2,6,-1
 239 564 l 1,7,-1
 54 564 l 1,8,-1
 54 686 l 1,9,-1
 239 686 l 1,10,-1
 239 889 l 1,11,-1
 44 889 l 1,12,-1
 44 1026 l 1,13,-1
 244 1026 l 1,14,-1
 244 1283 l 1,15,-1
 445 1342 l 1,16,-1
 445 1026 l 1,17,-1
 734 1026 l 1,18,-1
 734 889 l 1,19,-1
 445 889 l 1,20,-1
 445 686 l 1,21,-1
 676 686 l 1,22,-1
 676 564 l 1,23,-1
 445 564 l 1,24,-1
 445 350 l 2,25,26
 445 298 445 298 454 265 c 128,-1,27
 463 232 463 232 480.5 210 c 128,-1,28
 498 188 498 188 534.5 177.5 c 128,-1,29
 571 167 571 167 616 163 c 128,-1,30
 661 159 661 159 736 159 c 1,31,-1
 736 0 l 1,0,-1
EndSplineSet
EndChar

StartChar: florin
Encoding: 402 402 321
Width: 1084
GlyphClass: 2
Flags: W
LayerCount: 2
UndoRedoHistory
Layer: 1
Undoes
EndUndoes
Redoes
EndRedoes
EndUndoRedoHistory
Fore
SplineSet
96 -287 m 1,0,-1
 111 -153 l 1,1,2
 151 -163 151 -163 183 -163 c 0,3,4
 247 -163 247 -163 292 -115.5 c 128,-1,5
 337 -68 337 -68 358 51 c 2,6,-1
 486 760 l 1,7,-1
 338 760 l 1,8,-1
 365 890 l 1,9,-1
 509 890 l 1,10,-1
 552 1120 l 2,11,12
 562 1175 562 1175 574.5 1217 c 128,-1,13
 587 1259 587 1259 612.5 1308 c 128,-1,14
 638 1357 638 1357 673 1388.5 c 128,-1,15
 708 1420 708 1420 764.5 1441.5 c 128,-1,16
 821 1463 821 1463 894 1463 c 0,17,18
 940 1463 940 1463 982.5 1453.5 c 128,-1,19
 1025 1444 1025 1444 1044 1434 c 1,20,-1
 1064 1425 l 1,21,-1
 1047 1296 l 1,22,23
 978 1316 978 1316 927 1316 c 0,24,25
 857 1316 857 1316 814 1274 c 128,-1,26
 771 1232 771 1232 752 1137 c 2,27,-1
 703 890 l 1,28,-1
 909 890 l 1,29,-1
 884 760 l 1,30,-1
 677 760 l 1,31,-1
 553 73 l 1,32,33
 518 -130 518 -130 442.5 -217 c 128,-1,34
 367 -304 367 -304 202 -304 c 0,35,36
 155 -304 155 -304 96 -287 c 1,0,-1
EndSplineSet
EndChar

StartChar: dotlessj
Encoding: 567 567 364
Width: 503
GlyphClass: 2
Flags: W
AnchorPoint: "Anchor-0" 259 1152 basechar 0
LayerCount: 2
UndoRedoHistory
Layer: 1
Undoes
EndUndoes
Redoes
EndRedoes
EndUndoRedoHistory
Fore
SplineSet
22 -418 m 0,0,1
 -40 -418 -40 -418 -113 -404 c 1,2,-1
 -113 -242 l 1,3,4
 -53 -255 -53 -255 -18 -255 c 0,5,6
 159 -255 159 -255 159 42 c 2,7,-1
 159 1026 l 1,8,-1
 348 1026 l 1,9,-1
 348 102 l 2,10,11
 348 47 348 47 345.5 0.5 c 128,-1,12
 343 -46 343 -46 334.5 -101 c 128,-1,13
 326 -156 326 -156 312 -199.5 c 128,-1,14
 298 -243 298 -243 273 -285.5 c 128,-1,15
 248 -328 248 -328 214.5 -356 c 128,-1,16
 181 -384 181 -384 132 -401 c 128,-1,17
 83 -418 83 -418 22 -418 c 0,0,1
EndSplineSet
EndChar

StartChar: circumflex
Encoding: 710 710 365
Width: 699
GlyphClass: 2
Flags: W
LayerCount: 2
UndoRedoHistory
Layer: 1
Undoes
EndUndoes
Redoes
EndRedoes
EndUndoRedoHistory
Fore
SplineSet
255 1505 m 1,0,-1
 443 1505 l 1,1,-1
 687 1139 l 1,2,-1
 507 1139 l 1,3,-1
 349 1365 l 1,4,-1
 189 1139 l 1,5,-1
 13 1139 l 1,6,-1
 255 1505 l 1,0,-1
EndSplineSet
EndChar

StartChar: caron
Encoding: 711 711 366
Width: 699
GlyphClass: 2
Flags: W
LayerCount: 2
UndoRedoHistory
Layer: 1
Undoes
EndUndoes
Redoes
EndRedoes
EndUndoRedoHistory
Fore
SplineSet
263 1139 m 1,0,-1
 7 1511 l 1,1,-1
 192 1511 l 1,2,-1
 348 1278 l 1,3,-1
 504 1511 l 1,4,-1
 692 1511 l 1,5,-1
 437 1139 l 1,6,-1
 263 1139 l 1,0,-1
EndSplineSet
EndChar

StartChar: uni02C9
Encoding: 713 713 367
Width: 723
GlyphClass: 2
Flags: W
LayerCount: 2
UndoRedoHistory
Layer: 1
Undoes
EndUndoes
Redoes
EndRedoes
EndUndoRedoHistory
Fore
SplineSet
68 1207 m 1,0,-1
 68 1354 l 1,1,-1
 655 1354 l 1,2,-1
 655 1207 l 1,3,-1
 68 1207 l 1,0,-1
EndSplineSet
EndChar

StartChar: breve
Encoding: 728 728 368
Width: 643
GlyphClass: 4
Flags: W
AnchorPoint: "Anchor-0" 327 1120 mark 0
LayerCount: 2
UndoRedoHistory
Layer: 1
Undoes
EndUndoes
Redoes
EndRedoes
EndUndoRedoHistory
Fore
SplineSet
324 1185 m 0,0,1
 50 1185 50 1185 31 1456 c 1,2,-1
 176 1456 l 1,3,4
 179 1419 179 1419 191 1393.5 c 128,-1,5
 203 1368 203 1368 223.5 1354.5 c 128,-1,6
 244 1341 244 1341 268 1335.5 c 128,-1,7
 292 1330 292 1330 324 1330 c 0,8,9
 366 1330 366 1330 394.5 1340.5 c 128,-1,10
 423 1351 423 1351 443.5 1379.5 c 128,-1,11
 464 1408 464 1408 469 1456 c 1,12,-1
 612 1456 l 1,13,14
 593 1185 593 1185 324 1185 c 0,0,1
EndSplineSet
EndChar

StartChar: dotaccent
Encoding: 729 729 369
Width: 524
GlyphClass: 4
Flags: W
AnchorPoint: "Anchor-0" 255 1136 mark 0
LayerCount: 2
UndoRedoHistory
Layer: 1
Undoes
EndUndoes
Redoes
EndRedoes
EndUndoRedoHistory
Fore
SplineSet
168 1273 m 1,0,-1
 168 1456 l 1,1,-1
 356 1456 l 1,2,-1
 356 1273 l 1,3,-1
 168 1273 l 1,0,-1
EndSplineSet
EndChar

StartChar: ring
Encoding: 730 730 370
Width: 651
GlyphClass: 4
Flags: W
AnchorPoint: "Anchor-0" 316 1080 mark 0
LayerCount: 2
UndoRedoHistory
Layer: 1
Undoes
EndUndoes
Redoes
EndRedoes
EndUndoRedoHistory
Fore
SplineSet
327 1482 m 128,-1,1
 414 1482 414 1482 474 1424.5 c 128,-1,2
 534 1367 534 1367 534 1280 c 0,3,4
 534 1194 534 1194 473.5 1136 c 128,-1,5
 413 1078 413 1078 327 1078 c 0,6,7
 240 1078 240 1078 179.5 1136 c 128,-1,8
 119 1194 119 1194 119 1280 c 0,9,10
 119 1367 119 1367 179.5 1424.5 c 128,-1,0
 240 1482 240 1482 327 1482 c 128,-1,1
325 1389 m 128,-1,12
 281 1389 281 1389 250 1357 c 128,-1,13
 219 1325 219 1325 219 1280 c 128,-1,14
 219 1235 219 1235 250 1203 c 128,-1,15
 281 1171 281 1171 325 1171 c 128,-1,16
 369 1171 369 1171 400.5 1203 c 128,-1,17
 432 1235 432 1235 432 1280 c 128,-1,18
 432 1325 432 1325 400.5 1357 c 128,-1,11
 369 1389 369 1389 325 1389 c 128,-1,12
EndSplineSet
EndChar

StartChar: ogonek
Encoding: 731 731 371
Width: 508
GlyphClass: 4
Flags: W
AnchorPoint: "Anchor-2" 308 0 mark 0
LayerCount: 2
UndoRedoHistory
Layer: 1
Undoes
EndUndoes
Redoes
EndRedoes
EndUndoRedoHistory
Fore
SplineSet
35 -254 m 0,0,1
 35 -138 35 -138 180 -34 c 0,2,3
 221 -5 221 -5 265 17 c 1,4,-1
 376 12 l 1,5,6
 332 -16 332 -16 294 -57 c 128,-1,7
 256 -98 256 -98 232.5 -142 c 128,-1,8
 209 -186 209 -186 209 -220 c 0,9,10
 209 -295 209 -295 318 -295 c 0,11,12
 375 -295 375 -295 466 -269 c 1,13,-1
 466 -386 l 1,14,15
 366 -418 366 -418 268 -418 c 0,16,17
 244 -418 244 -418 222 -416 c 128,-1,18
 200 -414 200 -414 179 -409 c 128,-1,19
 158 -404 158 -404 139 -396.5 c 128,-1,20
 120 -389 120 -389 104 -379.5 c 128,-1,21
 88 -370 88 -370 75.5 -357 c 128,-1,22
 63 -344 63 -344 54 -328.5 c 128,-1,23
 45 -313 45 -313 40 -294 c 128,-1,24
 35 -275 35 -275 35 -254 c 0,0,1
EndSplineSet
EndChar

StartChar: tilde
Encoding: 732 732 372
Width: 690
GlyphClass: 4
Flags: W
AnchorPoint: "Anchor-0" 360 1094 mark 0
LayerCount: 2
UndoRedoHistory
Layer: 1
Undoes
EndUndoes
Redoes
EndRedoes
EndUndoRedoHistory
Fore
SplineSet
4 1166 m 1,0,1
 4 1281 4 1281 57 1351.5 c 128,-1,2
 110 1422 110 1422 199 1422 c 0,3,4
 235 1422 235 1422 279 1406.5 c 128,-1,5
 323 1391 323 1391 356.5 1372 c 128,-1,6
 390 1353 390 1353 426.5 1337 c 128,-1,7
 463 1321 463 1321 484 1320 c 0,8,9
 501 1319 501 1319 512.5 1323.5 c 128,-1,10
 524 1328 524 1328 532.5 1339.5 c 128,-1,11
 541 1351 541 1351 545.5 1371 c 128,-1,12
 550 1391 550 1391 551 1422 c 1,13,-1
 687 1422 l 1,14,15
 687 1338 687 1338 664 1279 c 128,-1,16
 641 1220 641 1220 596.5 1189.5 c 128,-1,17
 552 1159 552 1159 490 1161 c 0,18,19
 466 1162 466 1162 434 1172.5 c 128,-1,20
 402 1183 402 1183 371.5 1198 c 128,-1,21
 341 1213 341 1213 311.5 1227.5 c 128,-1,22
 282 1242 282 1242 254.5 1252.5 c 128,-1,23
 227 1263 227 1263 208 1263 c 0,24,25
 146 1263 146 1263 136 1166 c 1,26,-1
 4 1166 l 1,0,1
EndSplineSet
EndChar

StartChar: hungarumlaut
Encoding: 733 733 373
Width: 969
GlyphClass: 4
Flags: W
AnchorPoint: "Anchor-0" 336 1090 mark 0
LayerCount: 2
UndoRedoHistory
Layer: 1
Undoes
EndUndoes
Redoes
EndRedoes
EndUndoRedoHistory
Fore
SplineSet
405 1157 m 1,0,-1
 658 1551 l 1,1,-1
 890 1551 l 1,2,-1
 558 1157 l 1,3,-1
 405 1157 l 1,0,-1
65 1157 m 1,4,-1
 282 1551 l 1,5,-1
 505 1551 l 1,6,-1
 213 1157 l 1,7,-1
 65 1157 l 1,4,-1
EndSplineSet
EndChar

StartChar: dotaccentcmb
Encoding: 775 775 374
Width: 524
GlyphClass: 4
Flags: W
AnchorPoint: "Anchor-0" 254 1057 mark 0
LayerCount: 2
UndoRedoHistory
Layer: 1
Undoes
EndUndoes
Redoes
EndRedoes
EndUndoRedoHistory
Fore
SplineSet
170 1161 m 1,0,-1
 170 1344 l 1,1,-1
 358 1344 l 1,2,-1
 358 1161 l 1,3,-1
 170 1161 l 1,0,-1
EndSplineSet
EndChar

StartChar: dblgravecmb
Encoding: 783 783 375
Width: 969
GlyphClass: 4
Flags: W
AnchorPoint: "Anchor-0" 600 1090 mark 0
LayerCount: 2
UndoRedoHistory
Layer: 1
Undoes
EndUndoes
Redoes
EndRedoes
EndUndoRedoHistory
Fore
SplineSet
708 1174 m 1,0,-1
 423 1587 l 1,1,-1
 619 1587 l 1,2,-1
 846 1174 l 1,3,-1
 708 1174 l 1,0,-1
348 1174 m 1,4,-1
 32 1587 l 1,5,-1
 228 1587 l 1,6,-1
 488 1174 l 1,7,-1
 348 1174 l 1,4,-1
EndSplineSet
EndChar

StartChar: uni0311
Encoding: 785 785 376
Width: 629
GlyphClass: 4
Flags: W
AnchorPoint: "Anchor-0" 310 1136 mark 0
LayerCount: 2
UndoRedoHistory
Layer: 1
Undoes
EndUndoes
Redoes
EndRedoes
EndUndoRedoHistory
Fore
SplineSet
33 1190 m 1,0,1
 38 1253 38 1253 64.5 1304 c 128,-1,2
 91 1355 91 1355 131.5 1387 c 128,-1,3
 172 1419 172 1419 221 1436 c 128,-1,4
 270 1453 270 1453 322 1453 c 0,5,6
 373 1453 373 1453 419.5 1437 c 128,-1,7
 466 1421 466 1421 504 1389 c 128,-1,8
 542 1357 542 1357 566.5 1306 c 128,-1,9
 591 1255 591 1255 595 1190 c 1,10,-1
 475 1190 l 1,11,12
 469 1232 469 1232 445 1262 c 128,-1,13
 421 1292 421 1292 389 1305.5 c 128,-1,14
 357 1319 357 1319 320 1319 c 0,15,16
 261 1319 261 1319 213.5 1284.5 c 128,-1,17
 166 1250 166 1250 155 1190 c 1,18,-1
 33 1190 l 1,0,1
EndSplineSet
EndChar

StartChar: Omega
Encoding: 937 937 377
Width: 1603
GlyphClass: 2
Flags: W
LayerCount: 2
UndoRedoHistory
Layer: 1
Undoes
EndUndoes
Redoes
EndRedoes
EndUndoRedoHistory
Fore
SplineSet
91 0 m 1,0,-1
 68 158 l 1,1,-1
 386 158 l 1,2,3
 258 266 258 266 178 443.5 c 128,-1,4
 98 621 98 621 98 811 c 0,5,6
 98 1011 98 1011 189 1165 c 128,-1,7
 280 1319 280 1319 438 1400.5 c 128,-1,8
 596 1482 596 1482 795 1482 c 0,9,10
 998 1482 998 1482 1153 1392.5 c 128,-1,11
 1308 1303 1308 1303 1389.5 1150 c 128,-1,12
 1471 997 1471 997 1471 804 c 0,13,14
 1471 617 1471 617 1385.5 441 c 128,-1,15
 1300 265 1300 265 1177 158 c 1,16,-1
 1469 158 l 1,17,-1
 1453 0 l 1,18,-1
 908 0 l 1,19,-1
 908 145 l 1,20,21
 1058 247 1058 247 1154 424 c 128,-1,22
 1250 601 1250 601 1250 789 c 0,23,24
 1250 931 1250 931 1200 1045.5 c 128,-1,25
 1150 1160 1150 1160 1044.5 1231 c 128,-1,26
 939 1302 939 1302 792 1302 c 0,27,28
 583 1302 583 1302 451.5 1161.5 c 128,-1,29
 320 1021 320 1021 320 793 c 0,30,31
 320 603 320 603 413.5 423 c 128,-1,32
 507 243 507 243 657 145 c 1,33,-1
 657 0 l 1,34,-1
 91 0 l 1,0,-1
EndSplineSet
EndChar

StartChar: pi
Encoding: 960 960 378
Width: 1288
GlyphClass: 2
Flags: W
LayerCount: 2
UndoRedoHistory
Layer: 1
Undoes
EndUndoes
Redoes
EndRedoes
EndUndoRedoHistory
Fore
SplineSet
1057 -14 m 0,0,1
 938 -14 938 -14 879 54 c 128,-1,2
 820 122 820 122 820 272 c 2,3,-1
 820 871 l 1,4,-1
 518 871 l 1,5,6
 517 841 517 841 514 791.5 c 128,-1,7
 511 742 511 742 500 609 c 128,-1,8
 489 476 489 476 475 366.5 c 128,-1,9
 461 257 461 257 437.5 149 c 128,-1,10
 414 41 414 41 386 0 c 1,11,-1
 180 0 l 1,12,13
 299 188 299 188 330 871 c 1,14,15
 156 866 156 866 71 810 c 1,16,-1
 54 963 l 1,17,18
 130 1026 130 1026 356 1026 c 2,19,-1
 1214 1026 l 1,20,-1
 1214 871 l 1,21,-1
 1012 871 l 1,22,-1
 1012 293 l 2,23,24
 1012 263 1012 263 1014 244.5 c 128,-1,25
 1016 226 1016 226 1024 200.5 c 128,-1,26
 1032 175 1032 175 1053.5 162.5 c 128,-1,27
 1075 150 1075 150 1109 150 c 128,-1,28
 1143 150 1143 150 1189 163 c 1,29,30
 1186 103 1186 103 1186 86 c 0,31,32
 1186 41 1186 41 1198 0 c 1,33,34
 1118 -14 1118 -14 1057 -14 c 0,0,1
EndSplineSet
EndChar

StartChar: endash
Encoding: 8211 8211 401
Width: 1196
GlyphClass: 2
Flags: W
LayerCount: 2
UndoRedoHistory
Layer: 1
Undoes
EndUndoes
Redoes
EndRedoes
EndUndoRedoHistory
Fore
SplineSet
86 477 m 1,0,-1
 86 634 l 1,1,-1
 1110 634 l 1,2,-1
 1110 477 l 1,3,-1
 86 477 l 1,0,-1
EndSplineSet
EndChar

StartChar: emdash
Encoding: 8212 8212 402
Width: 2220
GlyphClass: 2
Flags: W
LayerCount: 2
UndoRedoHistory
Layer: 1
Undoes
EndUndoes
Redoes
EndRedoes
EndUndoRedoHistory
Fore
SplineSet
86 477 m 1,0,-1
 86 634 l 1,1,-1
 2134 634 l 1,2,-1
 2134 477 l 1,3,-1
 86 477 l 1,0,-1
EndSplineSet
EndChar

StartChar: uni2015
Encoding: 8213 8213 403
Width: 2220
GlyphClass: 2
Flags: W
LayerCount: 2
UndoRedoHistory
Layer: 1
Undoes
EndUndoes
Redoes
EndRedoes
EndUndoRedoHistory
Fore
SplineSet
86 477 m 1,0,-1
 86 634 l 1,1,-1
 2134 634 l 1,2,-1
 2134 477 l 1,3,-1
 86 477 l 1,0,-1
EndSplineSet
EndChar

StartChar: quoteleft
Encoding: 8216 8216 404
Width: 534
GlyphClass: 2
Flags: W
LayerCount: 2
UndoRedoHistory
Layer: 1
Undoes
EndUndoes
Redoes
EndRedoes
EndUndoRedoHistory
Fore
SplineSet
416 876 m 1,0,-1
 280 876 l 1,1,-1
 122 1456 l 1,2,-1
 370 1456 l 1,3,-1
 416 876 l 1,0,-1
EndSplineSet
EndChar

StartChar: quoteright
Encoding: 8217 8217 405
Width: 563
GlyphClass: 2
Flags: W
LayerCount: 2
UndoRedoHistory
Layer: 1
Undoes
EndUndoes
Redoes
EndRedoes
EndUndoRedoHistory
Fore
SplineSet
118 877 m 1,0,-1
 196 1456 l 1,1,-1
 441 1456 l 1,2,-1
 269 877 l 1,3,-1
 118 877 l 1,0,-1
EndSplineSet
EndChar

StartChar: quotesinglbase
Encoding: 8218 8218 406
Width: 623
GlyphClass: 2
Flags: W
LayerCount: 2
UndoRedoHistory
Layer: 1
Undoes
EndUndoes
Redoes
EndRedoes
EndUndoRedoHistory
Fore
SplineSet
142 -316 m 1,0,-1
 252 231 l 1,1,-1
 472 231 l 1,2,-1
 316 -316 l 1,3,-1
 142 -316 l 1,0,-1
EndSplineSet
EndChar

StartChar: quotedblleft
Encoding: 8220 8220 407
Width: 1024
GlyphClass: 2
Flags: W
LayerCount: 2
UndoRedoHistory
Layer: 1
Undoes
EndUndoes
Redoes
EndRedoes
EndUndoRedoHistory
Fore
SplineSet
560 876 m 1,0,-1
 726 1456 l 1,1,-1
 897 1456 l 1,2,-1
 788 876 l 1,3,-1
 560 876 l 1,0,-1
154 876 m 1,4,-1
 328 1456 l 1,5,-1
 498 1456 l 1,6,-1
 388 876 l 1,7,-1
 154 876 l 1,4,-1
EndSplineSet
EndChar

StartChar: quotedblright
Encoding: 8221 8221 408
Width: 1024
GlyphClass: 2
Flags: W
LayerCount: 2
UndoRedoHistory
Layer: 1
Undoes
EndUndoes
Redoes
EndRedoes
EndUndoRedoHistory
Fore
SplineSet
563 876 m 1,0,-1
 672 1456 l 1,1,-1
 898 1456 l 1,2,-1
 736 876 l 1,3,-1
 563 876 l 1,0,-1
193 876 m 1,4,-1
 299 1456 l 1,5,-1
 527 1456 l 1,6,-1
 364 876 l 1,7,-1
 193 876 l 1,4,-1
EndSplineSet
EndChar

StartChar: quotedblbase
Encoding: 8222 8222 409
Width: 1024
GlyphClass: 2
Flags: W
LayerCount: 2
UndoRedoHistory
Layer: 1
Undoes
EndUndoes
Redoes
EndRedoes
EndUndoRedoHistory
Fore
SplineSet
512 -230 m 1,0,-1
 620 231 l 1,1,-1
 847 231 l 1,2,-1
 686 -230 l 1,3,-1
 512 -230 l 1,0,-1
133 -230 m 1,4,-1
 241 231 l 1,5,-1
 468 231 l 1,6,-1
 310 -230 l 1,7,-1
 133 -230 l 1,4,-1
EndSplineSet
EndChar

StartChar: dagger
Encoding: 8224 8224 410
Width: 1022
GlyphClass: 2
Flags: W
LayerCount: 2
UndoRedoHistory
Layer: 1
Undoes
EndUndoes
Redoes
EndRedoes
EndUndoRedoHistory
Fore
SplineSet
443 0 m 1,0,-1
 443 882 l 1,1,-1
 117 882 l 1,2,-1
 117 1026 l 1,3,-1
 443 1026 l 1,4,-1
 443 1454 l 1,5,-1
 613 1454 l 1,6,-1
 613 1026 l 1,7,-1
 949 1026 l 1,8,-1
 949 882 l 1,9,-1
 606 882 l 1,10,-1
 606 0 l 1,11,-1
 443 0 l 1,0,-1
EndSplineSet
EndChar

StartChar: daggerdbl
Encoding: 8225 8225 411
Width: 1114
GlyphClass: 2
Flags: W
LayerCount: 2
UndoRedoHistory
Layer: 1
Undoes
EndUndoes
Redoes
EndRedoes
EndUndoRedoHistory
Fore
SplineSet
472 0 m 1,0,-1
 472 398 l 1,1,-1
 132 398 l 1,2,-1
 132 517 l 1,3,-1
 472 517 l 1,4,-1
 472 901 l 1,5,-1
 136 901 l 1,6,-1
 136 1026 l 1,7,-1
 472 1026 l 1,8,-1
 472 1456 l 1,9,-1
 650 1456 l 1,10,-1
 650 1026 l 1,11,-1
 984 1026 l 1,12,-1
 984 901 l 1,13,-1
 650 901 l 1,14,-1
 650 517 l 1,15,-1
 976 517 l 1,16,-1
 976 398 l 1,17,-1
 650 398 l 1,18,-1
 650 0 l 1,19,-1
 472 0 l 1,0,-1
EndSplineSet
EndChar

StartChar: bullet
Encoding: 8226 8226 412
Width: 989
GlyphClass: 2
Flags: W
LayerCount: 2
UndoRedoHistory
Layer: 1
Undoes
EndUndoes
Redoes
EndRedoes
EndUndoRedoHistory
Fore
SplineSet
503 372 m 0,0,1
 359 372 359 372 266 464.5 c 128,-1,2
 173 557 173 557 173 688 c 0,3,4
 173 820 173 820 269 915 c 128,-1,5
 365 1010 365 1010 503 1010 c 0,6,7
 645 1010 645 1010 741 914.5 c 128,-1,8
 837 819 837 819 837 688 c 128,-1,9
 837 557 837 557 740 464.5 c 128,-1,10
 643 372 643 372 503 372 c 0,0,1
EndSplineSet
EndChar

StartChar: ellipsis
Encoding: 8230 8230 413
Width: 1620
GlyphClass: 2
Flags: W
LayerCount: 2
UndoRedoHistory
Layer: 1
Undoes
EndUndoes
Redoes
EndRedoes
EndUndoRedoHistory
Fore
SplineSet
1198 -11 m 1,0,-1
 1198 229 l 1,1,-1
 1456 229 l 1,2,-1
 1456 -11 l 1,3,-1
 1198 -11 l 1,0,-1
668 -11 m 1,4,-1
 668 229 l 1,5,-1
 926 229 l 1,6,-1
 927 -11 l 1,7,-1
 668 -11 l 1,4,-1
137 -11 m 1,8,-1
 137 229 l 1,9,-1
 396 229 l 1,10,-1
 396 -11 l 1,11,-1
 137 -11 l 1,8,-1
EndSplineSet
EndChar

StartChar: perthousand
Encoding: 8240 8240 414
Width: 2629
GlyphClass: 2
Flags: W
LayerCount: 2
UndoRedoHistory
Layer: 1
Undoes
EndUndoes
Redoes
EndRedoes
EndUndoRedoHistory
Fore
SplineSet
1360 -24 m 128,-1,1
 1198 -24 1198 -24 1104.5 81.5 c 128,-1,2
 1011 187 1011 187 1011 351 c 0,3,4
 1011 512 1011 512 1106 619.5 c 128,-1,5
 1201 727 1201 727 1363 727 c 0,6,7
 1526 727 1526 727 1619 621 c 128,-1,8
 1712 515 1712 515 1712 352 c 0,9,10
 1712 188 1712 188 1617 82 c 128,-1,0
 1522 -24 1522 -24 1360 -24 c 128,-1,1
1362 111 m 128,-1,12
 1536 111 1536 111 1536 352 c 128,-1,13
 1536 593 1536 593 1363 593 c 0,14,15
 1188 593 1188 593 1188 350 c 0,16,11
 1188 111 1188 111 1362 111 c 128,-1,12
361 0 m 1,17,-1
 1283 1456 l 1,18,-1
 1457 1456 l 1,19,-1
 534 0 l 1,20,-1
 361 0 l 1,17,-1
443 730 m 0,21,22
 277 730 277 730 185 831.5 c 128,-1,23
 93 933 93 933 93 1104 c 0,24,25
 93 1271 93 1271 187 1375.5 c 128,-1,26
 281 1480 281 1480 445 1480 c 0,27,28
 610 1480 610 1480 702.5 1377 c 128,-1,29
 795 1274 795 1274 795 1105 c 0,30,31
 795 935 795 935 701 832.5 c 128,-1,32
 607 730 607 730 443 730 c 0,21,22
444 864 m 128,-1,34
 618 864 618 864 618 1106 c 0,35,36
 618 1346 618 1346 445 1346 c 0,37,38
 270 1346 270 1346 270 1104 c 0,39,33
 270 864 270 864 444 864 c 128,-1,34
2186 111 m 0,40,41
 2360 111 2360 111 2360 352 c 0,42,43
 2360 468 2360 468 2319.5 530 c 128,-1,44
 2279 592 2279 592 2187 592 c 0,45,46
 2012 592 2012 592 2012 350 c 0,47,48
 2012 232 2012 232 2053.5 171.5 c 128,-1,49
 2095 111 2095 111 2186 111 c 0,40,41
2185 -24 m 0,50,51
 2076 -24 2076 -24 1995.5 26 c 128,-1,52
 1915 76 1915 76 1875 160 c 128,-1,53
 1835 244 1835 244 1835 350 c 0,54,55
 1835 402 1835 402 1845.5 450 c 128,-1,56
 1856 498 1856 498 1876.5 540 c 128,-1,57
 1897 582 1897 582 1927.5 616.5 c 128,-1,58
 1958 651 1958 651 1996.5 675.5 c 128,-1,59
 2035 700 2035 700 2083.5 713.5 c 128,-1,60
 2132 727 2132 727 2187 727 c 0,61,62
 2253 727 2253 727 2309.5 708 c 128,-1,63
 2366 689 2366 689 2407.5 655 c 128,-1,64
 2449 621 2449 621 2478 574.5 c 128,-1,65
 2507 528 2507 528 2522 471.5 c 128,-1,66
 2537 415 2537 415 2537 352 c 0,67,68
 2537 177 2537 177 2432 72 c 0,69,70
 2336 -23 2336 -23 2185 -24 c 0,50,51
EndSplineSet
EndChar

StartChar: guilsinglleft
Encoding: 8249 8249 415
Width: 698
GlyphClass: 2
Flags: W
LayerCount: 2
UndoRedoHistory
Layer: 1
Undoes
EndUndoes
Redoes
EndRedoes
EndUndoRedoHistory
Fore
SplineSet
411 165 m 1,0,-1
 138 541 l 1,1,-1
 417 918 l 1,2,-1
 592 918 l 1,3,-1
 347 541 l 1,4,-1
 584 165 l 1,5,-1
 411 165 l 1,0,-1
EndSplineSet
EndChar

StartChar: guilsinglright
Encoding: 8250 8250 416
Width: 698
GlyphClass: 2
Flags: W
LayerCount: 2
UndoRedoHistory
Layer: 1
Undoes
EndUndoes
Redoes
EndRedoes
EndUndoRedoHistory
Fore
SplineSet
317 917 m 1,0,-1
 590 541 l 1,1,-1
 312 164 l 1,2,-1
 137 164 l 1,3,-1
 381 542 l 1,4,-1
 145 917 l 1,5,-1
 317 917 l 1,0,-1
EndSplineSet
EndChar

StartChar: fraction
Encoding: 8260 8260 417
Width: 1092
GlyphClass: 2
Flags: W
LayerCount: 2
UndoRedoHistory
Layer: 1
Undoes
EndUndoes
Redoes
EndRedoes
EndUndoRedoHistory
Fore
SplineSet
30 0 m 1,0,-1
 925 1456 l 1,1,-1
 1123 1456 l 1,2,-1
 229 0 l 1,3,-1
 30 0 l 1,0,-1
EndSplineSet
EndChar

StartChar: uni2074
Encoding: 8308 8308 418
Width: 1234
GlyphClass: 2
Flags: W
LayerCount: 2
UndoRedoHistory
Layer: 1
Undoes
EndUndoes
Redoes
EndRedoes
EndUndoRedoHistory
Fore
SplineSet
480 959 m 1,0,-1
 702 959 l 1,1,-1
 702 1272 l 1,2,-1
 480 959 l 1,0,-1
704 655 m 1,3,-1
 704 844 l 1,4,-1
 328 844 l 1,5,-1
 328 942 l 1,6,-1
 695 1456 l 1,7,-1
 843 1456 l 1,8,-1
 843 959 l 1,9,-1
 955 959 l 1,10,-1
 955 844 l 1,11,-1
 842 844 l 1,12,-1
 842 655 l 1,13,-1
 704 655 l 1,3,-1
EndSplineSet
EndChar

StartChar: Euro
Encoding: 8364 8364 419
Width: 1517
GlyphClass: 2
Flags: W
LayerCount: 2
UndoRedoHistory
Layer: 1
Undoes
EndUndoes
Redoes
EndRedoes
EndUndoRedoHistory
Fore
SplineSet
976 -22 m 0,0,1
 863 -22 863 -22 758 7.5 c 128,-1,2
 653 37 653 37 561.5 98 c 128,-1,3
 470 159 470 159 402 245.5 c 128,-1,4
 334 332 334 332 294 454 c 0,5,6
 287 476 287 476 281 499 c 1,7,-1
 116 499 l 1,8,-1
 140 636 l 1,9,-1
 259 636 l 1,10,11
 255 677 255 677 255 720 c 0,12,13
 255 757 255 757 258 793 c 1,14,-1
 112 793 l 1,15,-1
 139 926 l 1,16,-1
 278 926 l 1,17,18
 290 980 290 980 310 1032 c 0,19,20
 366 1176 366 1176 461.5 1274 c 128,-1,21
 557 1372 557 1372 687 1427 c 128,-1,22
 817 1482 817 1482 964 1482 c 0,23,24
 1245 1482 1245 1482 1432 1330 c 1,25,-1
 1348 1184 l 1,26,27
 1186 1302 1186 1302 982 1302 c 0,28,29
 832 1302 832 1302 716.5 1224 c 128,-1,30
 601 1146 601 1146 540 1014 c 0,31,32
 520 971 520 971 507 926 c 1,33,-1
 1075 926 l 1,34,-1
 1052 793 l 1,35,-1
 482 793 l 1,36,37
 479 758 479 758 479 722 c 0,38,39
 479 677 479 677 483 636 c 1,40,-1
 1043 636 l 1,41,-1
 1021 499 l 1,42,-1
 511 499 l 1,43,44
 548 390 548 390 622 310 c 0,45,46
 764 158 764 158 988 158 c 0,47,48
 1202 158 1202 158 1396 306 c 1,49,-1
 1467 135 l 1,50,51
 1257 -22 1257 -22 976 -22 c 0,0,1
EndSplineSet
EndChar

StartChar: trademark
Encoding: 8482 8482 420
Width: 1869
GlyphClass: 2
Flags: W
LayerCount: 2
UndoRedoHistory
Layer: 1
Undoes
EndUndoes
Redoes
EndRedoes
EndUndoRedoHistory
Fore
SplineSet
314 680 m 1,0,-1
 314 1319 l 1,1,-1
 72 1319 l 1,2,-1
 72 1455 l 1,3,-1
 708 1455 l 1,4,-1
 708 1319 l 1,5,-1
 472 1319 l 1,6,-1
 472 680 l 1,7,-1
 314 680 l 1,0,-1
829 680 m 1,8,-1
 829 1455 l 1,9,-1
 1004 1455 l 1,10,-1
 1253 890 l 1,11,-1
 1505 1455 l 1,12,-1
 1676 1455 l 1,13,-1
 1676 680 l 1,14,-1
 1536 680 l 1,15,-1
 1536 1225 l 1,16,-1
 1300 680 l 1,17,-1
 1201 680 l 1,18,-1
 966 1218 l 1,19,-1
 966 680 l 1,20,-1
 829 680 l 1,8,-1
EndSplineSet
EndChar

StartChar: partialdiff
Encoding: 8706 8706 421
Width: 1162
GlyphClass: 2
Flags: W
LayerCount: 2
UndoRedoHistory
Layer: 1
Undoes
EndUndoes
Redoes
EndRedoes
EndUndoRedoHistory
Fore
SplineSet
486 144 m 0,0,1
 628 144 628 144 717 272 c 128,-1,2
 806 400 806 400 838 650 c 1,3,4
 808 728 808 728 743 783 c 128,-1,5
 678 838 678 838 596 838 c 0,6,7
 462 838 462 838 368.5 714 c 128,-1,8
 275 590 275 590 275 420 c 0,9,10
 275 295 275 295 332 219.5 c 128,-1,11
 389 144 389 144 486 144 c 0,0,1
485 -24 m 0,12,13
 350 -24 350 -24 254 36 c 128,-1,14
 158 96 158 96 111.5 195.5 c 128,-1,15
 65 295 65 295 65 424 c 0,16,17
 65 583 65 583 134 716 c 128,-1,18
 203 849 203 849 321 925.5 c 128,-1,19
 439 1002 439 1002 579 1002 c 0,20,21
 682 1002 682 1002 755.5 955.5 c 128,-1,22
 829 909 829 909 855 851 c 1,23,24
 855 937 855 937 854 941 c 0,25,26
 850 1130 850 1130 769.5 1239.5 c 128,-1,27
 689 1349 689 1349 555 1349 c 0,28,29
 407 1349 407 1349 267 1263 c 1,30,-1
 254 1417 l 1,31,32
 319 1462 319 1462 403.5 1488.5 c 128,-1,33
 488 1515 488 1515 574 1515 c 0,34,35
 810 1515 810 1515 939 1347.5 c 128,-1,36
 1068 1180 1068 1180 1068 838 c 0,37,38
 1068 708 1068 708 1045.5 584.5 c 128,-1,39
 1023 461 1023 461 975.5 350.5 c 128,-1,40
 928 240 928 240 860 157 c 128,-1,41
 792 74 792 74 695.5 25 c 128,-1,42
 599 -24 599 -24 485 -24 c 0,12,13
EndSplineSet
EndChar

StartChar: uni2206
Encoding: 8710 8710 422
Width: 1310
GlyphClass: 2
Flags: W
LayerCount: 2
UndoRedoHistory
Layer: 1
Undoes
EndUndoes
Redoes
EndRedoes
EndUndoRedoHistory
Fore
SplineSet
283 158 m 1,0,-1
 1020 158 l 1,1,-1
 650 1191 l 1,2,-1
 283 158 l 1,0,-1
60 0 m 1,3,-1
 60 93 l 1,4,-1
 563 1414 l 1,5,-1
 747 1414 l 1,6,-1
 1247 93 l 1,7,-1
 1247 0 l 1,8,-1
 60 0 l 1,3,-1
EndSplineSet
EndChar

StartChar: product
Encoding: 8719 8719 423
Width: 1568
GlyphClass: 2
Flags: W
LayerCount: 2
UndoRedoHistory
Layer: 1
Undoes
EndUndoes
Redoes
EndRedoes
EndUndoRedoHistory
Fore
SplineSet
271 -100 m 1,0,-1
 271 1283 l 1,1,-1
 111 1283 l 1,2,-1
 111 1456 l 1,3,-1
 1431 1456 l 1,4,-1
 1431 1283 l 1,5,-1
 1292 1283 l 1,6,-1
 1292 -100 l 1,7,-1
 1073 -100 l 1,8,-1
 1073 1283 l 1,9,-1
 485 1283 l 1,10,-1
 485 -100 l 1,11,-1
 271 -100 l 1,0,-1
EndSplineSet
EndChar

StartChar: summation
Encoding: 8721 8721 424
Width: 1215
GlyphClass: 2
Flags: W
LayerCount: 2
UndoRedoHistory
Layer: 1
Undoes
EndUndoes
Redoes
EndRedoes
EndUndoRedoHistory
Fore
SplineSet
139 -113 m 1,0,-1
 139 -5 l 1,1,-1
 632 678 l 1,2,-1
 160 1349 l 1,3,-1
 160 1456 l 1,4,-1
 1062 1456 l 1,5,-1
 1062 1291 l 1,6,-1
 413 1291 l 1,7,-1
 853 683 l 1,8,-1
 391 57 l 1,9,-1
 1104 57 l 1,10,-1
 1104 -113 l 1,11,-1
 139 -113 l 1,0,-1
EndSplineSet
EndChar

StartChar: minus
Encoding: 8722 8722 425
Width: 1356
GlyphClass: 2
Flags: W
LayerCount: 2
UndoRedoHistory
Layer: 1
Undoes
EndUndoes
Redoes
EndRedoes
EndUndoRedoHistory
Fore
SplineSet
183 392 m 1,0,-1
 183 560 l 1,1,-1
 1174 560 l 1,2,-1
 1174 392 l 1,3,-1
 183 392 l 1,0,-1
EndSplineSet
EndChar

StartChar: radical
Encoding: 8730 8730 428
Width: 1314
GlyphClass: 2
Flags: W
LayerCount: 2
UndoRedoHistory
Layer: 1
Undoes
EndUndoes
Redoes
EndRedoes
EndUndoRedoHistory
Fore
SplineSet
675 -148 m 1,0,-1
 357 663 l 1,1,-1
 190 634 l 1,2,-1
 158 779 l 1,3,-1
 490 835 l 1,4,-1
 744 151 l 1,5,-1
 1125 1575 l 1,6,-1
 1304 1575 l 1,7,-1
 845 -148 l 1,8,-1
 675 -148 l 1,0,-1
EndSplineSet
EndChar

StartChar: infinity
Encoding: 8734 8734 429
Width: 1732
GlyphClass: 2
Flags: W
LayerCount: 2
UndoRedoHistory
Layer: 1
Undoes
EndUndoes
Redoes
EndRedoes
EndUndoRedoHistory
Fore
SplineSet
1272 370 m 0,0,1
 1377 370 1377 370 1429 439.5 c 128,-1,2
 1481 509 1481 509 1481 623 c 0,3,4
 1481 707 1481 707 1421.5 765.5 c 128,-1,5
 1362 824 1362 824 1266 824 c 0,6,7
 1177 824 1177 824 1094.5 760.5 c 128,-1,8
 1012 697 1012 697 943 597 c 1,9,10
 1037 478 1037 478 1111 424 c 128,-1,11
 1185 370 1185 370 1272 370 c 0,0,1
473 370 m 0,12,13
 562 370 562 370 641 430 c 128,-1,14
 720 490 720 490 796 594 c 1,15,16
 721 702 721 702 640 763 c 128,-1,17
 559 824 559 824 463 824 c 0,18,19
 422 824 422 824 386.5 812.5 c 128,-1,20
 351 801 351 801 325.5 780 c 128,-1,21
 300 759 300 759 282 730.5 c 128,-1,22
 264 702 264 702 255 668 c 128,-1,23
 246 634 246 634 246 597 c 0,24,25
 246 554 246 554 262 513 c 128,-1,26
 278 472 278 472 306.5 440 c 128,-1,27
 335 408 335 408 378.5 389 c 128,-1,28
 422 370 422 370 473 370 c 0,12,13
463 234 m 0,29,30
 357 234 357 234 272 287 c 128,-1,31
 187 340 187 340 141.5 427.5 c 128,-1,32
 96 515 96 515 96 619 c 0,33,34
 96 711 96 711 146.5 790 c 128,-1,35
 197 869 197 869 280.5 914 c 128,-1,36
 364 959 364 959 458 959 c 0,37,38
 538 959 538 959 612 927 c 128,-1,39
 686 895 686 895 747 841 c 128,-1,40
 808 787 808 787 869 705 c 1,41,42
 959 829 959 829 1055.5 894 c 128,-1,43
 1152 959 1152 959 1272 959 c 0,44,45
 1436 959 1436 959 1535 858.5 c 128,-1,46
 1634 758 1634 758 1634 600 c 0,47,48
 1634 521 1634 521 1604.5 451.5 c 128,-1,49
 1575 382 1575 382 1525 335 c 128,-1,50
 1475 288 1475 288 1408.5 261 c 128,-1,51
 1342 234 1342 234 1270 234 c 0,52,53
 1159 234 1159 234 1063.5 295 c 128,-1,54
 968 356 968 356 867 487 c 1,55,56
 806 407 806 407 746.5 353.5 c 128,-1,57
 687 300 687 300 614 267 c 128,-1,58
 541 234 541 234 463 234 c 0,29,30
EndSplineSet
EndChar

StartChar: integral
Encoding: 8747 8747 430
Width: 772
GlyphClass: 2
Flags: W
LayerCount: 2
UndoRedoHistory
Layer: 1
Undoes
EndUndoes
Redoes
EndRedoes
EndUndoRedoHistory
Fore
SplineSet
200 -311 m 0,0,1
 157 -311 157 -311 118.5 -305 c 128,-1,2
 80 -299 80 -299 63 -294 c 2,3,-1
 46 -288 l 1,4,-1
 46 -129 l 1,5,6
 135 -145 135 -145 192 -145 c 0,7,8
 270 -145 270 -145 296.5 -100 c 128,-1,9
 323 -55 323 -55 323 47 c 2,10,-1
 323 1179 l 2,11,12
 323 1266 323 1266 336.5 1331.5 c 128,-1,13
 350 1397 350 1397 381 1450 c 128,-1,14
 412 1503 412 1503 470 1531 c 128,-1,15
 528 1559 528 1559 611 1559 c 0,16,17
 651 1559 651 1559 689 1553.5 c 128,-1,18
 727 1548 727 1548 745 1542 c 2,19,-1
 763 1536 l 1,20,-1
 763 1374 l 1,21,22
 701 1393 701 1393 644 1393 c 0,23,24
 564 1393 564 1393 537 1348 c 128,-1,25
 510 1303 510 1303 510 1201 c 2,26,-1
 510 69 l 2,27,28
 510 -107 510 -107 436.5 -209 c 128,-1,29
 363 -311 363 -311 200 -311 c 0,0,1
EndSplineSet
EndChar

StartChar: approxequal
Encoding: 8776 8776 431
Width: 1351
GlyphClass: 2
Flags: W
LayerCount: 2
UndoRedoHistory
Layer: 1
Undoes
EndUndoes
Redoes
EndRedoes
EndUndoRedoHistory
Fore
SplineSet
329 657 m 1,0,-1
 169 692 l 1,1,2
 198 822 198 822 280.5 896.5 c 128,-1,3
 363 971 363 971 484 971 c 0,4,5
 546 971 546 971 604 949.5 c 128,-1,6
 662 928 662 928 737 884 c 0,7,8
 861 812 861 812 921 812 c 0,9,10
 971 812 971 812 1007 853.5 c 128,-1,11
 1043 895 1043 895 1072 977 c 1,12,-1
 1223 940 l 1,13,14
 1193 808 1193 808 1116.5 735 c 128,-1,15
 1040 662 1040 662 916 662 c 0,16,17
 851 662 851 662 789.5 684 c 128,-1,18
 728 706 728 706 644 756 c 0,19,20
 534 821 534 821 481 821 c 0,21,22
 378 821 378 821 329 657 c 1,0,-1
328 244 m 1,23,-1
 171 286 l 1,24,25
 205 416 205 416 286.5 490 c 128,-1,26
 368 564 368 564 486 564 c 0,27,28
 587 564 587 564 747 477 c 1,29,30
 770 467 770 467 811 445.5 c 128,-1,31
 852 424 852 424 877.5 414 c 128,-1,32
 903 404 903 404 922 404 c 0,33,34
 972 404 972 404 1007.5 445.5 c 128,-1,35
 1043 487 1043 487 1073 569 c 1,36,-1
 1225 531 l 1,37,38
 1158 253 1158 253 917 253 c 0,39,40
 812 253 812 253 648 350 c 1,41,42
 536 411 536 411 485 411 c 0,43,44
 372 411 372 411 328 244 c 1,23,-1
EndSplineSet
EndChar

StartChar: notequal
Encoding: 8800 8800 432
Width: 1369
GlyphClass: 2
Flags: W
LayerCount: 2
UndoRedoHistory
Layer: 1
Undoes
EndUndoes
Redoes
EndRedoes
EndUndoRedoHistory
Fore
SplineSet
495 41 m 1,0,-1
 337 65 l 1,1,-1
 457 313 l 1,2,-1
 172 313 l 1,3,-1
 172 466 l 1,4,-1
 535 466 l 1,5,-1
 657 701 l 1,6,-1
 172 701 l 1,7,-1
 172 855 l 1,8,-1
 731 855 l 1,9,-1
 862 1123 l 1,10,-1
 1025 1099 l 1,11,-1
 904 855 l 1,12,-1
 1217 855 l 1,13,-1
 1217 701 l 1,14,-1
 831 701 l 1,15,-1
 706 466 l 1,16,-1
 1217 466 l 1,17,-1
 1217 313 l 1,18,-1
 630 313 l 1,19,-1
 495 41 l 1,0,-1
EndSplineSet
EndChar

StartChar: lessequal
Encoding: 8804 8804 433
Width: 1350
GlyphClass: 2
Flags: W
LayerCount: 2
UndoRedoHistory
Layer: 1
Undoes
EndUndoes
Redoes
EndRedoes
EndUndoRedoHistory
Fore
SplineSet
146 0 m 1,0,-1
 146 143 l 1,1,-1
 1152 143 l 1,2,-1
 1152 0 l 1,3,-1
 146 0 l 1,0,-1
1132 230 m 1,4,-1
 161 698 l 1,5,-1
 161 800 l 1,6,-1
 1137 1259 l 1,7,-1
 1137 1069 l 1,8,-1
 425 748 l 1,9,-1
 1132 417 l 1,10,-1
 1132 230 l 1,4,-1
EndSplineSet
EndChar

StartChar: greaterequal
Encoding: 8805 8805 434
Width: 1350
GlyphClass: 2
Flags: W
LayerCount: 2
UndoRedoHistory
Layer: 1
Undoes
EndUndoes
Redoes
EndRedoes
EndUndoRedoHistory
Fore
SplineSet
171 1259 m 1,0,-1
 1142 790 l 1,1,-1
 1142 688 l 1,2,-1
 167 229 l 1,3,-1
 167 420 l 1,4,-1
 878 740 l 1,5,-1
 171 1071 l 1,6,-1
 171 1259 l 1,0,-1
158 0 m 1,7,-1
 158 143 l 1,8,-1
 1164 143 l 1,9,-1
 1164 0 l 1,10,-1
 158 0 l 1,7,-1
EndSplineSet
EndChar

StartChar: lozenge
Encoding: 9674 9674 435
Width: 1248
GlyphClass: 2
Flags: W
LayerCount: 2
UndoRedoHistory
Layer: 1
Undoes
EndUndoes
Redoes
EndRedoes
EndUndoRedoHistory
Fore
SplineSet
537 -40 m 1,0,-1
 92 707 l 1,1,-1
 544 1456 l 1,2,-1
 678 1456 l 1,3,-1
 1126 708 l 1,4,-1
 670 -40 l 1,5,-1
 537 -40 l 1,0,-1
604 163 m 1,6,-1
 928 707 l 1,7,-1
 612 1242 l 1,8,-1
 288 707 l 1,9,-1
 604 163 l 1,6,-1
EndSplineSet
EndChar

StartChar: uniFB00
Encoding: 64256 64256 436
Width: 1385
GlyphClass: 2
Flags: W
LayerCount: 2
UndoRedoHistory
Layer: 1
Undoes
EndUndoes
Redoes
EndRedoes
EndUndoRedoHistory
Fore
SplineSet
904 0 m 1,0,-1
 904 901 l 1,1,-1
 441 901 l 1,2,-1
 441 0 l 1,3,-1
 252 0 l 1,4,-1
 252 901 l 1,5,-1
 69 901 l 1,6,-1
 69 1026 l 1,7,-1
 252 1026 l 1,8,-1
 252 1101 l 2,9,10
 252 1173 252 1173 257 1221 c 128,-1,11
 262 1269 262 1269 276.5 1316 c 128,-1,12
 291 1363 291 1363 318 1391 c 128,-1,13
 345 1419 345 1419 389 1441 c 128,-1,14
 433 1463 433 1463 497 1472.5 c 128,-1,15
 561 1482 561 1482 649 1482 c 2,16,-1
 697 1482 l 1,17,-1
 694 1335 l 1,18,19
 634 1335 634 1335 593.5 1331.5 c 128,-1,20
 553 1328 553 1328 524 1316.5 c 128,-1,21
 495 1305 495 1305 479 1291.5 c 128,-1,22
 463 1278 463 1278 454.5 1250.5 c 128,-1,23
 446 1223 446 1223 443.5 1194.5 c 128,-1,24
 441 1166 441 1166 441 1118 c 2,25,-1
 441 1026 l 1,26,-1
 904 1026 l 1,27,-1
 904 1101 l 2,28,29
 904 1173 904 1173 909 1221 c 128,-1,30
 914 1269 914 1269 928.5 1316 c 128,-1,31
 943 1363 943 1363 970 1391 c 128,-1,32
 997 1419 997 1419 1041 1441 c 128,-1,33
 1085 1463 1085 1463 1149 1472.5 c 128,-1,34
 1213 1482 1213 1482 1301 1482 c 2,35,-1
 1349 1482 l 1,36,-1
 1346 1335 l 1,37,38
 1286 1335 1286 1335 1245.5 1331.5 c 128,-1,39
 1205 1328 1205 1328 1176 1316.5 c 128,-1,40
 1147 1305 1147 1305 1131 1291.5 c 128,-1,41
 1115 1278 1115 1278 1106.5 1250.5 c 128,-1,42
 1098 1223 1098 1223 1095.5 1194.5 c 128,-1,43
 1093 1166 1093 1166 1093 1118 c 2,44,-1
 1093 1026 l 1,45,-1
 1337 1026 l 1,46,-1
 1337 901 l 1,47,-1
 1093 901 l 1,48,-1
 1093 0 l 1,49,-1
 904 0 l 1,0,-1
EndSplineSet
EndChar

StartChar: uniFB01
Encoding: 64257 64257 437
Width: 1237
GlyphClass: 2
Flags: W
LayerCount: 2
UndoRedoHistory
Layer: 1
Undoes
EndUndoes
Redoes
EndRedoes
EndUndoRedoHistory
Fore
SplineSet
899 1270 m 1,0,-1
 899 1456 l 1,1,-1
 1101 1456 l 1,2,-1
 1101 1270 l 1,3,-1
 899 1270 l 1,0,-1
252 0 m 1,4,-1
 252 901 l 1,5,-1
 69 901 l 1,6,-1
 69 1026 l 1,7,-1
 252 1026 l 1,8,-1
 252 1101 l 2,9,10
 252 1173 252 1173 257 1221 c 128,-1,11
 262 1269 262 1269 276.5 1316 c 128,-1,12
 291 1363 291 1363 318 1391 c 128,-1,13
 345 1419 345 1419 389 1441 c 128,-1,14
 433 1463 433 1463 497 1472.5 c 128,-1,15
 561 1482 561 1482 649 1482 c 2,16,-1
 697 1482 l 1,17,-1
 694 1335 l 1,18,19
 634 1335 634 1335 593.5 1331.5 c 128,-1,20
 553 1328 553 1328 524 1316.5 c 128,-1,21
 495 1305 495 1305 479 1291.5 c 128,-1,22
 463 1278 463 1278 454.5 1250.5 c 128,-1,23
 446 1223 446 1223 443.5 1194.5 c 128,-1,24
 441 1166 441 1166 441 1118 c 2,25,-1
 441 1026 l 1,26,-1
 897 1026 l 1,27,-1
 916 1026 l 1,28,-1
 1101 1026 l 1,29,-1
 1101 0 l 1,30,-1
 897 0 l 1,31,-1
 897 901 l 1,32,-1
 441 901 l 1,33,-1
 441 0 l 1,34,-1
 252 0 l 1,4,-1
EndSplineSet
EndChar

StartChar: uniFB02
Encoding: 64258 64258 438
Width: 1274
GlyphClass: 2
Flags: W
LayerCount: 2
UndoRedoHistory
Layer: 1
Undoes
EndUndoes
Redoes
EndRedoes
EndUndoRedoHistory
Fore
SplineSet
454 901 m 1,0,-1
 454 0 l 1,1,-1
 266 0 l 1,2,-1
 266 901 l 1,3,-1
 69 901 l 1,4,-1
 69 1026 l 1,5,-1
 266 1026 l 1,6,-1
 266 1093 l 2,7,8
 266 1197 266 1197 285 1263.5 c 128,-1,9
 304 1330 304 1330 355 1377.5 c 128,-1,10
 406 1425 406 1425 494.5 1445 c 128,-1,11
 583 1465 583 1465 723 1465 c 2,12,-1
 1110 1465 l 1,13,-1
 1110 0 l 1,14,-1
 921 0 l 1,15,-1
 921 1319 l 1,16,-1
 738 1319 l 2,17,18
 646 1319 646 1319 591.5 1310 c 128,-1,19
 537 1301 537 1301 506 1277 c 128,-1,20
 475 1253 475 1253 464.5 1218.5 c 128,-1,21
 454 1184 454 1184 454 1125 c 2,22,-1
 454 1026 l 1,23,-1
 698 1026 l 1,24,-1
 698 901 l 1,25,-1
 454 901 l 1,0,-1
EndSplineSet
EndChar

StartChar: uniFB03
Encoding: 64259 64259 439
Width: 1863
GlyphClass: 2
Flags: W
LayerCount: 2
UndoRedoHistory
Layer: 1
Undoes
EndUndoes
Redoes
EndRedoes
EndUndoRedoHistory
Fore
SplineSet
1510 1282 m 1,0,-1
 1510 1456 l 1,1,-1
 1697 1456 l 1,2,-1
 1697 1282 l 1,3,-1
 1510 1282 l 1,0,-1
882 0 m 1,4,-1
 882 901 l 1,5,-1
 441 901 l 1,6,-1
 441 0 l 1,7,-1
 252 0 l 1,8,-1
 252 901 l 1,9,-1
 69 901 l 1,10,-1
 69 1026 l 1,11,-1
 252 1026 l 1,12,-1
 252 1100 l 2,13,14
 252 1172 252 1172 257 1220 c 128,-1,15
 262 1268 262 1268 276.5 1315 c 128,-1,16
 291 1362 291 1362 318 1390 c 128,-1,17
 345 1418 345 1418 389 1440 c 128,-1,18
 433 1462 433 1462 497 1471.5 c 128,-1,19
 561 1481 561 1481 649 1481 c 2,20,-1
 697 1481 l 1,21,-1
 694 1334 l 1,22,23
 634 1334 634 1334 593.5 1330.5 c 128,-1,24
 553 1327 553 1327 524 1315.5 c 128,-1,25
 495 1304 495 1304 479 1290.5 c 128,-1,26
 463 1277 463 1277 454.5 1249.5 c 128,-1,27
 446 1222 446 1222 443.5 1193.5 c 128,-1,28
 441 1165 441 1165 441 1117 c 2,29,-1
 441 1026 l 1,30,-1
 882 1026 l 1,31,-1
 882 1100 l 2,32,33
 882 1161 882 1161 885.5 1204 c 128,-1,34
 889 1247 889 1247 898.5 1290 c 128,-1,35
 908 1333 908 1333 926 1361 c 128,-1,36
 944 1389 944 1389 973 1413.5 c 128,-1,37
 1002 1438 1002 1438 1044.5 1452 c 128,-1,38
 1087 1466 1087 1466 1144.5 1473.5 c 128,-1,39
 1202 1481 1202 1481 1278 1481 c 2,40,-1
 1326 1481 l 1,41,-1
 1322 1334 l 1,42,43
 1262 1334 1262 1334 1222 1330.5 c 128,-1,44
 1182 1327 1182 1327 1153 1315.5 c 128,-1,45
 1124 1304 1124 1304 1108.5 1291 c 128,-1,46
 1093 1278 1093 1278 1084 1250 c 128,-1,47
 1075 1222 1075 1222 1073 1194 c 128,-1,48
 1071 1166 1071 1166 1071 1117 c 2,49,-1
 1071 1026 l 1,50,-1
 1697 1026 l 1,51,-1
 1697 0 l 1,52,-1
 1510 0 l 1,53,-1
 1510 901 l 1,54,-1
 1071 901 l 1,55,-1
 1071 0 l 1,56,-1
 882 0 l 1,4,-1
EndSplineSet
EndChar

StartChar: uniFB04
Encoding: 64260 64260 440
Width: 1942
GlyphClass: 2
Flags: W
LayerCount: 2
UndoRedoHistory
Layer: 1
Undoes
EndUndoes
Redoes
EndRedoes
EndUndoRedoHistory
Fore
SplineSet
1125 901 m 1,0,-1
 1125 0 l 1,1,-1
 937 0 l 1,2,-1
 937 901 l 1,3,-1
 441 901 l 1,4,-1
 441 0 l 1,5,-1
 252 0 l 1,6,-1
 252 901 l 1,7,-1
 68 901 l 1,8,-1
 68 1026 l 1,9,-1
 252 1026 l 1,10,-1
 252 1101 l 2,11,12
 252 1162 252 1162 255.5 1205 c 128,-1,13
 259 1248 259 1248 268.5 1291 c 128,-1,14
 278 1334 278 1334 296 1362 c 128,-1,15
 314 1390 314 1390 343 1414.5 c 128,-1,16
 372 1439 372 1439 414.5 1453 c 128,-1,17
 457 1467 457 1467 514.5 1474.5 c 128,-1,18
 572 1482 572 1482 648 1482 c 2,19,-1
 696 1482 l 1,20,-1
 696 1335 l 1,21,22
 636 1335 636 1335 595.5 1331.5 c 128,-1,23
 555 1328 555 1328 525.5 1317 c 128,-1,24
 496 1306 496 1306 480 1292 c 128,-1,25
 464 1278 464 1278 455 1250.5 c 128,-1,26
 446 1223 446 1223 443.5 1194.5 c 128,-1,27
 441 1166 441 1166 441 1118 c 2,28,-1
 441 1026 l 1,29,-1
 937 1026 l 1,30,-1
 937 1093 l 2,31,32
 937 1197 937 1197 956 1263.5 c 128,-1,33
 975 1330 975 1330 1026 1377.5 c 128,-1,34
 1077 1425 1077 1425 1165.5 1445 c 128,-1,35
 1254 1465 1254 1465 1394 1465 c 2,36,-1
 1778 1465 l 1,37,-1
 1778 0 l 1,38,-1
 1589 0 l 1,39,-1
 1589 1319 l 1,40,-1
 1409 1319 l 2,41,42
 1317 1319 1317 1319 1262.5 1310 c 128,-1,43
 1208 1301 1208 1301 1177 1277 c 128,-1,44
 1146 1253 1146 1253 1135.5 1218.5 c 128,-1,45
 1125 1184 1125 1184 1125 1125 c 2,46,-1
 1125 1026 l 1,47,-1
 1369 1026 l 1,48,-1
 1369 901 l 1,49,-1
 1125 901 l 1,0,-1
EndSplineSet
EndChar

StartChar: commaaccent
Encoding: 65538 -1 441
Width: 540
GlyphClass: 4
Flags: W
AnchorPoint: "Anchor-1" 288 0 mark 0
LayerCount: 2
UndoRedoHistory
Layer: 1
Undoes
EndUndoes
Redoes
EndRedoes
EndUndoRedoHistory
Fore
SplineSet
99 -620 m 1,0,-1
 209 -136 l 1,1,-1
 441 -136 l 1,2,-1
 269 -620 l 1,3,-1
 99 -620 l 1,0,-1
EndSplineSet
EndChar

StartChar: uni007F
Encoding: 127 127 442
Width: 1521
GlyphClass: 2
Flags: W
LayerCount: 2
UndoRedoHistory
Layer: 1
Undoes
EndUndoes
Redoes
EndRedoes
EndUndoRedoHistory
Fore
SplineSet
360 1330 m 1,0,-1
 360 124 l 1,1,-1
 1161 124 l 1,2,-1
 1161 1330 l 1,3,-1
 360 1330 l 1,0,-1
188 0 m 1,4,-1
 188 1456 l 1,5,-1
 1333 1456 l 1,6,-1
 1333 0 l 1,7,-1
 188 0 l 1,4,-1
EndSplineSet
EndChar

StartChar: acutecomb
Encoding: 769 769 443
Width: 0
GlyphClass: 4
Flags: W
AnchorPoint: "Anchor-0" -171 1022 mark 0
LayerCount: 2
UndoRedoHistory
Layer: 1
Undoes
EndUndoes
Redoes
EndRedoes
EndUndoRedoHistory
Fore
SplineSet
-255 1154 m 1,0,-1
 -10 1531 l 1,1,-1
 255 1532 l 1,2,-1
 -76 1154 l 1,3,-1
 -255 1154 l 1,0,-1
EndSplineSet
EndChar

StartChar: caroncomb
Encoding: 780 780 444
Width: 0
GlyphClass: 4
Flags: W
AnchorPoint: "Anchor-0" -14 1042 mark 0
LayerCount: 2
UndoRedoHistory
Layer: 1
Undoes
EndUndoes
Redoes
EndRedoes
EndUndoRedoHistory
Fore
SplineSet
-87 1139 m 1,0,-1
 -342 1511 l 1,1,-1
 -158 1511 l 1,2,-1
 -2 1278 l 1,3,-1
 154 1511 l 1,4,-1
 342 1511 l 1,5,-1
 87 1139 l 1,6,-1
 -87 1139 l 1,0,-1
EndSplineSet
EndChar

StartChar: circumflexcomb
Encoding: 770 770 445
Width: 0
GlyphClass: 4
Flags: W
AnchorPoint: "Anchor-0" 5 1042 mark 0
LayerCount: 2
UndoRedoHistory
Layer: 1
Undoes
EndUndoes
Redoes
EndRedoes
EndUndoRedoHistory
Fore
SplineSet
-95 1505 m 1,0,-1
 93 1505 l 1,1,-1
 337 1139 l 1,2,-1
 157 1139 l 1,3,-1
 -1 1365 l 1,4,-1
 -161 1139 l 1,5,-1
 -337 1139 l 1,6,-1
 -95 1505 l 1,0,-1
EndSplineSet
EndChar

StartChar: gravecomb
Encoding: 768 768 446
Width: 0
GlyphClass: 4
Flags: W
AnchorPoint: "Anchor-0" 162 1022 mark 0
LayerCount: 2
UndoRedoHistory
Layer: 1
Undoes
EndUndoes
Redoes
EndRedoes
EndUndoRedoHistory
Fore
SplineSet
82 1153 m 1,0,-1
 -260 1532 l 1,1,-1
 6 1532 l 1,2,-1
 260 1153 l 1,3,-1
 82 1153 l 1,0,-1
EndSplineSet
EndChar

StartChar: uni018F
Encoding: 399 399 447
Width: 1489
GlyphClass: 2
Flags: W
LayerCount: 2
UndoRedoHistory
Layer: 1
Undoes
EndUndoes
Redoes
EndRedoes
EndUndoRedoHistory
Fore
SplineSet
290 642 m 1,0,1
 299 524 299 524 336.5 430.5 c 128,-1,2
 374 337 374 337 433.5 278 c 128,-1,3
 493 219 493 219 567.5 188.5 c 128,-1,4
 642 158 642 158 728 158 c 0,5,6
 900 158 900 158 1015 294 c 128,-1,7
 1130 430 1130 430 1153 642 c 1,8,-1
 290 642 l 1,0,1
1383 740 m 0,9,10
 1383 571 1383 571 1333.5 427.5 c 128,-1,11
 1284 284 1284 284 1198 186 c 128,-1,12
 1112 88 1112 88 995 33 c 128,-1,13
 878 -22 878 -22 746 -22 c 0,14,15
 642 -22 642 -22 548.5 3 c 128,-1,16
 455 28 455 28 367.5 88.5 c 128,-1,17
 280 149 280 149 217.5 240 c 128,-1,18
 155 331 155 331 117 473 c 128,-1,19
 79 615 79 615 79 794 c 2,20,-1
 79 821 l 1,21,-1
 1155 821 l 1,22,23
 1146 943 1146 943 1105.5 1036.5 c 128,-1,24
 1065 1130 1065 1130 1001 1187 c 128,-1,25
 937 1244 937 1244 857 1273 c 128,-1,26
 777 1302 777 1302 683 1302 c 0,27,28
 453 1302 453 1302 224 1150 c 1,29,-1
 153 1321 l 1,30,31
 421 1486 421 1486 698 1486 c 0,32,33
 840 1486 840 1486 963.5 1438.5 c 128,-1,34
 1087 1391 1087 1391 1181 1300 c 128,-1,35
 1275 1209 1275 1209 1329 1065 c 128,-1,36
 1383 921 1383 921 1383 740 c 0,9,10
EndSplineSet
EndChar

StartChar: uni0259
Encoding: 601 601 448
Width: 1168
GlyphClass: 2
Flags: W
LayerCount: 2
UndoRedoHistory
Layer: 1
Undoes
EndUndoes
Redoes
EndRedoes
EndUndoRedoHistory
Fore
SplineSet
848 419 m 1,0,-1
 292 419 l 1,1,2
 307 284 307 284 379.5 212 c 128,-1,3
 452 140 452 140 565 140 c 0,4,5
 677 140 677 140 752.5 214 c 128,-1,6
 828 288 828 288 848 419 c 1,0,-1
530 1052 m 0,7,8
 777 1052 777 1052 921.5 906.5 c 128,-1,9
 1066 761 1066 761 1066 519 c 0,10,11
 1066 285 1066 285 930 131.5 c 128,-1,12
 794 -22 794 -22 572 -22 c 0,13,14
 422 -22 422 -22 316.5 48.5 c 128,-1,15
 211 119 211 119 161.5 237.5 c 128,-1,16
 112 356 112 356 112 512 c 0,17,18
 112 526 112 526 116 559 c 1,19,-1
 853 559 l 1,20,21
 849 718 849 718 757.5 801.5 c 128,-1,22
 666 885 666 885 517 885 c 0,23,24
 337 885 337 885 196 772 c 1,25,-1
 136 924 l 1,26,27
 301 1052 301 1052 530 1052 c 0,7,8
EndSplineSet
EndChar

StartChar: uni02BC
Encoding: 700 700 449
Width: 506
GlyphClass: 4
Flags: W
AnchorPoint: "Anchor-1" 300 346 mark 0
LayerCount: 2
UndoRedoHistory
Layer: 1
Undoes
EndUndoes
Redoes
EndRedoes
EndUndoRedoHistory
Fore
SplineSet
65 -267 m 1,0,-1
 175 237 l 1,1,-1
 407 237 l 1,2,-1
 236 -267 l 1,3,-1
 65 -267 l 1,0,-1
EndSplineSet
EndChar

StartChar: f_j
Encoding: 65539 -1 456
Width: 1237
GlyphClass: 2
Flags: W
LayerCount: 2
UndoRedoHistory
Layer: 1
Undoes
EndUndoes
Redoes
EndRedoes
EndUndoRedoHistory
Fore
SplineSet
252 0 m 1,0,-1
 252 901 l 1,1,-1
 69 901 l 1,2,-1
 69 1026 l 1,3,-1
 252 1026 l 1,4,-1
 252 1101 l 2,5,6
 252 1173 252 1173 257 1221 c 128,-1,7
 262 1269 262 1269 276.5 1316 c 128,-1,8
 291 1363 291 1363 318 1391 c 128,-1,9
 345 1419 345 1419 389 1441 c 128,-1,10
 433 1463 433 1463 497 1472.5 c 128,-1,11
 561 1482 561 1482 649 1482 c 2,12,-1
 697 1482 l 1,13,-1
 694 1335 l 1,14,15
 634 1335 634 1335 593.5 1331.5 c 128,-1,16
 553 1328 553 1328 524 1316.5 c 128,-1,17
 495 1305 495 1305 479 1291.5 c 128,-1,18
 463 1278 463 1278 454.5 1250.5 c 128,-1,19
 446 1223 446 1223 443.5 1194.5 c 128,-1,20
 441 1166 441 1166 441 1118 c 2,21,-1
 441 1026 l 1,22,-1
 895 1026 l 1,23,-1
 916 1026 l 1,24,-1
 1101 1026 l 1,25,-1
 1101 5 l 2,26,27
 1101 -200 1101 -200 1027.5 -295.5 c 128,-1,28
 954 -391 954 -391 771 -391 c 0,29,30
 694 -391 694 -391 602 -369 c 1,31,-1
 620 -219 l 1,32,33
 682 -237 682 -237 747 -237 c 0,34,35
 831 -237 831 -237 863 -185 c 128,-1,36
 895 -133 895 -133 895 12 c 2,37,-1
 895 901 l 1,38,-1
 441 901 l 1,39,-1
 441 0 l 1,40,-1
 252 0 l 1,0,-1
899 1270 m 1,41,-1
 899 1456 l 1,42,-1
 1101 1456 l 1,43,-1
 1101 1270 l 1,44,-1
 899 1270 l 1,41,-1
EndSplineSet
EndChar

StartChar: middot
Encoding: 65541 -1 458
Width: 509
GlyphClass: 2
Flags: W
LayerCount: 2
UndoRedoHistory
Layer: 1
Undoes
EndUndoes
Redoes
EndRedoes
EndUndoRedoHistory
Fore
SplineSet
146 513 m 1,0,-1
 146 723 l 1,1,-1
 363 723 l 1,2,-1
 363 513 l 1,3,-1
 146 513 l 1,0,-1
EndSplineSet
EndChar

